SplineFontDB: 3.0
FontName: Casedana
FullName: Casedana
FamilyName: Casedana
Weight: Normal
Copyright: Copyright (c) 2011 by vernon adams. All rights reserved.
Version: 001.001
ItalicAngle: 0
UnderlinePosition: -103
UnderlineWidth: 102
Ascent: 1638
Descent: 410
sfntRevision: 0x00010000
LayerCount: 2
Layer: 0 0 "Back"  1
Layer: 1 0 "Fore"  0
NeedsXUIDChange: 1
XUID: [1021 14 500265001 2723872]
FSType: 0
OS2Version: 3
OS2_WeightWidthSlopeOnly: 0
OS2_UseTypoMetrics: 1
CreationTime: 1314885505
ModificationTime: 1314892430
PfmFamily: 17
TTFWeight: 400
TTFWidth: 5
LineGap: 108
VLineGap: 0
Panose: 2 0 8 3 5 0 0 2 0 3
OS2TypoAscent: -264
OS2TypoAOffset: 1
OS2TypoDescent: -24
OS2TypoDOffset: 1
OS2TypoLinegap: 108
OS2WinAscent: 0
OS2WinAOffset: 1
OS2WinDescent: -42
OS2WinDOffset: 1
HheadAscent: -730
HheadAOffset: 1
HheadDescent: 81
HheadDOffset: 1
OS2SubXSize: 1331
OS2SubYSize: 1228
OS2SubXOff: 0
OS2SubYOff: 153
OS2SupXSize: 1331
OS2SupYSize: 1228
OS2SupXOff: 0
OS2SupYOff: 716
OS2StrikeYSize: 102
OS2StrikeYPos: 211
OS2Vendor: 'newt'
OS2CodePages: 20000083.00000000
OS2UnicodeRanges: 00000007.00000000.00000000.00000000
DEI: 91125
LangName: 1033 "" "" "Regular" "1.000;newt;Casedana" "" "Version 1.000;PS 001.001;hotconv 1.0.56" "" "Casedana is a trademark of vernon adams." "vernon adams" "vernon adams" "Copyright (c) 2011 by vernon adams. All rights reserved." 
Encoding: UnicodeBmp
Compacted: 1
UnicodeInterp: none
NameList: Adobe Glyph List
DisplaySize: -48
AntiAlias: 1
FitToEm: 1
WinInfo: 0 27 13
BeginPrivate: 8
BlueValues 38 [-132 0 1420 1420 1442 1509 1561 1586]
OtherBlues 11 [-515 -349]
BlueScale 9 0.0059639
BlueShift 2 19
StdHW 5 [180]
StdVW 5 [232]
StemSnapH 9 [151 180]
StemSnapV 21 [127 232 260 311 331]
EndPrivate
BeginChars: 65543 350

StartChar: exclam
Encoding: 33 33 2
Width: 409
Flags: W
LayerCount: 2
Fore
SplineSet
252 377 m 1
 148 377 l 1
 91 976 l 1
 86 1069 l 2
 83 1122 78 1176 78 1228 c 0
 78 1288 87 1341 110 1384 c 1
 132 1391 157 1395 184 1395 c 0
 244 1395 289 1379 322 1354 c 1
 329 1314 330 1272 330 1228 c 0
 330 1161 326 1094 323 1027 c 1
 252 377 l 1
67 183 m 1
 108 226 182 259 266 259 c 1
 309 218 342 144 342 60 c 1
 301 17 227 -16 143 -16 c 1
 100 25 67 99 67 183 c 1
EndSplineSet
EndChar

StartChar: quotedbl
Encoding: 34 34 3
Width: 693
Flags: W
LayerCount: 2
Fore
SplineSet
242 1192 m 1
 209 841 l 1
 190 820 165 810 134 810 c 1
 119 819 111 839 108 870 c 2
 85 1113 l 1
 82 1186 77 1260 77 1332 c 1
 105 1379 146 1395 201 1395 c 1
 228 1379 243 1347 243 1284 c 0
 243 1253 242 1223 242 1192 c 1
614 1192 m 1
 581 841 l 1
 561 820 536 810 505 810 c 1
 492 819 483 839 480 870 c 2
 457 1113 l 1
 454 1186 449 1260 449 1332 c 1
 477 1379 518 1395 573 1395 c 1
 600 1379 615 1347 615 1284 c 0
 615 1253 614 1223 614 1192 c 1
EndSplineSet
EndChar

StartChar: numbersign
Encoding: 35 35 4
Width: 1137
Flags: W
LayerCount: 2
Fore
SplineSet
1058 510 m 1
 1058 381 l 1
 810 381 l 1
 741 -8 l 1
 605 -8 l 1
 673 381 l 1
 369 381 l 1
 300 -8 l 1
 163 -8 l 1
 231 381 l 1
 50 381 l 1
 50 510 l 1
 255 510 l 1
 308 807 l 1
 77 807 l 1
 77 937 l 1
 332 937 l 1
 399 1326 l 1
 536 1326 l 1
 469 937 l 1
 772 937 l 1
 839 1326 l 1
 977 1326 l 1
 909 937 l 1
 1083 937 l 1
 1083 807 l 1
 885 807 l 1
 833 510 l 1
 1058 510 l 1
749 807 m 1
 444 807 l 1
 391 510 l 1
 696 510 l 1
 749 807 l 1
EndSplineSet
EndChar

StartChar: dollar
Encoding: 36 36 5
Width: 1070
Flags: W
LayerCount: 2
Fore
SplineSet
536 -217 m 1
 425 -217 l 1
 418 -130 425 -71 425 3 c 1
 536 3 l 1
 536 -217 l 1
536 1383 m 1
 425 1383 l 1
 425 1603 l 1
 536 1603 l 1
 536 1383 l 1
716 -217 m 1
 605 -217 l 1
 605 3 l 1
 716 3 l 1
 716 -217 l 1
716 1383 m 1
 605 1383 l 1
 605 1603 l 1
 716 1603 l 1
 716 1383 l 1
357 517 m 0
 333 530 341 597 266 657 c 1
 164 747 100 879 100 1050 c 0
 100 1304 275 1441 538 1441 c 0
 696 1441 934 1400 934 1137 c 2
 934 1088 l 2
 934 1024 940 975 1010 932 c 1
 1010 932 993 906 950 906 c 0
 844 906 778 998 775 1006 c 1
 773 1002 717 934 651 934 c 0
 590 934 580 966 578 977 c 1
 641 1009 674 1051 674 1145 c 0
 674 1204 647 1259 567 1259 c 0
 442 1259 424 1154 424 1080 c 0
 424 949 472 887 558 847 c 0
 567 843 579 841 590 841 c 0
 635 841 690 866 708 866 c 0
 710 866 711 866 712 865 c 0
 729 856 734 768 795 734 c 1
 922 647 1019 515 1019 329 c 0
 1019 74 832 -84 546 -84 c 0
 374 -84 115 -39 115 225 c 0
 115 237 116 249 116 294 c 0
 116 355 102 411 38 452 c 1
 38 452 56 479 98 479 c 0
 208 479 263 373 263 369 c 1
 263 369 334 452 407 452 c 0
 471 452 482 415 483 407 c 1
 425 372 395 326 395 227 c 0
 395 168 434 107 539 107 c 0
 660 107 695 217 695 277 c 0
 695 415 622 471 534 516 c 1
 507 528 482 532 460 532 c 0
 415 532 381 516 364 516 c 0
 361 516 359 516 357 517 c 0
EndSplineSet
EndChar

StartChar: percent
Encoding: 37 37 6
Width: 1733
Flags: W
LayerCount: 2
Fore
SplineSet
370 1220 m 0
 289 1220 248 1136 248 967 c 0
 248 797 289 712 370 712 c 0
 451 712 491 797 491 967 c 0
 491 1136 451 1220 370 1220 c 0
452 -16 m 1
 316 -16 l 1
 1292 1330 l 1
 1423 1330 l 1
 452 -16 l 1
1369 596 m 0
 1288 596 1247 511 1247 342 c 0
 1247 173 1288 88 1369 88 c 0
 1450 88 1491 173 1491 342 c 0
 1491 511 1450 596 1369 596 c 0
370 1340 m 0
 574 1340 682 1196 682 967 c 0
 682 738 574 594 370 594 c 0
 165 594 57 738 57 967 c 0
 57 1196 165 1340 370 1340 c 0
1369 715 m 0
 1573 715 1681 571 1681 342 c 0
 1681 114 1573 -31 1369 -31 c 0
 1164 -31 1057 114 1057 342 c 0
 1057 571 1164 715 1369 715 c 0
EndSplineSet
EndChar

StartChar: ampersand
Encoding: 38 38 7
Width: 1233
Flags: W
LayerCount: 2
Fore
SplineSet
797 285 m 0
 797 302 801 335 801 372 c 0
 801 434 790 505 729 525 c 1
 729 525 737 551 780 551 c 0
 882 551 941 452 941 458 c 1
 941 458 996 546 1079 546 c 0
 1111 546 1156 533 1156 493 c 2
 1156 486 l 1
 1079 453 1079 398 1079 326 c 0
 1079 155 1112 47 1199 -22 c 1
 1199 -22 1168 -73 1095 -73 c 0
 995 -73 928 52 928 52 c 1
 851 -69 700 -86 584 -86 c 0
 346 -86 134 7 134 193 c 0
 134 326 47 384 47 408 c 0
 47 422 134 510 134 589 c 0
 134 640 185 806 290 821 c 1
 185 829 134 926 134 978 c 0
 134 1092 47 1118 47 1130 c 0
 47 1152 144 1209 144 1323 c 0
 144 1513 361 1586 604 1586 c 0
 727 1586 980 1536 980 1374 c 2
 980 1373 l 2
 980 1250 1000 1189 1063 1136 c 1
 1063 1136 1060 1096 991 1096 c 0
 908 1096 851 1174 851 1174 c 1
 851 1174 793 1096 698 1096 c 0
 667 1096 666 1136 666 1136 c 1
 703 1177 710 1211 710 1302 c 0
 710 1344 662 1372 580 1372 c 0
 430 1372 412 1273 412 1197 c 0
 412 1092 401 913 533 913 c 0
 647 913 682 935 713 979 c 1
 713 979 740 976 740 929 c 0
 740 865 700 826 700 826 c 1
 700 826 740 792 740 735 c 0
 740 686 713 684 713 684 c 1
 672 727 632 743 532 743 c 0
 408 743 411 532 411 336 c 0
 411 254 434 146 630 146 c 0
 778 146 797 209 797 285 c 0
EndSplineSet
EndChar

StartChar: quoteright
Encoding: 8217 8217 8
Width: 445
Flags: W
LayerCount: 2
Fore
SplineSet
86 853 m 1
 86 947 l 1
 189 972 248 1026 248 1149 c 1
 246 1149 l 1
 219 1136 177 1132 138 1132 c 1
 107 1173 76 1239 76 1319 c 1
 97 1362 150 1395 214 1395 c 0
 265 1395 309 1381 348 1360 c 1
 365 1297 375 1229 375 1158 c 0
 375 974 262 869 86 853 c 1
EndSplineSet
EndChar

StartChar: parenleft
Encoding: 40 40 9
Width: 690
Flags: W
LayerCount: 2
Fore
SplineSet
653 1608 m 1
 653 1467 l 1
 379 1342 302 1034 302 694 c 0
 302 355 379 44 653 -78 c 1
 653 -219 l 1
 265 -110 63 265 63 694 c 0
 63 1122 265 1499 653 1608 c 1
EndSplineSet
EndChar

StartChar: parenright
Encoding: 41 41 10
Width: 695
Flags: W
LayerCount: 2
Fore
SplineSet
40 -219 m 1
 40 -78 l 1
 314 44 391 355 391 694 c 0
 391 1034 314 1342 40 1467 c 1
 40 1608 l 1
 427 1499 630 1123 630 694 c 0
 630 266 427 -112 40 -219 c 1
EndSplineSet
EndChar

StartChar: asterisk
Encoding: 42 42 11
Width: 846
Flags: W
LayerCount: 2
Fore
SplineSet
660 412 m 1
 658 408 l 1
 430 550 l 1
 193 406 l 1
 192 409 l 1
 256 667 l 1
 46 849 l 1
 314 869 l 1
 422 1125 l 1
 524 876 l 1
 800 853 l 1
 595 679 l 1
 660 412 l 1
EndSplineSet
EndChar

StartChar: plus
Encoding: 43 43 12
Width: 1143
Flags: W
LayerCount: 2
Fore
SplineSet
491 655 m 1
 491 1087 l 1
 654 1087 l 1
 654 655 l 1
 1086 655 l 1
 1086 492 l 1
 654 492 l 1
 654 60 l 1
 491 60 l 1
 491 492 l 1
 59 492 l 1
 59 655 l 1
 491 655 l 1
EndSplineSet
EndChar

StartChar: comma
Encoding: 44 44 13
Width: 459
Flags: W
LayerCount: 2
Fore
SplineSet
91 -283 m 1
 91 -189 l 1
 194 -163 253 -109 253 13 c 1
 251 13 l 1
 224 1 182 -3 143 -3 c 1
 112 38 81 103 81 183 c 1
 102 226 155 259 219 259 c 0
 270 259 314 245 353 224 c 1
 370 161 380 93 380 22 c 0
 380 -160 267 -267 91 -283 c 1
EndSplineSet
EndChar

StartChar: hyphen
Encoding: 45 45 14
Width: 826
Flags: W
LayerCount: 2
Fore
SplineSet
107 548 m 1
 107 548 82 551 82 594 c 2
 82 690 l 2
 82 733 107 736 107 736 c 1
 175 726 296 723 423 723 c 0
 539 723 665 729 717 736 c 1
 717 736 742 733 742 690 c 2
 742 594 l 2
 742 550 717 548 717 548 c 1
 670 554 538 561 420 561 c 0
 291 561 169 558 107 548 c 1
EndSplineSet
EndChar

StartChar: period
Encoding: 46 46 15
Width: 547
Flags: W
LayerCount: 2
Fore
SplineSet
120 274 m 1
 161 295 214 307 272 307 c 0
 318 307 368 299 417 282 c 1
 438 241 450 189 450 132 c 0
 450 84 441 34 424 -15 c 1
 383 -36 330 -48 272 -48 c 0
 225 -48 175 -40 125 -22 c 1
 105 18 94 69 94 126 c 0
 94 173 102 224 120 274 c 1
EndSplineSet
EndChar

StartChar: slash
Encoding: 47 47 16
Width: 831
Flags: W
LayerCount: 2
Fore
SplineSet
69 -35 m 1
 745 1612 l 1
 890 1542 l 1
 214 -105 l 1
 69 -35 l 1
EndSplineSet
EndChar

StartChar: zero
Encoding: 48 48 17
Width: 1235
Flags: W
LayerCount: 2
Fore
SplineSet
492 421 m 0
 492 206 492 98 622 98 c 0
 753 98 754 218 754 432 c 0
 754 705 669 733 669 748 c 0
 669 777 754 772 754 1088 c 0
 754 1290 752 1372 622 1372 c 0
 493 1372 491 1290 491 1088 c 0
 491 772 575 777 575 748 c 0
 575 730 492 695 492 421 c 0
1087 421 m 0
 1087 37 920 -92 622 -92 c 0
 324 -92 157 37 157 421 c 0
 157 708 33 734 33 748 c 0
 33 773 157 779 157 1077 c 0
 157 1505 324 1586 623 1586 c 0
 920 1586 1087 1505 1087 1077 c 0
 1087 784 1197 772 1197 748 c 0
 1197 746 1194 744 1188 739 c 0
 1155 714 1087 659 1087 421 c 0
EndSplineSet
EndChar

StartChar: one
Encoding: 49 49 18
Width: 627
Flags: W
LayerCount: 2
Fore
SplineSet
166 375 m 0
 166 726 57 722 57 756 c 0
 57 801 166 770 166 1148 c 0
 166 1338 135 1415 45 1503 c 1
 45 1503 49 1562 150 1562 c 0
 254 1562 315 1477 315 1477 c 1
 315 1477 377 1562 480 1562 c 0
 582 1562 586 1503 586 1503 c 1
 496 1415 465 1338 465 1148 c 0
 465 770 574 801 574 756 c 0
 574 722 465 726 465 375 c 0
 465 169 496 80 586 -14 c 1
 586 -14 582 -74 480 -74 c 0
 377 -74 315 11 315 11 c 1
 315 11 254 -74 150 -74 c 0
 50 -74 45 -14 45 -14 c 1
 135 80 166 169 166 375 c 0
EndSplineSet
EndChar

StartChar: two
Encoding: 50 50 19
Width: 1187
Flags: W
LayerCount: 2
Fore
SplineSet
651 1006 m 1
 671 1036 723 1131 723 1206 c 0
 723 1295 692 1372 592 1372 c 0
 451 1372 438 1297 438 1226 c 0
 438 1130 439 1105 532 1068 c 1
 532 1068 527 1024 452 1024 c 0
 354 1024 295 1088 295 1088 c 1
 295 1088 228 1024 130 1024 c 0
 54 1024 51 1068 51 1068 c 1
 120 1108 142 1143 142 1227 c 0
 142 1547 405 1586 598 1586 c 0
 826 1586 1028 1483 1028 1223 c 0
 1028 1008 853 852 853 720 c 0
 853 671 875 646 875 635 c 1
 865 634 865 633 865 631 c 1
 830 619 753 591 618 246 c 1
 732 246 761 240 868 240 c 0
 970 240 1022 266 1074 327 c 1
 1074 327 1107 307 1107 251 c 0
 1107 183 1035 133 1027 129 c 1
 1044 116 1107 67 1107 2 c 0
 1107 -61 1080 -72 1073 -74 c 1
 1000 -20 936 0 879 0 c 0
 795 0 734 -75 667 -75 c 0
 630 -75 590 -45 542 18 c 1
 527 18 525 15 523 11 c 0
 508 -11 469 -75 412 -75 c 0
 312 -75 304 -17 304 -1 c 2
 304 46 l 1
 304 46 196 -76 118 -76 c 0
 89 -76 49 -50 49 -1 c 0
 49 7 50 14 54 24 c 1
 190 116 276 211 386 477 c 1
 441 595 450 671 450 717 c 0
 450 761 426 786 426 796 c 0
 426 818 537 757 651 1006 c 1
EndSplineSet
EndChar

StartChar: three
Encoding: 51 51 20
Width: 1142
Flags: W
LayerCount: 2
Fore
SplineSet
629 675 m 0
 569 675 542 670 514 656 c 1
 514 656 487 659 487 707 c 0
 487 740 527 758 527 758 c 1
 527 758 487 781 487 821 c 0
 487 868 514 871 514 871 c 1
 543 857 569 853 629 853 c 0
 734 853 739 1030 739 1165 c 0
 739 1243 744 1372 592 1372 c 0
 451 1372 438 1297 438 1226 c 0
 438 1130 439 1105 532 1068 c 1
 532 1068 527 1024 452 1024 c 0
 354 1024 295 1088 295 1088 c 1
 295 1088 228 1024 130 1024 c 0
 54 1024 51 1068 51 1068 c 1
 120 1108 142 1143 142 1227 c 0
 142 1547 405 1586 598 1586 c 0
 816 1586 1008 1513 1008 1323 c 0
 1008 1209 1105 1152 1105 1130 c 0
 1105 1116 1018 1088 1018 958 c 0
 1018 894 967 772 862 761 c 1
 967 750 1018 612 1018 569 c 0
 1018 498 1105 420 1105 408 c 0
 1105 384 1018 326 1018 193 c 0
 1018 14 831 -75 598 -75 c 0
 405 -75 142 -37 142 274 c 0
 142 358 120 394 51 433 c 1
 51 433 54 477 130 477 c 0
 228 477 295 413 295 413 c 1
 295 413 354 477 452 477 c 0
 527 477 532 433 532 433 c 1
 439 398 438 375 438 285 c 0
 438 214 451 139 592 139 c 0
 729 139 739 275 739 359 c 0
 739 518 737 675 629 675 c 0
EndSplineSet
EndChar

StartChar: four
Encoding: 52 52 21
Width: 1151
Flags: W
LayerCount: 2
Fore
SplineSet
994 515 m 2
 1087 515 1134 538 1182 584 c 1
 1182 584 1222 580 1222 514 c 0
 1222 455 1170 419 1165 416 c 1
 1167 414 1222 377 1222 317 c 0
 1222 251 1182 246 1182 246 c 1
 1113 290 1056 306 1003 306 c 2
 992 306 l 1
 996 143 1025 67 1102 -13 c 1
 1102 -13 1098 -67 1006 -67 c 0
 912 -67 856 10 856 10 c 1
 856 10 800 -67 706 -67 c 0
 615 -67 610 -13 610 -13 c 1
 682 62 712 134 718 277 c 1
 711 278 704 278 697 278 c 0
 625 278 549 246 481 246 c 0
 423 246 371 270 334 360 c 1
 334 360 276 246 178 246 c 0
 112 246 89 277 89 324 c 0
 89 404 143 530 171 615 c 1
 205 699 224 753 224 794 c 0
 224 889 177 897 177 913 c 0
 177 951 301 925 407 1228 c 0
 427 1285 435 1332 435 1368 c 0
 435 1423 415 1462 375 1503 c 1
 375 1503 398 1562 499 1562 c 0
 609 1562 621 1457 621 1457 c 1
 636 1536 687 1565 738 1565 c 0
 794 1565 851 1519 856 1465 c 1
 856 1465 912 1562 1006 1562 c 0
 1078 1562 1082 1508 1082 1508 c 1
 1014 1412 992 1338 992 1146 c 2
 992 515 l 1
 994 515 l 2
434 516 m 1
 487 516 551 516 720 515 c 1
 720 1373 l 1
 555 854 460 611 434 516 c 1
EndSplineSet
EndChar

StartChar: five
Encoding: 53 53 22
Width: 885
Flags: W
LayerCount: 2
Fore
SplineSet
333 359 m 0
 333 198 334 106 405 106 c 0
 505 106 509 235 509 300 c 0
 509 419 491 466 426 521 c 1
 426 521 429 561 498 561 c 0
 569 561 611 503 611 503 c 1
 611 503 654 561 725 561 c 0
 794 561 797 521 797 521 c 1
 735 469 723 422 723 314 c 2
 723 193 l 2
 723 -33 534 -66 393 -66 c 0
 202 -66 73 55 73 257 c 2
 73 351 l 2
 73 587 259 608 335 608 c 0
 352 608 363 607 366 607 c 1
 256 638 73 698 73 1024 c 2
 73 1118 l 2
 73 1355 235 1442 420 1442 c 0
 569 1442 763 1408 763 1111 c 0
 763 1013 783 971 846 924 c 1
 846 924 843 884 774 884 c 0
 703 884 660 942 660 942 c 1
 660 942 618 884 547 884 c 0
 478 884 475 924 475 924 c 1
 547 977 559 1021 559 1147 c 0
 559 1197 547 1262 444 1262 c 0
 339 1262 334 1180 334 1099 c 0
 334 866 423 866 523 843 c 1
 523 843 333 669 333 359 c 0
EndSplineSet
EndChar

StartChar: six
Encoding: 54 54 23
Width: 1149
Flags: W
LayerCount: 2
Fore
SplineSet
504 486 m 0
 504 473 417 476 417 307 c 0
 417 200 430 129 582 129 c 0
 742 129 743 186 743 307 c 0
 743 476 655 472 655 486 c 0
 655 499 753 503 753 663 c 0
 753 784 752 837 582 837 c 0
 439 837 427 768 427 663 c 0
 427 503 504 499 504 486 c 0
585 -65 m 0
 359 -65 126 30 126 292 c 0
 126 472 39 470 39 486 c 0
 39 503 148 523 148 755 c 2
 148 1087 l 2
 148 1382 456 1444 590 1444 c 0
 635 1444 674 1440 721 1440 c 0
 781 1440 845 1458 921 1509 c 1
 921 1509 952 1492 952 1437 c 0
 952 1372 880 1324 880 1324 c 1
 880 1324 952 1279 952 1212 c 0
 952 1155 929 1144 922 1142 c 1
 870 1195 813 1221 711 1221 c 0
 427 1221 428 1131 428 981 c 1
 505 1002 570 1017 635 1017 c 0
 841 1017 1034 934 1034 687 c 0
 1034 507 1111 501 1111 486 c 0
 1111 470 1024 472 1024 292 c 0
 1024 30 811 -65 585 -65 c 0
EndSplineSet
EndChar

StartChar: seven
Encoding: 55 55 24
Width: 1089
Flags: W
LayerCount: 2
Fore
SplineSet
819 662 m 1
 672 622 622 157 557 11 c 1
 542 -11 503 -75 446 -75 c 0
 364 -75 358 -17 358 -1 c 2
 358 46 l 1
 358 46 238 -76 152 -76 c 0
 123 -76 83 -50 83 -1 c 0
 83 7 84 14 88 24 c 1
 196 78 397 487 397 731 c 0
 397 768 392 801 381 828 c 1
 380 827 l 1
 384 832 l 1
 388 850 440 838 543 1099 c 1
 543 1098 l 1
 561 1150 598 1255 598 1255 c 1
 598 1255 408 1246 282 1246 c 0
 186 1246 133 1220 82 1162 c 1
 82 1162 51 1180 51 1236 c 0
 51 1305 120 1357 128 1363 c 1
 122 1366 51 1416 51 1485 c 0
 51 1542 74 1557 84 1560 c 1
 155 1506 214 1488 272 1488 c 0
 310 1488 340 1509 372 1529 c 1
 371 1529 l 1
 396 1546 422 1561 448 1561 c 0
 483 1561 528 1529 579 1461 c 1
 579 1461 642 1561 734 1561 c 0
 829 1561 836 1478 836 1438 c 1
 836 1438 930 1561 1000 1561 c 0
 1030 1561 1055 1528 1055 1472 c 0
 1055 1461 1054 1449 1049 1436 c 1
 969 1350 936 1253 857 994 c 1
 819 859 807 795 807 750 c 0
 807 701 829 676 829 665 c 1
 819 664 819 663 819 661 c 2
 819 662 l 1
EndSplineSet
EndChar

StartChar: eight
Encoding: 56 56 25
Width: 1082
Flags: W
LayerCount: 2
Fore
SplineSet
390 627 m 1
 204 723 84 867 84 1050 c 0
 84 1304 283 1442 582 1442 c 0
 830 1442 998 1265 998 1068 c 0
 998 928 884 778 614 673 c 1
 533 681 518 687 518 693 c 0
 518 717 534 760 539 759 c 1
 671 828 752 945 752 1051 c 0
 752 1182 656 1244 561 1244 c 0
 469 1244 378 1187 378 1080 c 0
 378 959 421 886 572 826 c 1
 803 738 1028 549 1028 297 c 0
 1028 30 809 -85 540 -85 c 0
 194 -85 52 92 52 294 c 0
 52 453 199 633 432 739 c 1
 501 702 l 1
 450 657 340 486 340 331 c 0
 340 172 441 116 538 116 c 0
 620 116 699 162 699 288 c 0
 699 517 529 541 390 627 c 1
EndSplineSet
EndChar

StartChar: nine
Encoding: 57 57 26
Width: 1151
Flags: W
LayerCount: 2
Fore
SplineSet
646 891 m 0
 646 904 733 901 733 1070 c 0
 733 1177 720 1248 568 1248 c 0
 408 1248 407 1191 407 1070 c 0
 407 901 495 905 495 891 c 0
 495 878 397 874 397 714 c 0
 397 593 398 540 568 540 c 0
 711 540 723 609 723 714 c 0
 723 874 646 878 646 891 c 0
565 1442 m 0
 791 1442 1024 1347 1024 1085 c 0
 1024 905 1111 907 1111 891 c 0
 1111 874 1002 854 1002 622 c 2
 1002 290 l 2
 1002 -5 694 -67 560 -67 c 0
 515 -67 476 -63 429 -63 c 0
 369 -63 305 -81 229 -132 c 1
 229 -132 198 -115 198 -60 c 0
 198 5 270 53 270 53 c 1
 270 53 198 98 198 165 c 0
 198 222 221 233 228 235 c 1
 280 182 337 156 439 156 c 0
 723 156 722 246 722 396 c 1
 661 375 608 360 555 360 c 0
 329 360 116 443 116 690 c 0
 116 870 39 876 39 891 c 0
 39 907 126 905 126 1085 c 0
 126 1347 339 1442 565 1442 c 0
EndSplineSet
EndChar

StartChar: colon
Encoding: 58 58 27
Width: 431
Flags: W
LayerCount: 2
Fore
SplineSet
79 183 m 1
 120 226 193 259 277 259 c 1
 320 218 353 144 353 60 c 1
 312 17 238 -16 154 -16 c 1
 111 25 79 99 79 183 c 1
79 867 m 1
 120 910 193 943 277 943 c 1
 320 902 353 828 353 744 c 1
 312 701 238 668 154 668 c 1
 111 709 79 783 79 867 c 1
EndSplineSet
EndChar

StartChar: semicolon
Encoding: 59 59 28
Width: 448
Flags: W
LayerCount: 2
Fore
SplineSet
85 -283 m 1
 85 -189 l 1
 188 -163 247 -109 247 13 c 1
 245 13 l 1
 218 1 176 -3 137 -3 c 1
 106 38 75 103 75 183 c 1
 96 226 149 259 213 259 c 0
 264 259 308 245 347 224 c 1
 364 161 374 93 374 22 c 0
 374 -160 261 -267 85 -283 c 1
89 867 m 1
 130 910 203 943 287 943 c 1
 330 902 363 828 363 744 c 1
 322 701 248 668 164 668 c 1
 121 709 89 783 89 867 c 1
EndSplineSet
EndChar

StartChar: less
Encoding: 60 60 29
Width: 1195
Flags: W
LayerCount: 2
Fore
SplineSet
1126 216 m 1
 1126 41 l 1
 57 498 l 1
 57 648 l 1
 1126 1107 l 1
 1126 931 l 1
 281 573 l 1
 1126 216 l 1
EndSplineSet
EndChar

StartChar: equal
Encoding: 61 61 30
Width: 1206
Flags: W
LayerCount: 2
Fore
SplineSet
1115 870 m 1
 1115 707 l 1
 88 707 l 1
 88 870 l 1
 1115 870 l 1
1115 441 m 1
 1115 278 l 1
 88 278 l 1
 88 441 l 1
 1115 441 l 1
EndSplineSet
EndChar

StartChar: greater
Encoding: 62 62 31
Width: 1194
Flags: W
LayerCount: 2
Fore
SplineSet
69 216 m 1
 914 573 l 1
 69 931 l 1
 69 1106 l 1
 1138 648 l 1
 1138 498 l 1
 69 41 l 1
 69 216 l 1
EndSplineSet
EndChar

StartChar: question
Encoding: 63 63 32
Width: 975
Flags: W
LayerCount: 2
Fore
SplineSet
492 377 m 1
 363 377 l 1
 363 654 l 1
 366 697 391 730 422 763 c 1
 449 776 476 790 503 806 c 1
 599 838 679 906 679 1031 c 0
 679 1170 567 1249 444 1249 c 0
 293 1249 204 1167 197 1006 c 1
 208 1012 221 1017 235 1017 c 0
 241 1017 256 1018 256 1008 c 0
 256 998 251 976 228 944 c 1
 227 917 206 897 168 897 c 0
 91 897 46 984 46 1062 c 0
 46 1067 47 1072 47 1077 c 0
 74 1306 284 1406 470 1406 c 0
 711 1406 923 1275 923 1024 c 0
 923 761 638 662 505 533 c 1
 500 481 496 429 492 377 c 1
294 183 m 1
 335 226 409 259 493 259 c 1
 536 218 568 144 568 60 c 1
 527 17 454 -16 370 -16 c 1
 327 25 294 99 294 183 c 1
EndSplineSet
EndChar

StartChar: at
Encoding: 64 64 33
Width: 1785
Flags: W
LayerCount: 2
Fore
SplineSet
652 496 m 0
 652 356 724 268 818 268 c 0
 990 268 1116 555 1116 733 c 0
 1116 862 1060 938 954 938 c 0
 774 938 652 682 652 496 c 0
1165 923 m 1
 1193 1038 l 1
 1360 1038 l 1
 1207 379 l 1
 1204 371 1203 363 1203 354 c 0
 1203 309 1223 266 1274 266 c 0
 1388 266 1591 475 1591 748 c 0
 1591 1046 1329 1319 941 1319 c 0
 559 1319 238 1034 238 553 c 0
 238 175 513 -106 964 -106 c 0
 1217 -106 1397 -32 1529 95 c 1
 1635 49 l 1
 1478 -121 1271 -237 966 -237 c 0
 342 -237 57 163 57 557 c 0
 57 985 359 1446 945 1446 c 0
 1408 1446 1725 1132 1725 747 c 0
 1725 463 1516 140 1223 140 c 0
 1092 140 1031 225 1031 298 c 1
 1029 298 l 1
 974 230 869 145 753 142 c 1
 649 142 524 203 492 379 c 1
 480 416 473 458 473 503 c 0
 473 763 675 1067 940 1067 c 0
 1051 1067 1114 1007 1165 923 c 1
EndSplineSet
EndChar

StartChar: A
Encoding: 65 65 34
Width: 1278
Flags: W
LayerCount: 2
Fore
SplineSet
1114 375 m 0
 1137 169 1180 80 1285 -14 c 1
 1285 -14 1286 -74 1189 -74 c 0
 1098 -74 1036 11 1036 11 c 1
 1036 11 983 -74 870 -74 c 0
 768 -74 757 -14 757 -14 c 1
 801 61 826 134 826 256 c 0
 826 400 808 520 784 601 c 1
 757 627 697 640 637 640 c 0
 579 640 520 627 494 602 c 1
 470 521 453 402 453 257 c 0
 453 134 477 61 521 -14 c 1
 521 -14 510 -74 409 -74 c 0
 295 -74 242 11 242 11 c 1
 242 11 180 -74 89 -74 c 0
 -8 -74 -7 -14 -7 -14 c 1
 98 80 141 169 164 375 c 0
 170 428 172 473 172 510 c 0
 172 721 108 726 108 754 c 0
 108 802 239 765 289 1148 c 1
 291 1188 294 1226 294 1263 c 0
 294 1346 270 1425 186 1503 c 1
 186 1503 198 1562 298 1562 c 0
 421 1562 478 1456 478 1456 c 1
 512 1531 577 1562 638 1562 c 0
 701 1562 762 1526 800 1456 c 1
 800 1456 857 1562 980 1562 c 0
 1080 1562 1092 1503 1092 1503 c 1
 1008 1429 984 1351 984 1265 c 0
 984 1228 987 1189 989 1148 c 1
 1038 770 1165 801 1170 756 c 1
 1170 727 1105 725 1105 510 c 0
 1105 473 1108 428 1114 375 c 0
530 857 m 0
 529 854 529 852 529 849 c 0
 529 810 586 790 637 790 c 0
 691 790 748 810 748 850 c 0
 748 853 748 855 747 858 c 0
 736 917 677 1367 641 1367 c 0
 604 1367 541 915 530 857 c 0
EndSplineSet
EndChar

StartChar: B
Encoding: 66 66 35
Width: 1142
Flags: W
LayerCount: 2
Fore
SplineSet
862 761 m 1
 967 750 1018 612 1018 569 c 0
 1018 498 1105 420 1105 408 c 0
 1105 384 1018 326 1018 193 c 0
 1018 14 846 -73 648 -73 c 0
 544 -73 413 -61 344 42 c 1
 344 42 269 -73 157 -73 c 0
 84 -73 53 -22 53 -22 c 1
 140 59 173 185 173 386 c 0
 173 727 64 723 64 756 c 0
 64 801 173 772 173 1151 c 0
 173 1334 142 1417 52 1503 c 1
 52 1503 56 1562 157 1562 c 0
 274 1562 344 1459 344 1459 c 1
 413 1569 544 1586 648 1586 c 0
 841 1586 1008 1513 1008 1323 c 0
 1008 1209 1105 1152 1105 1130 c 0
 1105 1116 1018 1088 1018 958 c 0
 1018 894 967 772 862 761 c 1
471 853 m 1
 559 853 l 2
 724 853 738 1007 738 1137 c 0
 738 1204 758 1372 622 1372 c 0
 474 1372 472 1285 472 1220 c 0
 472 870 471 853 471 853 c 1
471 682 m 1
 471 682 472 659 472 309 c 0
 472 240 474 146 622 146 c 0
 758 146 739 330 739 400 c 0
 739 545 723 683 510 683 c 0
 485 683 471 682 471 682 c 1
EndSplineSet
EndChar

StartChar: C
Encoding: 67 67 36
Width: 1081
Flags: W
LayerCount: 2
Fore
SplineSet
451 395 m 0
 451 218 452 117 563 117 c 0
 653 117 656 254 656 327 c 0
 656 460 638 512 565 573 c 1
 565 573 568 617 644 617 c 0
 735 617 790 553 790 553 c 1
 790 553 857 617 955 617 c 0
 1031 617 1034 573 1034 573 c 1
 966 516 953 464 953 345 c 2
 953 212 l 2
 953 -36 719 -73 550 -73 c 0
 307 -73 143 61 143 283 c 2
 143 386 l 2
 143 727 34 723 34 756 c 0
 34 799 143 770 143 1126 c 2
 143 1230 l 2
 143 1491 332 1586 547 1586 c 0
 720 1586 953 1549 953 1300 c 2
 953 1167 l 2
 953 1043 975 988 1044 928 c 1
 1044 928 1041 884 965 884 c 0
 867 884 800 948 800 948 c 1
 800 948 741 884 643 884 c 0
 568 884 563 928 563 928 c 1
 644 994 656 1045 656 1202 c 0
 656 1275 645 1372 551 1372 c 0
 438 1372 450 1232 450 1154 c 0
 450 779 560 809 560 765 c 0
 560 732 451 736 451 395 c 0
EndSplineSet
EndChar

StartChar: D
Encoding: 68 68 37
Width: 1207
Flags: W
LayerCount: 2
Fore
SplineSet
484 342 m 0
 484 210 487 117 615 117 c 0
 748 117 746 200 746 351 c 0
 746 722 670 719 670 756 c 0
 670 809 746 762 746 1218 c 0
 746 1258 746 1372 624 1372 c 0
 486 1372 484 1285 484 1220 c 0
 484 763 560 807 560 756 c 0
 560 718 484 723 484 342 c 0
174 386 m 0
 174 727 65 723 65 756 c 0
 65 802 174 773 174 1163 c 0
 174 1341 143 1419 53 1503 c 1
 53 1503 57 1562 158 1562 c 0
 269 1562 336 1462 336 1462 c 1
 413 1570 557 1586 672 1586 c 0
 887 1586 1076 1491 1076 1230 c 2
 1076 1126 l 2
 1076 770 1163 799 1163 756 c 0
 1163 723 1076 727 1076 386 c 2
 1076 283 l 2
 1076 61 916 -74 680 -74 c 0
 557 -74 414 -51 336 41 c 1
 336 41 269 -74 158 -74 c 0
 57 -74 53 -14 53 -14 c 1
 143 74 174 197 174 386 c 0
EndSplineSet
EndChar

StartChar: E
Encoding: 69 69 38
Width: 1104
Flags: W
LayerCount: 2
Fore
SplineSet
526 669 m 1
 482 206 l 1
 482 120 546 117 581 117 c 0
 669 117 700 176 700 237 c 0
 700 310 671 354 629 395 c 1
 629 395 634 435 700 435 c 0
 781 435 831 377 831 377 c 1
 831 377 881 435 963 435 c 0
 1029 435 1033 395 1033 395 c 1
 971 346 952 278 952 199 c 0
 952 100 974 28 1043 -30 c 1
 1043 -30 1040 -74 964 -74 c 0
 859 -74 794 21 794 21 c 1
 738 -46 633 -74 557 -74 c 0
 423 -74 346 41 346 40 c 2
 346 40 275 -74 158 -74 c 0
 57 -74 53 -14 53 -14 c 1
 173 62 173 132 173 375 c 0
 173 726 64 722 64 756 c 0
 64 801 173 770 173 1148 c 0
 173 1332 142 1417 52 1503 c 1
 52 1503 56 1562 157 1562 c 0
 274 1562 344 1447 344 1447 c 1
 344 1444 421 1562 556 1562 c 0
 631 1562 737 1533 793 1466 c 1
 793 1466 858 1562 963 1562 c 0
 1038 1562 1042 1516 1042 1516 c 1
 973 1464 951 1402 951 1312 c 0
 951 1237 970 1174 1032 1127 c 1
 1032 1127 1027 1088 962 1088 c 0
 880 1088 830 1145 830 1145 c 1
 830 1145 780 1088 699 1088 c 0
 633 1088 628 1127 628 1127 c 1
 670 1165 699 1209 699 1277 c 0
 699 1329 674 1372 591 1372 c 0
 551 1372 483 1368 483 1294 c 1
 526 847 l 1
 671 847 746 861 811 905 c 1
 811 905 838 902 838 855 c 0
 838 791 798 752 798 752 c 1
 798 752 838 718 838 661 c 0
 838 613 811 610 811 610 c 1
 746 653 671 669 526 669 c 1
EndSplineSet
EndChar

StartChar: F
Encoding: 70 70 39
Width: 952
Flags: W
LayerCount: 2
Fore
SplineSet
481 375 m 1
 481 125 482 55 602 -23 c 1
 602 -23 571 -74 497 -74 c 0
 398 -74 332 40 332 40 c 1
 332 40 261 -74 155 -74 c 0
 81 -74 51 -23 51 -23 c 1
 171 55 171 125 171 375 c 0
 171 726 62 722 62 756 c 0
 62 801 171 770 171 1148 c 0
 171 1332 140 1417 50 1503 c 1
 50 1503 54 1562 155 1562 c 0
 278 1562 354 1457 354 1457 c 1
 354 1455 418 1562 532 1562 c 0
 598 1562 687 1533 737 1466 c 1
 737 1466 798 1562 895 1562 c 0
 971 1562 975 1518 975 1518 c 1
 905 1466 883 1402 883 1312 c 0
 883 1237 903 1174 965 1127 c 1
 965 1127 960 1088 894 1088 c 0
 820 1088 773 1145 773 1145 c 1
 773 1145 728 1088 653 1088 c 0
 587 1088 583 1127 583 1127 c 1
 625 1165 653 1201 653 1266 c 0
 653 1312 635 1371 568 1371 c 0
 537 1371 481 1362 481 1287 c 1
 514 833 l 1
 653 833 725 850 788 894 c 1
 788 894 815 891 815 844 c 0
 815 780 774 741 774 741 c 1
 774 741 815 703 815 639 c 0
 815 591 788 588 788 588 c 1
 725 631 653 651 514 651 c 1
 481 375 l 1
EndSplineSet
EndChar

StartChar: G
Encoding: 71 71 40
Width: 1162
Flags: W
LayerCount: 2
Fore
SplineSet
455 395 m 0
 455 205 456 96 567 96 c 0
 678 96 681 245 681 326 c 0
 681 460 665 512 590 573 c 1
 590 573 593 617 669 617 c 0
 761 617 820 553 820 553 c 1
 820 553 887 617 985 617 c 0
 1061 617 1064 573 1064 573 c 1
 996 516 983 464 983 345 c 0
 983 157 1018 85 1110 1 c 1
 1110 -45 1050 -75 979 -75 c 0
 937 -75 867 -40 827 36 c 1
 739 -70 618 -94 521 -94 c 0
 298 -94 142 40 142 262 c 2
 142 386 l 2
 142 727 34 723 34 756 c 0
 34 799 142 770 142 1126 c 2
 142 1230 l 2
 142 1491 336 1586 551 1586 c 0
 732 1586 983 1549 983 1300 c 2
 983 1167 l 2
 983 1043 1005 988 1074 928 c 1
 1074 928 1071 884 995 884 c 0
 897 884 830 948 830 948 c 1
 830 948 766 884 668 884 c 0
 592 884 589 928 589 928 c 1
 669 997 681 1055 681 1219 c 0
 681 1287 670 1372 577 1372 c 0
 466 1372 454 1288 454 1209 c 0
 454 1186 455 1163 455 1143 c 0
 455 779 564 807 564 765 c 0
 564 732 455 736 455 395 c 0
EndSplineSet
EndChar

StartChar: H
Encoding: 72 72 41
Width: 1285
Flags: W
LayerCount: 2
Fore
SplineSet
174 364 m 0
 174 715 65 722 65 756 c 0
 65 801 174 770 174 1148 c 0
 174 1332 143 1417 53 1503 c 1
 53 1503 57 1562 159 1562 c 0
 262 1562 324 1457 324 1457 c 1
 324 1457 385 1562 489 1562 c 0
 590 1562 594 1503 594 1503 c 1
 504 1417 473 1332 473 1148 c 0
 473 1004 491 922 511 872 c 1
 543 856 588 847 634 847 c 0
 680 847 727 856 763 872 c 1
 784 922 801 1004 801 1148 c 0
 801 1332 770 1417 680 1503 c 1
 680 1503 686 1562 786 1562 c 0
 889 1562 951 1457 951 1457 c 1
 951 1457 1012 1562 1116 1562 c 0
 1217 1562 1221 1503 1221 1503 c 1
 1130 1417 1100 1332 1100 1148 c 0
 1100 770 1209 801 1209 756 c 0
 1209 722 1100 715 1100 364 c 0
 1100 169 1131 76 1221 -14 c 1
 1221 -14 1217 -74 1116 -74 c 0
 1012 -74 951 41 951 41 c 1
 951 41 889 -74 786 -74 c 0
 686 -74 680 -14 680 -14 c 1
 770 76 801 169 801 364 c 0
 801 514 779 606 755 654 c 1
 725 670 680 679 635 679 c 0
 592 679 549 671 519 654 c 1
 495 606 473 514 473 364 c 0
 473 169 503 76 594 -14 c 1
 594 -14 589 -74 489 -74 c 0
 385 -74 324 41 324 41 c 1
 324 41 262 -74 159 -74 c 0
 59 -74 53 -14 53 -14 c 1
 143 76 174 169 174 364 c 0
EndSplineSet
EndChar

StartChar: I
Encoding: 73 73 42
Width: 658
Flags: W
LayerCount: 2
Fore
SplineSet
174 375 m 0
 174 726 65 722 65 756 c 0
 65 801 174 770 174 1148 c 0
 174 1338 143 1415 53 1503 c 1
 53 1503 57 1562 158 1562 c 0
 262 1562 323 1457 323 1457 c 1
 323 1457 385 1562 488 1562 c 0
 590 1562 594 1503 594 1503 c 1
 504 1415 473 1338 473 1148 c 0
 473 770 582 801 582 756 c 0
 582 722 473 726 473 375 c 0
 473 169 504 80 594 -14 c 1
 594 -14 590 -74 488 -74 c 0
 385 -74 323 41 323 41 c 1
 323 41 262 -74 158 -74 c 0
 58 -74 53 -14 53 -14 c 1
 143 80 174 169 174 375 c 0
EndSplineSet
EndChar

StartChar: J
Encoding: 74 74 43
Width: 813
Flags: W
LayerCount: 2
Fore
SplineSet
268 -147 m 0
 213 -147 154 -163 82 -207 c 1
 82 -207 42 -202 42 -136 c 0
 42 -69 99 -27 99 -27 c 1
 99 -27 42 17 42 91 c 0
 42 157 82 162 82 162 c 1
 120 115 161 93 237 93 c 0
 347 93 348 200 348 387 c 0
 348 736 240 726 240 759 c 0
 240 804 348 770 348 1148 c 0
 348 1321 317 1421 227 1503 c 1
 227 1503 233 1562 332 1562 c 0
 434 1562 495 1457 495 1457 c 1
 495 1457 554 1562 662 1562 c 0
 763 1562 768 1503 768 1503 c 1
 676 1421 647 1321 647 1148 c 0
 647 770 754 801 754 756 c 0
 754 723 647 727 647 386 c 0
 647 7 538 -147 268 -147 c 0
EndSplineSet
EndChar

StartChar: K
Encoding: 75 75 44
Width: 1374
Flags: W
LayerCount: 2
Fore
SplineSet
740 649 m 1
 727 660 l 1
 703 661 669 661 638 661 c 2
 570 661 l 2
 552 661 534 661 508 665 c 1
 497 406 l 1
 497 177 535 77 647 -33 c 1
 647 -33 624 -92 529 -92 c 0
 422 -92 348 45 348 45 c 1
 348 45 273 -92 167 -92 c 0
 71 -92 52 -46 49 -33 c 1
 150 76 187 176 187 406 c 0
 187 745 63 757 63 788 c 0
 63 833 187 812 187 1102 c 0
 187 1313 152 1401 48 1499 c 1
 48 1499 71 1561 167 1561 c 0
 273 1561 348 1442 348 1442 c 1
 348 1442 422 1561 529 1561 c 0
 628 1561 644 1514 647 1500 c 1
 535 1404 497 1316 497 1113 c 0
 497 953 501 912 506 849 c 1
 528 844 547 843 572 843 c 0
 645 843 739 856 739 856 c 1
 773 1063 773 1285 881 1491 c 1
 881 1491 905 1562 962 1562 c 0
 1024 1562 1054 1456 1054 1456 c 1
 1054 1456 1150 1562 1239 1562 c 0
 1355 1562 1370 1522 1371 1505 c 1
 1206 1430 1123 1297 1123 1146 c 0
 1123 733 898 798 898 747 c 0
 898 698 1123 752 1123 364 c 0
 1123 202 1206 50 1371 -35 c 1
 1369 -52 1354 -92 1239 -92 c 0
 1155 -92 1064 43 1064 43 c 1
 1064 43 1030 -92 962 -92 c 0
 895 -92 883 -26 883 -26 c 1
 853 31 740 462 740 635 c 2
 740 649 l 1
EndSplineSet
EndChar

StartChar: L
Encoding: 76 76 45
Width: 897
Flags: W
LayerCount: 2
Fore
SplineSet
624 195 m 0
 717 195 765 217 812 264 c 1
 812 264 852 260 852 194 c 0
 852 135 800 99 795 96 c 1
 797 94 852 57 852 -3 c 0
 852 -69 812 -74 812 -74 c 1
 743 -30 686 -14 633 -14 c 0
 566 -14 514 -73 457 -73 c 0
 413 -73 367 -37 314 40 c 1
 314 40 256 -74 158 -74 c 0
 57 -74 53 -14 53 -14 c 1
 173 62 173 132 173 375 c 0
 173 726 64 722 64 756 c 0
 64 801 173 770 173 1148 c 0
 173 1332 142 1417 52 1503 c 1
 52 1503 56 1562 157 1562 c 0
 276 1562 323 1457 323 1457 c 1
 323 1457 384 1562 487 1562 c 0
 588 1562 593 1503 593 1503 c 1
 503 1417 472 1332 472 1148 c 0
 472 770 581 801 581 756 c 0
 581 722 472 726 472 375 c 0
 472 213 484 200 484 200 c 1
 484 200 484 195 624 195 c 0
EndSplineSet
EndChar

StartChar: M
Encoding: 77 77 46
Width: 1450
Flags: W
LayerCount: 2
Fore
SplineSet
174 375 m 0
 174 726 65 722 65 756 c 0
 65 801 174 770 174 1148 c 0
 174 1338 143 1415 53 1503 c 1
 53 1503 57 1562 159 1562 c 0
 255 1562 313 1457 313 1457 c 1
 313 1457 374 1562 478 1562 c 0
 579 1562 583 1503 583 1503 c 1
 527 1445 494 1390 477 1310 c 1
 725 748 l 1
 966 1288 l 1
 951 1382 917 1440 856 1503 c 1
 856 1503 861 1562 962 1562 c 0
 1065 1562 1127 1457 1127 1457 c 1
 1127 1457 1184 1562 1281 1562 c 0
 1382 1562 1386 1503 1386 1503 c 1
 1295 1415 1265 1338 1265 1148 c 0
 1265 770 1374 801 1374 756 c 0
 1374 722 1265 726 1265 375 c 0
 1265 169 1295 80 1386 -14 c 1
 1386 -14 1382 -74 1281 -74 c 0
 1184 -74 1127 41 1127 41 c 1
 1127 41 1065 -74 962 -74 c 0
 861 -74 856 -14 856 -14 c 1
 946 80 977 169 977 375 c 0
 977 557 976 691 974 791 c 1
 774 299 l 1
 667 299 l 1
 466 820 l 1
 463 716 462 574 462 375 c 0
 462 169 493 80 583 -14 c 1
 583 -14 579 -74 478 -74 c 0
 374 -74 313 41 313 41 c 1
 313 41 255 -74 159 -74 c 0
 57 -74 53 -14 53 -14 c 1
 143 80 174 169 174 375 c 0
EndSplineSet
EndChar

StartChar: N
Encoding: 78 78 47
Width: 1315
Flags: W
LayerCount: 2
Fore
SplineSet
174 375 m 0
 174 726 65 722 65 756 c 0
 65 801 174 770 174 1148 c 0
 174 1338 143 1415 53 1503 c 1
 53 1503 57 1562 159 1562 c 0
 262 1562 324 1457 324 1457 c 1
 324 1457 385 1562 489 1562 c 0
 590 1562 594 1503 594 1503 c 1
 514 1438 482 1375 474 1251 c 1
 789 701 l 1
 804 739 831 822 831 1148 c 0
 831 1338 800 1415 710 1503 c 1
 710 1503 714 1562 815 1562 c 0
 919 1562 980 1457 980 1457 c 1
 980 1457 1042 1562 1145 1562 c 0
 1247 1562 1251 1503 1251 1503 c 1
 1160 1415 1130 1338 1130 1148 c 0
 1130 770 1239 801 1239 756 c 0
 1239 722 1130 726 1130 375 c 0
 1130 169 1160 80 1251 -14 c 1
 1251 -14 1247 -74 1145 -74 c 0
 1042 -74 980 41 980 41 c 1
 980 41 919 -74 815 -74 c 0
 715 -74 710 -14 710 -14 c 1
 788 56 820 127 829 260 c 1
 489 831 l 1
 483 785 473 689 473 375 c 0
 473 169 504 80 594 -14 c 1
 594 -14 590 -74 489 -74 c 0
 385 -74 324 41 324 41 c 1
 324 41 262 -74 159 -74 c 0
 57 -74 53 -14 53 -14 c 1
 143 80 174 169 174 375 c 0
EndSplineSet
EndChar

StartChar: O
Encoding: 79 79 48
Width: 1235
Flags: W
LayerCount: 2
Fore
SplineSet
492 421 m 0
 492 206 492 98 622 98 c 0
 753 98 754 218 754 432 c 0
 754 705 669 733 669 748 c 0
 669 777 754 772 754 1088 c 0
 754 1290 752 1372 622 1372 c 0
 493 1372 491 1290 491 1088 c 0
 491 772 575 777 575 748 c 0
 575 730 492 695 492 421 c 0
1087 421 m 0
 1087 37 920 -92 622 -92 c 0
 324 -92 157 37 157 421 c 0
 157 708 33 734 33 748 c 0
 33 773 157 779 157 1077 c 0
 157 1505 324 1586 623 1586 c 0
 920 1586 1087 1505 1087 1077 c 0
 1087 784 1197 772 1197 748 c 0
 1197 746 1194 744 1188 739 c 0
 1155 714 1087 659 1087 421 c 0
EndSplineSet
EndChar

StartChar: P
Encoding: 80 80 49
Width: 1089
Flags: W
LayerCount: 2
Fore
SplineSet
484 586 m 1
 484 386 l 2
 484 175 515 82 605 -14 c 1
 605 -14 600 -74 499 -74 c 0
 389 -74 323 41 323 41 c 1
 323 41 262 -74 158 -74 c 0
 58 -74 53 -14 53 -14 c 1
 143 80 174 180 174 386 c 0
 174 727 65 723 65 756 c 0
 65 800 174 770 174 1137 c 0
 174 1327 143 1415 53 1503 c 1
 53 1503 57 1562 158 1562 c 0
 275 1562 348 1466 348 1466 c 1
 348 1466 402 1586 638 1586 c 0
 814 1586 967 1485 1010 1299 c 1
 1038 1144 1086 1151 1086 1130 c 0
 1086 1115 1042 1111 1010 928 c 1
 958 655 685 586 484 586 c 1
599 1372 m 0
 546 1372 484 1346 484 1322 c 2
 484 748 l 1
 617 757 700 805 700 871 c 2
 700 1302 l 2
 700 1334 658 1372 599 1372 c 0
EndSplineSet
EndChar

StartChar: Q
Encoding: 81 81 50
Width: 1069
Flags: W
LayerCount: 2
Fore
SplineSet
927 386 m 0
 927 123 833 -7 665 -53 c 1
 692 -57 723 -59 758 -59 c 0
 856 -59 909 -34 958 21 c 1
 958 21 997 16 997 -50 c 0
 997 -108 945 -144 940 -147 c 1
 942 -149 997 -186 997 -246 c 0
 997 -312 958 -317 958 -317 c 1
 888 -273 831 -257 778 -257 c 0
 585 -257 453 -195 367 -52 c 1
 215 -4 132 127 132 386 c 0
 132 727 35 723 35 756 c 0
 35 799 132 770 132 1126 c 0
 132 1507 275 1586 531 1586 c 0
 784 1586 927 1507 927 1126 c 0
 927 770 1014 799 1014 756 c 0
 1014 723 927 727 927 386 c 0
420 386 m 0
 420 207 420 117 530 117 c 0
 640 117 641 218 641 395 c 0
 641 726 565 724 565 756 c 0
 565 800 641 768 641 1135 c 0
 641 1303 638 1372 530 1372 c 0
 421 1372 419 1303 419 1135 c 0
 419 768 494 800 494 756 c 0
 494 724 420 717 420 386 c 0
EndSplineSet
EndChar

StartChar: R
Encoding: 82 82 51
Width: 1225
Flags: W
LayerCount: 2
Fore
SplineSet
323 31 m 1
 323 31 262 -74 158 -74 c 0
 57 -74 53 -14 53 -14 c 1
 143 71 174 191 174 375 c 0
 174 726 65 722 65 756 c 0
 65 802 174 773 174 1163 c 0
 174 1341 143 1419 53 1503 c 1
 53 1503 57 1562 158 1562 c 0
 282 1562 356 1462 356 1462 c 1
 356 1462 391 1586 613 1586 c 0
 838 1586 1009 1537 1037 1307 c 1
 1047 1186 1113 1167 1113 1146 c 0
 1113 1131 1052 1102 1037 953 c 0
 1031 887 975 798 881 789 c 1
 1180 690 968 172 1218 13 c 1
 1156 -50 1086 -74 993 -74 c 0
 612 -74 831 695 618 695 c 2
 484 695 l 1
 484 375 l 2
 484 169 513 80 595 -14 c 1
 595 -14 591 -74 490 -74 c 0
 386 -74 323 31 323 31 c 1
614 1372 m 0
 558 1372 484 1346 484 1322 c 2
 484 851 l 1
 639 851 714 883 714 963 c 2
 714 1302 l 2
 714 1334 673 1372 614 1372 c 0
EndSplineSet
EndChar

StartChar: S
Encoding: 83 83 52
Width: 1155
Flags: W
LayerCount: 2
Fore
SplineSet
385 569 m 0
 359 583 368 657 285 723 c 1
 173 822 103 967 103 1155 c 0
 103 1434 295 1585 584 1585 c 0
 758 1585 1020 1540 1020 1251 c 2
 1020 1197 l 2
 1020 1126 1027 1072 1104 1025 c 1
 1104 1025 1085 997 1038 997 c 0
 921 997 849 1098 845 1107 c 1
 843 1102 781 1027 709 1027 c 0
 642 1027 631 1063 628 1075 c 1
 698 1110 734 1156 734 1259 c 0
 734 1324 704 1385 616 1385 c 0
 479 1385 459 1269 459 1188 c 0
 459 1044 512 976 606 932 c 1
 661 909 761 959 776 952 c 0
 795 942 800 845 867 807 c 1
 1007 712 1114 566 1114 362 c 0
 1114 81 908 -92 593 -92 c 0
 404 -92 119 -43 119 248 c 0
 119 261 120 274 120 323 c 0
 120 391 105 452 35 497 c 1
 35 497 54 527 101 527 c 0
 222 527 282 410 282 406 c 1
 282 406 360 497 440 497 c 0
 511 497 523 457 524 448 c 1
 460 409 427 359 427 250 c 0
 427 185 470 118 586 118 c 0
 719 118 757 239 757 305 c 0
 757 457 677 518 580 568 c 1
 482 610 405 558 385 569 c 0
EndSplineSet
EndChar

StartChar: T
Encoding: 84 84 53
Width: 1006
Flags: W
LayerCount: 2
Fore
SplineSet
503 1480 m 1
 542 1548 579 1562 613 1562 c 0
 667 1562 714 1514 775 1514 c 0
 821 1514 871 1526 932 1562 c 1
 932 1562 971 1558 971 1492 c 0
 971 1431 916 1394 914 1393 c 1
 920 1389 971 1353 971 1295 c 0
 971 1229 932 1224 932 1224 c 1
 890 1272 845 1294 764 1294 c 0
 661 1294 661 1290 661 1290 c 1
 661 1290 649 1278 649 1136 c 0
 649 785 758 791 758 757 c 0
 758 712 649 743 649 364 c 0
 649 169 679 76 770 -14 c 1
 770 -14 766 -74 664 -74 c 0
 561 -74 503 41 503 41 c 1
 503 41 456 -74 337 -74 c 0
 236 -74 231 -14 231 -14 c 1
 321 76 352 169 352 364 c 0
 352 743 243 712 243 757 c 0
 243 791 352 785 352 1136 c 0
 352 1278 340 1290 340 1290 c 1
 340 1290 340 1294 216 1294 c 0
 145 1294 108 1272 72 1224 c 1
 72 1224 32 1229 32 1295 c 0
 32 1354 86 1390 88 1393 c 1
 85 1395 32 1431 32 1492 c 0
 32 1558 72 1562 72 1562 c 1
 132 1525 183 1514 229 1514 c 0
 289 1514 337 1562 391 1562 c 0
 425 1562 463 1548 503 1480 c 1
EndSplineSet
EndChar

StartChar: U
Encoding: 85 85 54
Width: 1293
Flags: W
LayerCount: 2
Fore
SplineSet
655 -92 m 0
 342 -92 159 35 159 407 c 0
 159 728 72 725 72 756 c 0
 72 801 159 770 159 1148 c 0
 159 1332 128 1417 38 1503 c 1
 38 1503 42 1562 143 1562 c 0
 260 1562 330 1457 330 1457 c 1
 330 1457 401 1562 517 1562 c 0
 619 1562 623 1503 623 1503 c 1
 532 1417 502 1332 502 1148 c 0
 502 770 578 810 578 765 c 0
 578 738 502 741 502 460 c 0
 502 243 503 117 668 117 c 0
 820 117 819 240 819 451 c 0
 819 741 743 738 743 765 c 0
 743 810 819 770 819 1148 c 0
 819 1332 791 1417 709 1503 c 1
 709 1503 713 1562 815 1562 c 0
 918 1562 980 1457 980 1457 c 1
 980 1457 1041 1562 1144 1562 c 0
 1246 1562 1250 1503 1250 1503 c 1
 1159 1417 1129 1332 1129 1148 c 0
 1129 770 1216 801 1216 756 c 0
 1216 725 1129 728 1129 407 c 0
 1129 35 955 -92 655 -92 c 0
EndSplineSet
EndChar

StartChar: V
Encoding: 86 86 55
Width: 1353
Flags: W
LayerCount: 2
Fore
SplineSet
676 188 m 1
 698 383 807 616 744 767 c 1
 796 858 831 1000 831 1166 c 0
 831 1321 819 1408 796 1503 c 1
 796 1503 807 1562 908 1562 c 0
 1006 1562 1052 1457 1052 1457 c 1
 1052 1457 1119 1562 1216 1562 c 0
 1336 1562 1335 1503 1335 1503 c 1
 1177 1369 1142 1169 1142 978 c 0
 1142 763 1184 761 1184 733 c 1
 1181 687 1059 718 1011 340 c 1
 1009 212 1009 94 1026 -14 c 1
 1026 -14 1014 -74 914 -74 c 0
 838 -74 801 31 801 31 c 1
 769 -38 724 -74 676 -74 c 0
 628 -74 578 -42 551 31 c 1
 551 31 515 -74 438 -74 c 0
 338 -74 326 -14 326 -14 c 1
 342 84 344 198 341 340 c 1
 293 724 169 686 169 735 c 0
 169 762 209 768 209 978 c 0
 209 1166 182 1357 18 1503 c 1
 18 1503 17 1562 137 1562 c 0
 234 1562 301 1457 301 1457 c 1
 301 1457 347 1562 445 1562 c 0
 546 1562 557 1503 557 1503 c 1
 534 1408 522 1321 522 1165 c 0
 522 999 557 857 609 766 c 1
 546 615 654 383 676 188 c 1
EndSplineSet
EndChar

StartChar: W
Encoding: 87 87 56
Width: 1558
Flags: W
LayerCount: 2
Fore
SplineSet
787 809 m 1
 584 232 l 1
 611 121 653 55 726 -14 c 1
 726 -17 726 -74 627 -74 c 0
 525 -74 456 41 456 41 c 1
 456 41 411 -74 319 -74 c 0
 219 -74 207 -14 207 -14 c 1
 266 57 293 125 293 243 c 0
 293 280 291 324 285 375 c 0
 248 737 137 721 137 759 c 0
 137 793 188 784 188 1000 c 0
 188 1286 132 1401 18 1503 c 1
 18 1503 17 1562 117 1562 c 0
 220 1562 291 1457 291 1457 c 1
 291 1457 341 1562 447 1562 c 0
 548 1562 559 1503 559 1503 c 1
 497 1436 471 1375 471 1266 c 0
 471 1232 473 1193 479 1148 c 1
 489 876 504 754 518 698 c 1
 707 1257 l 1
 857 1257 l 1
 1047 711 l 1
 1060 770 1071 893 1079 1148 c 1
 1084 1193 1087 1232 1087 1266 c 0
 1087 1375 1060 1436 999 1503 c 1
 999 1503 1010 1562 1111 1562 c 0
 1217 1562 1267 1457 1267 1457 c 1
 1267 1457 1338 1562 1441 1562 c 0
 1541 1562 1540 1503 1540 1503 c 1
 1426 1401 1370 1286 1370 1000 c 0
 1370 784 1422 793 1422 759 c 0
 1422 721 1309 737 1273 375 c 1
 1269 324 1264 280 1264 243 c 0
 1264 125 1292 57 1351 -14 c 1
 1351 -14 1339 -74 1239 -74 c 0
 1147 -74 1103 41 1103 41 c 1
 1103 41 1033 -74 931 -74 c 0
 832 -74 832 -17 832 -14 c 1
 911 61 953 131 978 260 c 1
 787 809 l 1
EndSplineSet
EndChar

StartChar: X
Encoding: 88 88 57
Width: 1291
Flags: W
LayerCount: 2
Fore
SplineSet
635 519 m 1
 565 311 l 1
 525 200 511 130 511 71 c 0
 511 41 514 13 519 -14 c 1
 519 -14 487 -74 403 -74 c 0
 322 -74 319 31 319 31 c 1
 319 31 229 -74 150 -74 c 0
 66 -74 51 -50 51 -33 c 0
 51 -22 56 -14 56 -14 c 1
 155 80 204 171 290 375 c 2
 402 641 l 1
 363 708 324 738 324 756 c 0
 324 785 357 792 402 868 c 1
 284 1148 l 1
 203 1336 153 1415 55 1503 c 1
 55 1503 50 1510 50 1520 c 0
 50 1538 65 1562 148 1562 c 0
 232 1562 327 1457 327 1457 c 1
 327 1457 331 1562 423 1562 c 0
 492 1562 517 1503 517 1503 c 1
 512 1475 507 1448 507 1417 c 0
 507 1367 520 1307 558 1212 c 1
 635 991 l 1
 723 1212 l 1
 762 1300 774 1359 774 1409 c 0
 774 1443 769 1473 763 1503 c 1
 763 1503 789 1562 858 1562 c 0
 947 1562 953 1457 953 1457 c 1
 953 1457 1048 1562 1132 1562 c 0
 1215 1562 1230 1538 1230 1520 c 0
 1230 1510 1225 1503 1225 1503 c 1
 1126 1415 1084 1332 995 1148 c 2
 856 862 l 1
 900 791 932 784 932 756 c 0
 932 738 895 711 856 648 c 1
 988 375 l 2
 1084 177 1124 80 1224 -14 c 1
 1224 -14 1230 -22 1230 -33 c 0
 1230 -50 1214 -74 1131 -74 c 0
 1052 -74 961 31 961 31 c 1
 961 31 957 -74 867 -74 c 0
 791 -74 761 -14 761 -14 c 1
 767 16 771 47 771 82 c 0
 771 140 758 209 715 311 c 1
 635 519 l 1
EndSplineSet
EndChar

StartChar: Y
Encoding: 89 89 58
Width: 1281
Flags: W
LayerCount: 2
Fore
SplineSet
466 431 m 0
 466 610 350 683 295 723 c 0
 283 732 273 743 272 744 c 1
 274 746 l 1
 273 748 273 749 273 750 c 0
 273 770 334 798 334 911 c 0
 334 948 325 1008 294 1102 c 1
 201 1317 139 1405 12 1506 c 1
 12 1506 9 1515 9 1519 c 0
 9 1537 25 1561 122 1561 c 0
 205 1561 324 1434 324 1434 c 1
 324 1434 336 1561 434 1561 c 0
 517 1561 555 1513 564 1497 c 1
 545 1459 534 1420 534 1375 c 0
 534 1261 625 832 644 832 c 0
 672 832 759 1270 759 1375 c 0
 759 1419 750 1459 731 1497 c 1
 731 1497 780 1561 861 1561 c 0
 968 1561 982 1434 982 1434 c 1
 982 1434 1086 1561 1161 1561 c 0
 1258 1561 1272 1537 1272 1519 c 0
 1272 1514 1271 1507 1271 1504 c 1
 1143 1404 1082 1316 989 1102 c 1
 959 1008 948 947 948 909 c 0
 948 802 1008 752 1009 752 c 1
 1009 746 1010 741 1011 739 c 1
 988 723 l 1
 931 687 816 609 816 431 c 0
 816 194 849 101 940 -15 c 1
 940 -15 917 -75 821 -75 c 0
 715 -75 641 43 641 43 c 1
 641 43 566 -75 461 -75 c 0
 363 -75 346 -29 343 -15 c 1
 433 101 466 194 466 431 c 0
EndSplineSet
EndChar

StartChar: Z
Encoding: 90 90 59
Width: 1187
Flags: W
LayerCount: 2
Fore
SplineSet
386 827 m 1
 390 832 l 1
 394 844 452 838 569 1039 c 1
 569 1038 l 1
 605 1108 674 1255 674 1255 c 1
 674 1255 484 1246 358 1246 c 0
 262 1246 209 1220 158 1162 c 1
 158 1162 127 1180 127 1236 c 0
 127 1305 196 1357 204 1363 c 1
 198 1366 127 1416 127 1485 c 0
 127 1542 150 1557 160 1560 c 1
 231 1506 290 1488 348 1488 c 0
 386 1488 416 1509 448 1529 c 1
 447 1529 l 1
 472 1546 498 1561 524 1561 c 0
 559 1561 604 1529 655 1461 c 1
 655 1461 718 1561 810 1561 c 0
 905 1561 912 1478 912 1438 c 1
 912 1438 1006 1561 1076 1561 c 0
 1106 1561 1131 1528 1131 1472 c 0
 1131 1461 1130 1449 1125 1436 c 1
 1025 1350 982 1253 883 994 c 0
 831 860 813 795 813 750 c 0
 813 701 835 676 835 665 c 0
 835 664 832 663 825 661 c 1
 825 662 l 1
 790 648 713 618 578 246 c 1
 712 246 745 240 868 240 c 0
 970 240 1022 266 1074 327 c 1
 1074 327 1107 307 1107 251 c 0
 1107 183 1035 133 1027 129 c 1
 1044 116 1107 67 1107 2 c 0
 1107 -61 1080 -72 1073 -74 c 1
 1000 -20 936 0 879 0 c 0
 795 0 734 -75 667 -75 c 0
 630 -75 590 -45 542 18 c 1
 527 18 525 15 523 11 c 0
 508 -11 469 -75 412 -75 c 0
 312 -75 304 -17 304 -1 c 2
 304 46 l 1
 304 46 196 -76 118 -76 c 0
 89 -76 49 -50 49 -1 c 0
 49 7 50 14 54 24 c 1
 174 116 226 223 346 477 c 1
 387 615 410 695 410 747 c 0
 410 794 387 818 387 828 c 1
 386 827 l 1
EndSplineSet
EndChar

StartChar: bracketleft
Encoding: 91 91 60
Width: 654
Flags: W
LayerCount: 2
Fore
SplineSet
603 -387 m 1
 100 -387 l 1
 100 1375 l 1
 603 1375 l 1
 603 1235 l 1
 324 1235 l 1
 324 -247 l 1
 603 -247 l 1
 603 -387 l 1
EndSplineSet
EndChar

StartChar: backslash
Encoding: 92 92 61
Width: 831
Flags: W
LayerCount: 2
Fore
SplineSet
206 1395 m 1
 795 -35 l 1
 630 -35 l 1
 41 1395 l 1
 206 1395 l 1
EndSplineSet
EndChar

StartChar: bracketright
Encoding: 93 93 62
Width: 656
Flags: W
LayerCount: 2
Fore
SplineSet
554 -387 m 1
 51 -387 l 1
 51 -247 l 1
 330 -247 l 1
 330 1235 l 1
 51 1235 l 1
 51 1375 l 1
 554 1375 l 1
 554 -387 l 1
EndSplineSet
EndChar

StartChar: asciicircum
Encoding: 94 94 63
Width: 1038
Flags: W
LayerCount: 2
Fore
SplineSet
228 583 m 1
 49 583 l 1
 447 1315 l 1
 594 1315 l 1
 990 583 l 1
 811 583 l 1
 520 1126 l 1
 228 583 l 1
EndSplineSet
EndChar

StartChar: underscore
Encoding: 95 95 64
Width: 1259
Flags: W
LayerCount: 2
Fore
SplineSet
110 -154 m 1
 1146 -154 l 1
 1146 -256 l 1
 110 -256 l 1
 110 -154 l 1
EndSplineSet
EndChar

StartChar: quoteleft
Encoding: 8216 8216 65
Width: 440
Flags: W
LayerCount: 2
Fore
SplineSet
359 1395 m 1
 359 1300 l 1
 255 1273 196 1219 196 1098 c 1
 198 1098 l 1
 225 1111 268 1115 307 1115 c 1
 338 1074 368 1008 368 928 c 1
 348 885 295 853 231 853 c 0
 180 853 136 867 97 888 c 1
 80 951 69 1018 69 1089 c 0
 69 1272 183 1379 359 1395 c 1
EndSplineSet
EndChar

StartChar: a
Encoding: 97 97 66
Width: 1112
Flags: W
LayerCount: 2
Fore
SplineSet
633 417 m 0
 633 599 548 619 520 619 c 0
 428 619 394 535 394 336 c 0
 394 266 389 89 509 89 c 0
 632 89 633 209 633 417 c 0
538 1442 m 0
 796 1442 937 1293 937 966 c 0
 937 737 1035 701 1061 682 c 1
 1061 661 947 637 947 365 c 0
 947 157 991 73 1049 5 c 1
 1034 -47 982 -67 922 -67 c 0
 805 -67 726 61 722 68 c 1
 646 -55 569 -84 472 -84 c 0
 330 -84 155 -48 111 199 c 1
 98 278 37 336 37 350 c 0
 37 365 98 416 107 478 c 1
 140 678 270 757 477 757 c 0
 594 757 633 834 633 955 c 0
 633 1142 629 1246 512 1246 c 0
 388 1246 384 1139 384 1085 c 0
 384 991 413 949 488 907 c 1
 488 907 466 873 411 873 c 0
 328 873 267 956 267 956 c 1
 267 956 206 873 124 873 c 0
 65 873 50 897 47 907 c 1
 124 949 139 986 139 1073 c 0
 139 1397 362 1442 538 1442 c 0
EndSplineSet
EndChar

StartChar: b
Encoding: 98 98 67
Width: 1032
Flags: W
LayerCount: 2
Fore
SplineSet
775 692 m 1
 871 682 917 556 917 517 c 0
 917 453 996 382 996 371 c 0
 996 349 917 296 917 175 c 0
 917 13 765 -66 590 -66 c 0
 498 -66 384 -57 323 20 c 1
 323 20 255 -66 153 -66 c 0
 86 -66 58 -20 58 -20 c 1
 137 54 167 168 167 351 c 0
 167 661 68 657 68 687 c 0
 68 728 167 702 167 1046 c 0
 167 1213 139 1288 57 1366 c 1
 57 1366 61 1420 153 1420 c 0
 259 1420 323 1354 323 1354 c 1
 384 1430 498 1442 590 1442 c 0
 765 1442 917 1375 917 1203 c 0
 917 1099 996 1047 996 1027 c 0
 996 1015 917 989 917 871 c 0
 917 813 871 702 775 692 c 1
458 775 m 1
 529 775 l 2
 581 775 657 783 657 899 c 0
 657 1018 658 1016 658 1025 c 0
 658 1043 657 1031 657 1152 c 0
 657 1180 657 1262 566 1262 c 0
 441 1262 439 1183 439 1124 c 0
 439 797 458 775 458 775 c 1
458 620 m 1
 458 620 439 599 439 281 c 0
 439 218 441 133 566 133 c 0
 657 133 657 215 657 243 c 0
 657 373 658 361 658 380 c 0
 658 388 657 385 657 496 c 0
 657 604 561 621 474 621 c 0
 464 621 458 620 458 620 c 1
EndSplineSet
EndChar

StartChar: c
Encoding: 99 99 68
Width: 1034
Flags: W
LayerCount: 2
Fore
SplineSet
417 359 m 0
 417 198 418 106 539 106 c 0
 639 106 643 235 643 300 c 0
 643 419 626 466 560 521 c 1
 560 521 563 561 632 561 c 0
 715 561 765 503 765 503 c 1
 765 503 826 561 915 561 c 0
 984 561 987 521 987 521 c 1
 925 469 913 422 913 314 c 2
 913 193 l 2
 913 -51 682 -85 517 -85 c 0
 290 -85 137 43 137 257 c 2
 137 351 l 2
 137 661 38 657 38 687 c 0
 38 726 137 700 137 1024 c 2
 137 1118 l 2
 137 1355 319 1442 524 1442 c 0
 689 1442 913 1408 913 1182 c 2
 913 1061 l 2
 913 948 933 898 996 844 c 1
 996 844 993 804 924 804 c 0
 835 804 774 862 774 862 c 1
 774 862 720 804 631 804 c 0
 562 804 559 844 559 844 c 1
 632 907 643 959 643 1110 c 0
 643 1175 631 1262 528 1262 c 0
 427 1262 416 1176 416 1100 c 0
 416 1077 417 1056 417 1037 c 0
 417 708 516 734 516 695 c 0
 516 665 417 669 417 359 c 0
EndSplineSet
EndChar

StartChar: d
Encoding: 100 100 69
Width: 1102
Flags: W
LayerCount: 2
Fore
SplineSet
440 311 m 0
 440 191 440 106 576 106 c 0
 677 106 678 182 678 319 c 0
 678 656 609 654 609 687 c 0
 609 736 678 698 678 1122 c 0
 678 1159 678 1262 587 1262 c 0
 442 1262 440 1183 440 1124 c 0
 440 699 509 735 509 687 c 0
 509 653 440 657 440 311 c 0
168 351 m 0
 168 661 69 657 69 687 c 0
 69 729 168 703 168 1057 c 0
 168 1219 140 1291 58 1367 c 1
 58 1367 62 1420 154 1420 c 0
 260 1420 324 1365 324 1365 c 1
 389 1432 513 1442 611 1442 c 0
 806 1442 978 1355 978 1118 c 2
 978 1024 l 2
 978 700 1057 726 1057 687 c 0
 1057 657 978 661 978 351 c 2
 978 257 l 2
 978 55 833 -67 618 -67 c 0
 513 -67 390 -52 324 10 c 1
 324 10 260 -67 154 -67 c 0
 62 -67 58 -13 58 -13 c 1
 140 67 168 179 168 351 c 0
EndSplineSet
EndChar

StartChar: e
Encoding: 101 101 70
Width: 1062
Flags: W
LayerCount: 2
Fore
SplineSet
935 936 m 0
 935 743 964 681 983 656 c 1
 607 656 l 2
 561 656 501 654 449 649 c 1
 446 597 444 513 444 405 c 0
 444 219 445 113 572 113 c 0
 686 113 690 219 690 273 c 0
 690 367 661 409 586 451 c 1
 586 451 608 485 663 485 c 0
 746 485 807 402 807 402 c 1
 807 402 868 485 950 485 c 0
 1009 485 1024 461 1027 451 c 1
 950 409 935 372 935 285 c 0
 935 -39 724 -84 556 -84 c 0
 288 -84 139 66 139 395 c 0
 139 596 61 647 25 671 c 0
 19 675 15 677 15 679 c 0
 15 696 139 722 139 966 c 0
 139 1293 288 1442 556 1442 c 0
 724 1442 935 1385 935 936 c 0
444 955 m 0
 444 898 442 856 438 823 c 1
 484 813 527 813 574 813 c 0
 624 813 657 820 680 831 c 1
 690 861 690 894 690 936 c 0
 690 1025 696 1246 572 1246 c 0
 445 1246 444 1142 444 955 c 0
EndSplineSet
EndChar

StartChar: f
Encoding: 102 102 71
Width: 873
Flags: W
LayerCount: 2
Fore
SplineSet
447 341 m 1
 447 114 448 50 557 -21 c 1
 557 -21 529 -67 462 -67 c 0
 372 -67 312 9 312 9 c 1
 312 9 247 -67 151 -67 c 0
 84 -67 56 -21 56 -21 c 1
 165 50 165 114 165 341 c 0
 165 660 66 656 66 687 c 0
 66 728 165 700 165 1044 c 0
 165 1211 137 1288 55 1366 c 1
 55 1366 59 1420 151 1420 c 0
 263 1420 332 1343 332 1343 c 1
 332 1341 390 1420 494 1420 c 0
 554 1420 635 1402 680 1360 c 1
 680 1360 735 1420 824 1420 c 0
 893 1420 896 1380 896 1380 c 1
 833 1333 813 1275 813 1193 c 0
 813 1125 831 1067 887 1025 c 1
 887 1025 883 989 823 989 c 0
 755 989 713 1041 713 1041 c 1
 713 1041 672 989 604 989 c 0
 544 989 540 1025 540 1025 c 1
 578 1059 604 1092 604 1151 c 0
 604 1193 587 1246 526 1246 c 0
 498 1246 447 1238 447 1170 c 1
 477 757 l 1
 604 757 669 773 726 813 c 1
 726 813 751 810 751 767 c 0
 751 709 714 674 714 674 c 1
 714 674 751 639 751 581 c 0
 751 537 726 535 726 535 c 1
 669 574 604 592 477 592 c 1
 447 341 l 1
EndSplineSet
EndChar

StartChar: g
Encoding: 103 103 72
Width: 1191
Flags: W
LayerCount: 2
Fore
SplineSet
645 680 m 0
 645 706 732 703 732 989 c 0
 732 1144 719 1247 567 1247 c 0
 407 1247 406 1166 406 989 c 0
 406 703 494 707 494 680 c 0
 494 660 406 656 406 433 c 0
 406 284 407 219 577 219 c 0
 720 219 732 304 732 433 c 0
 732 656 645 660 645 680 c 0
731 75 m 1
 654 54 589 39 524 39 c 0
 318 39 125 136 125 419 c 0
 125 653 38 659 38 680 c 0
 38 709 125 707 125 1004 c 0
 125 1322 328 1441 544 1441 c 0
 652 1441 776 1383 854 1306 c 1
 854 1306 919 1419 1015 1419 c 0
 1126 1419 1145 1380 1148 1367 c 1
 1046 1272 1011 1182 1011 979 c 0
 1011 713 1110 702 1110 680 c 0
 1110 660 1011 635 1011 381 c 2
 1011 9 l 2
 1011 -294 857 -358 789 -358 c 0
 719 -358 657 -354 578 -354 c 0
 497 -354 412 -372 308 -423 c 1
 308 -423 277 -406 277 -351 c 0
 277 -286 349 -238 349 -238 c 1
 349 -238 277 -193 277 -126 c 0
 277 -69 300 -58 307 -56 c 1
 380 -109 451 -135 588 -135 c 0
 732 -135 731 -57 731 75 c 1
EndSplineSet
EndChar

StartChar: h
Encoding: 104 104 73
Width: 1187
Flags: W
LayerCount: 2
Fore
SplineSet
168 331 m 0
 168 650 69 656 69 687 c 0
 69 728 168 700 168 1044 c 0
 168 1211 140 1288 58 1366 c 1
 58 1366 62 1420 154 1420 c 0
 248 1420 304 1343 304 1343 c 1
 304 1343 360 1420 454 1420 c 0
 546 1420 550 1366 550 1366 c 1
 468 1288 440 1211 440 1044 c 0
 440 913 456 838 474 793 c 1
 503 778 544 770 586 770 c 0
 628 770 671 778 703 793 c 1
 722 838 738 913 738 1044 c 0
 738 1211 710 1288 628 1366 c 1
 628 1366 633 1420 724 1420 c 0
 818 1420 874 1343 874 1343 c 1
 874 1343 930 1420 1024 1420 c 0
 1116 1420 1120 1366 1120 1366 c 1
 1037 1288 1010 1211 1010 1044 c 0
 1010 700 1109 728 1109 687 c 0
 1109 656 1010 650 1010 331 c 0
 1010 154 1038 69 1120 -13 c 1
 1120 -13 1116 -67 1024 -67 c 0
 930 -67 874 10 874 10 c 1
 874 10 818 -67 724 -67 c 0
 633 -67 628 -13 628 -13 c 1
 710 69 738 154 738 331 c 0
 738 467 718 551 696 595 c 1
 669 609 628 617 587 617 c 0
 548 617 509 610 482 595 c 1
 460 551 440 467 440 331 c 0
 440 154 467 69 550 -13 c 1
 550 -13 545 -67 454 -67 c 0
 360 -67 304 10 304 10 c 1
 304 10 248 -67 154 -67 c 0
 63 -67 58 -13 58 -13 c 1
 140 69 168 154 168 331 c 0
EndSplineSet
EndChar

StartChar: i
Encoding: 105 105 74
Width: 617
Flags: W
LayerCount: 2
Fore
SplineSet
168 341 m 0
 168 660 69 656 69 687 c 0
 69 728 168 700 168 1044 c 0
 168 1216 140 1286 58 1366 c 1
 58 1366 62 1420 154 1420 c 0
 248 1420 304 1343 304 1343 c 1
 304 1343 360 1420 454 1420 c 0
 546 1420 550 1366 550 1366 c 1
 468 1286 440 1216 440 1044 c 0
 440 700 539 728 539 687 c 0
 539 656 440 660 440 341 c 0
 440 154 468 73 550 -13 c 1
 550 -13 546 -67 454 -67 c 0
 360 -67 304 10 304 10 c 1
 304 10 248 -67 154 -67 c 0
 63 -67 58 -13 58 -13 c 1
 140 73 168 154 168 341 c 0
EndSplineSet
EndChar

StartChar: j
Encoding: 106 106 75
Width: 820
Flags: W
LayerCount: 2
Fore
SplineSet
275 -289 m 0
 220 -289 161 -305 89 -349 c 1
 89 -349 49 -344 49 -278 c 0
 49 -211 106 -169 106 -169 c 1
 106 -169 49 -125 49 -51 c 0
 49 15 89 20 89 20 c 1
 127 -27 168 -49 244 -49 c 0
 354 -49 355 58 355 245 c 0
 355 594 247 584 247 617 c 0
 247 662 355 628 355 1006 c 0
 355 1179 324 1279 234 1361 c 1
 234 1361 240 1420 339 1420 c 0
 441 1420 502 1335 502 1335 c 1
 502 1335 561 1420 669 1420 c 0
 770 1420 775 1361 775 1361 c 1
 683 1279 654 1179 654 1006 c 0
 654 628 761 659 761 614 c 0
 761 581 654 585 654 244 c 0
 654 -135 545 -289 275 -289 c 0
EndSplineSet
EndChar

StartChar: k
Encoding: 107 107 76
Width: 1263
Flags: W
LayerCount: 2
Fore
SplineSet
682 590 m 1
 670 600 l 1
 648 601 618 601 589 601 c 2
 528 601 l 2
 511 601 495 601 471 605 c 1
 461 369 l 1
 461 161 496 70 598 -30 c 1
 598 -30 577 -84 490 -84 c 0
 393 -84 326 23 326 23 c 1
 326 23 258 -84 161 -84 c 0
 74 -84 57 -42 54 -30 c 1
 146 69 179 160 179 369 c 0
 179 677 67 688 67 716 c 0
 67 757 179 738 179 1002 c 0
 179 1194 148 1274 53 1363 c 1
 53 1363 74 1419 161 1419 c 0
 258 1419 326 1311 326 1311 c 1
 326 1311 393 1419 490 1419 c 0
 580 1419 595 1376 598 1364 c 1
 496 1276 461 1196 461 1012 c 0
 461 866 465 829 469 772 c 1
 489 767 507 766 529 766 c 0
 596 766 681 778 681 778 c 1
 712 966 712 1168 810 1355 c 1
 810 1355 832 1420 884 1420 c 0
 952 1420 986 1324 986 1324 c 1
 986 1324 1064 1420 1136 1420 c 0
 1241 1420 1255 1384 1256 1368 c 1
 1106 1300 1030 1179 1030 1042 c 0
 1030 666 826 725 826 679 c 0
 826 635 1030 684 1030 331 c 0
 1030 184 1106 45 1256 -32 c 1
 1254 -47 1240 -84 1136 -84 c 0
 1064 -84 986 12 986 12 c 1
 986 12 952 -84 884 -84 c 0
 823 -84 812 -24 812 -24 c 1
 785 28 682 420 682 577 c 2
 682 590 l 1
EndSplineSet
EndChar

StartChar: l
Encoding: 108 108 77
Width: 814
Flags: W
LayerCount: 2
Fore
SplineSet
622 177 m 0
 706 177 750 197 793 240 c 1
 793 240 829 236 829 176 c 0
 829 123 782 90 777 87 c 1
 779 85 829 52 829 -3 c 0
 829 -63 793 -67 793 -67 c 1
 730 -27 678 -13 630 -13 c 0
 559 -13 504 -66 443 -66 c 0
 403 -66 361 -45 313 0 c 1
 313 0 253 -67 153 -67 c 0
 61 -67 57 -13 57 -13 c 1
 166 56 166 120 166 341 c 0
 166 660 67 656 67 687 c 0
 67 728 166 700 166 1044 c 0
 166 1211 138 1288 56 1366 c 1
 56 1366 60 1420 152 1420 c 0
 260 1420 303 1343 303 1343 c 1
 303 1343 358 1420 452 1420 c 0
 544 1420 548 1366 548 1366 c 1
 466 1288 438 1211 438 1044 c 0
 438 700 537 728 537 687 c 0
 537 656 438 660 438 341 c 0
 438 194 449 182 449 182 c 1
 449 182 449 177 622 177 c 0
EndSplineSet
EndChar

StartChar: m
Encoding: 109 109 78
Width: 1841
Flags: W
LayerCount: 2
Fore
SplineSet
350 1317 m 1
 436 1393 566 1442 689 1442 c 0
 790 1442 892 1401 967 1298 c 1
 1060 1387 1188 1442 1306 1442 c 0
 1491 1442 1665 1329 1665 1004 c 0
 1665 706 1751 709 1751 680 c 0
 1751 665 1665 644 1665 383 c 0
 1665 178 1697 84 1790 -13 c 1
 1790 -13 1769 -67 1682 -67 c 0
 1585 -67 1518 40 1518 40 c 1
 1518 40 1442 -67 1333 -67 c 0
 1271 -67 1262 -25 1259 -13 c 1
 1335 85 1364 187 1364 393 c 0
 1364 641 1296 667 1296 680 c 0
 1296 705 1364 702 1364 970 c 0
 1364 1161 1362 1246 1223 1246 c 0
 1097 1246 1071 1150 1067 1004 c 1
 1067 703 1155 706 1155 680 c 0
 1155 665 1069 644 1069 383 c 0
 1069 178 1099 84 1194 -13 c 1
 1194 -13 1173 -67 1086 -67 c 0
 990 -67 921 40 921 40 c 1
 921 40 850 -67 748 -67 c 0
 669 -67 656 -25 653 -13 c 1
 744 85 778 187 778 393 c 0
 778 638 691 665 691 680 c 0
 691 705 778 705 778 970 c 0
 778 1161 776 1246 637 1246 c 0
 494 1246 481 1137 481 970 c 0
 481 702 549 705 549 680 c 0
 549 663 483 630 483 383 c 0
 483 178 510 84 588 -13 c 1
 588 -13 573 -67 513 -67 c 0
 404 -67 329 40 329 40 c 1
 329 40 261 -67 165 -67 c 0
 77 -67 60 -25 57 -13 c 1
 150 85 183 179 183 383 c 0
 183 599 121 649 92 672 c 0
 88 676 84 678 84 680 c 0
 84 698 183 726 183 979 c 0
 183 1181 148 1271 45 1367 c 1
 45 1367 70 1419 178 1419 c 0
 275 1419 350 1317 350 1317 c 1
EndSplineSet
EndChar

StartChar: n
Encoding: 110 110 79
Width: 1265
Flags: W
LayerCount: 2
Fore
SplineSet
333 1319 m 1
 351 1317 l 1
 435 1393 567 1441 690 1441 c 0
 895 1441 1089 1329 1089 1004 c 0
 1089 706 1175 709 1175 680 c 0
 1175 665 1089 644 1089 383 c 0
 1089 178 1120 84 1214 -13 c 1
 1214 -13 1192 -67 1106 -67 c 0
 1009 -67 942 40 942 40 c 1
 942 40 874 -67 777 -67 c 0
 699 -67 686 -25 683 -13 c 1
 773 85 808 187 808 393 c 0
 808 638 720 665 720 680 c 0
 720 705 808 706 808 971 c 0
 808 1162 806 1246 647 1246 c 0
 477 1246 461 1138 461 971 c 0
 461 706 548 705 548 680 c 0
 548 663 463 630 463 383 c 0
 463 178 495 84 588 -13 c 1
 588 -13 569 -67 492 -67 c 0
 396 -67 329 40 329 40 c 1
 329 40 260 -67 165 -67 c 0
 76 -67 60 -25 57 -13 c 1
 149 85 183 179 183 383 c 0
 183 599 121 649 91 672 c 0
 86 676 83 678 83 680 c 0
 83 697 183 723 183 979 c 0
 183 1181 147 1271 45 1367 c 1
 45 1367 70 1419 178 1419 c 0
 275 1419 333 1319 333 1319 c 1
EndSplineSet
EndChar

StartChar: o
Encoding: 111 111 80
Width: 1154
Flags: W
LayerCount: 2
Fore
SplineSet
453 383 m 0
 453 187 453 89 581 89 c 0
 710 89 711 198 711 393 c 0
 711 601 656 649 631 672 c 0
 626 676 624 678 624 680 c 0
 624 706 711 705 711 979 c 0
 711 1170 709 1247 581 1247 c 0
 454 1247 452 1170 452 979 c 0
 452 705 538 706 538 680 c 0
 538 663 453 630 453 383 c 0
1014 383 m 0
 1014 34 858 -84 581 -84 c 0
 304 -84 148 34 148 383 c 0
 148 644 36 667 36 680 c 0
 36 703 148 708 148 979 c 0
 148 1368 304 1442 582 1442 c 0
 858 1442 1014 1368 1014 979 c 0
 1014 713 1114 702 1114 680 c 0
 1114 678 1111 676 1106 672 c 0
 1076 649 1014 599 1014 383 c 0
EndSplineSet
EndChar

StartChar: p
Encoding: 112 112 81
Width: 1211
Flags: W
LayerCount: 2
Fore
SplineSet
75 680 m 0
 75 697 175 723 175 979 c 0
 175 1181 140 1271 38 1367 c 1
 38 1367 63 1419 171 1419 c 0
 268 1419 332 1306 332 1306 c 1
 424 1389 559 1441 682 1441 c 0
 887 1441 1081 1329 1081 1004 c 0
 1081 707 1168 709 1168 680 c 0
 1168 651 1081 653 1081 356 c 0
 1081 87 887 -2 682 -2 c 0
 612 -2 532 15 455 50 c 1
 455 -173 488 -281 580 -380 c 1
 580 -380 561 -435 486 -435 c 0
 389 -435 321 -326 321 -326 c 1
 321 -326 254 -435 157 -435 c 0
 68 -435 52 -392 49 -380 c 1
 138 -285 173 -186 175 9 c 1
 175 381 l 2
 175 650 75 657 75 680 c 0
541 680 m 0
 541 659 454 660 454 430 c 0
 454 277 469 178 631 178 c 0
 799 178 800 253 800 430 c 0
 800 663 713 660 713 680 c 0
 713 705 800 695 800 972 c 0
 800 1163 799 1247 631 1247 c 0
 469 1247 454 1139 454 972 c 0
 454 698 541 706 541 680 c 0
EndSplineSet
EndChar

StartChar: q
Encoding: 113 113 82
Width: 1211
Flags: W
LayerCount: 2
Fore
SplineSet
664 680 m 0
 664 707 752 696 752 982 c 0
 752 1157 738 1247 587 1247 c 0
 407 1247 405 1166 405 982 c 0
 405 699 492 707 492 680 c 0
 492 653 405 654 405 370 c 0
 405 179 407 96 587 96 c 0
 738 96 752 205 752 370 c 0
 752 657 664 653 664 680 c 0
1129 680 m 0
 1129 660 1030 635 1030 381 c 2
 1030 -71 l 1
 1033 -265 1067 -364 1156 -460 c 1
 1156 -460 1133 -515 1048 -515 c 0
 952 -515 884 -406 884 -406 c 1
 884 -406 817 -515 720 -515 c 0
 641 -515 628 -472 625 -460 c 1
 717 -361 750 -253 750 -31 c 1
 673 -64 593 -84 524 -84 c 0
 317 -84 124 31 124 356 c 0
 124 650 38 650 38 680 c 0
 38 709 124 706 124 1004 c 0
 124 1329 317 1441 524 1441 c 0
 647 1441 781 1389 874 1306 c 1
 874 1306 938 1419 1035 1419 c 0
 1146 1419 1165 1380 1168 1367 c 1
 1065 1271 1030 1181 1030 979 c 0
 1030 713 1129 702 1129 680 c 0
EndSplineSet
EndChar

StartChar: r
Encoding: 114 114 83
Width: 1137
Flags: W
LayerCount: 2
Fore
SplineSet
304 10 m 1
 304 10 248 -67 154 -67 c 0
 62 -67 58 -13 58 -13 c 1
 140 65 168 174 168 341 c 0
 168 660 69 656 69 687 c 0
 69 729 168 703 168 1057 c 0
 168 1219 140 1290 58 1366 c 1
 58 1366 62 1420 154 1420 c 0
 266 1420 334 1365 334 1365 c 1
 334 1365 367 1442 587 1442 c 0
 787 1442 939 1397 964 1188 c 1
 973 1078 1033 1061 1033 1042 c 0
 1033 1028 977 1002 964 866 c 0
 958 806 907 725 822 717 c 1
 1094 627 901 156 1128 12 c 1
 1072 -45 1008 -67 924 -67 c 0
 605 -67 787 632 610 632 c 2
 450 632 l 1
 450 341 l 2
 450 154 476 73 551 -13 c 1
 551 -13 547 -67 455 -67 c 0
 361 -67 304 10 304 10 c 1
588 1247 m 0
 529 1247 450 1224 450 1202 c 2
 450 774 l 1
 599 774 670 803 670 875 c 2
 670 1184 l 2
 670 1213 636 1247 588 1247 c 0
EndSplineSet
EndChar

StartChar: s
Encoding: 115 115 84
Width: 1056
Flags: W
LayerCount: 2
Fore
SplineSet
353 517 m 0
 329 530 337 597 262 657 c 1
 160 747 96 879 96 1050 c 0
 96 1304 271 1441 534 1441 c 0
 692 1441 930 1400 930 1137 c 2
 930 1088 l 2
 930 1024 936 975 1006 932 c 1
 1006 932 989 906 946 906 c 0
 840 906 774 998 771 1006 c 1
 769 1002 713 934 647 934 c 0
 586 934 576 966 574 977 c 1
 637 1009 670 1051 670 1145 c 0
 670 1204 643 1259 563 1259 c 0
 438 1259 420 1154 420 1080 c 0
 420 949 468 887 554 847 c 1
 604 826 694 872 708 865 c 0
 725 856 730 768 791 734 c 1
 918 647 1015 515 1015 329 c 0
 1015 74 828 -84 542 -84 c 0
 370 -84 111 -39 111 225 c 0
 111 237 112 249 112 294 c 0
 112 355 98 411 34 452 c 1
 34 452 52 479 94 479 c 0
 204 479 259 373 259 369 c 1
 259 369 330 452 403 452 c 0
 467 452 478 415 479 407 c 1
 421 372 391 326 391 227 c 0
 391 168 430 107 535 107 c 0
 656 107 691 217 691 277 c 0
 691 415 618 471 530 516 c 1
 441 555 371 507 353 517 c 0
EndSplineSet
EndChar

StartChar: t
Encoding: 116 116 85
Width: 921
Flags: W
LayerCount: 2
Fore
SplineSet
458 1373 m 1
 494 1412 527 1420 558 1420 c 0
 607 1420 650 1376 705 1376 c 0
 747 1376 793 1387 848 1420 c 1
 848 1420 884 1416 884 1356 c 0
 884 1301 834 1267 832 1266 c 1
 837 1263 884 1230 884 1177 c 0
 884 1117 848 1113 848 1113 c 1
 810 1156 769 1176 695 1176 c 0
 602 1176 602 1173 602 1173 c 1
 602 1173 591 1162 591 1033 c 0
 591 714 690 719 690 688 c 0
 690 647 591 675 591 331 c 0
 591 154 618 69 701 -13 c 1
 701 -13 697 -67 605 -67 c 0
 511 -67 458 10 458 10 c 1
 458 10 415 -67 307 -67 c 0
 215 -67 211 -13 211 -13 c 1
 293 69 321 154 321 331 c 0
 321 675 222 647 222 688 c 0
 222 719 321 714 321 1033 c 0
 321 1162 310 1173 310 1173 c 1
 310 1173 310 1176 197 1176 c 0
 133 1176 99 1156 66 1113 c 1
 66 1113 30 1117 30 1177 c 0
 30 1231 79 1264 81 1266 c 1
 78 1268 30 1301 30 1356 c 0
 30 1416 66 1420 66 1420 c 1
 121 1386 167 1376 209 1376 c 0
 264 1376 307 1420 356 1420 c 0
 387 1420 422 1412 458 1373 c 1
EndSplineSet
EndChar

StartChar: u
Encoding: 117 117 86
Width: 1235
Flags: W
LayerCount: 2
Fore
SplineSet
902 36 m 1
 802 -35 675 -84 555 -84 c 0
 348 -84 156 31 156 356 c 0
 156 653 68 651 68 680 c 0
 68 693 156 714 156 978 c 0
 156 1176 128 1271 40 1365 c 1
 40 1365 57 1420 148 1420 c 0
 244 1420 312 1313 312 1313 c 1
 312 1313 379 1420 476 1420 c 0
 553 1420 562 1374 563 1365 c 1
 477 1272 447 1164 447 968 c 0
 447 714 523 693 523 680 c 0
 523 653 447 654 447 370 c 0
 447 179 484 96 608 96 c 0
 748 96 773 205 773 370 c 0
 773 654 695 653 695 680 c 0
 695 695 771 726 771 978 c 0
 771 1176 743 1271 655 1365 c 1
 655 1365 669 1420 741 1420 c 0
 838 1420 905 1313 905 1313 c 1
 905 1313 973 1420 1070 1420 c 0
 1164 1420 1177 1374 1178 1365 c 1
 1083 1271 1050 1176 1050 978 c 0
 1050 760 1112 710 1142 688 c 0
 1146 684 1150 682 1150 680 c 0
 1150 660 1050 634 1050 381 c 0
 1050 173 1079 85 1170 -14 c 1
 1170 -14 1149 -65 1035 -65 c 0
 951 -65 902 36 902 36 c 1
EndSplineSet
EndChar

StartChar: v
Encoding: 118 118 87
Width: 1279
Flags: W
LayerCount: 2
Fore
SplineSet
638 171 m 1
 658 348 775 560 700 697 c 1
 747 780 779 909 779 1060 c 0
 779 1201 768 1280 747 1366 c 1
 747 1366 757 1420 849 1420 c 0
 938 1420 980 1343 980 1343 c 1
 980 1343 1041 1420 1129 1420 c 0
 1238 1420 1237 1366 1237 1366 c 1
 1094 1245 1062 1063 1062 889 c 0
 1062 694 1100 692 1100 666 c 1
 1097 625 986 653 943 309 c 1
 938 193 938 85 975 -13 c 1
 975 -13 964 -67 873 -67 c 0
 791 -67 752 10 752 10 c 1
 723 -41 682 -67 638 -67 c 0
 595 -67 549 -44 525 10 c 1
 525 10 486 -67 404 -67 c 0
 313 -67 302 -13 302 -13 c 1
 336 76 340 180 334 309 c 1
 290 658 177 624 177 668 c 0
 177 693 214 698 214 889 c 0
 214 1060 189 1234 40 1366 c 1
 40 1366 39 1420 148 1420 c 0
 236 1420 297 1343 297 1343 c 1
 297 1343 339 1420 428 1420 c 0
 520 1420 530 1366 530 1366 c 1
 509 1280 498 1201 498 1059 c 0
 498 908 530 779 577 696 c 1
 502 559 618 348 638 171 c 1
EndSplineSet
EndChar

StartChar: w
Encoding: 119 119 88
Width: 1466
Flags: W
LayerCount: 2
Fore
SplineSet
739 735 m 1
 555 211 l 1
 579 110 617 50 684 -13 c 1
 684 -15 684 -67 594 -67 c 0
 512 -67 456 10 456 10 c 1
 456 10 410 -67 314 -67 c 0
 223 -67 212 -13 212 -13 c 1
 266 52 290 114 290 221 c 0
 290 255 288 295 283 341 c 0
 249 670 148 655 148 690 c 0
 148 721 195 713 195 909 c 0
 195 1169 144 1274 40 1366 c 1
 40 1366 39 1420 130 1420 c 0
 224 1420 288 1343 288 1343 c 1
 288 1343 334 1420 430 1420 c 0
 522 1420 532 1366 532 1366 c 1
 476 1305 452 1250 452 1151 c 0
 452 1120 454 1085 459 1044 c 1
 468 796 482 685 495 635 c 1
 666 1143 l 1
 803 1143 l 1
 976 646 l 1
 987 700 997 812 1005 1044 c 1
 1009 1085 1012 1120 1012 1151 c 0
 1012 1250 987 1305 932 1366 c 1
 932 1366 942 1420 1034 1420 c 0
 1130 1420 1176 1343 1176 1343 c 1
 1176 1343 1240 1420 1334 1420 c 0
 1425 1420 1424 1366 1424 1366 c 1
 1320 1274 1269 1169 1269 909 c 0
 1269 713 1316 721 1316 690 c 0
 1316 655 1214 670 1181 341 c 0
 1177 295 1173 255 1173 221 c 0
 1173 114 1198 52 1252 -13 c 1
 1252 -13 1241 -67 1150 -67 c 0
 1054 -67 1008 10 1008 10 c 1
 1008 10 952 -67 870 -67 c 0
 780 -67 780 -15 780 -13 c 1
 852 55 890 119 913 236 c 1
 739 735 l 1
EndSplineSet
EndChar

StartChar: x
Encoding: 120 120 89
Width: 1270
Flags: W
LayerCount: 2
Fore
SplineSet
625 449 m 1
 561 271 l 2
 530 182 501 120 501 71 c 0
 501 41 504 13 509 -14 c 1
 509 -14 480 -74 403 -74 c 0
 322 -74 319 11 319 11 c 1
 319 11 229 -74 150 -74 c 0
 66 -74 51 -50 51 -33 c 0
 51 -22 56 -14 56 -14 c 1
 155 63 207 137 290 305 c 1
 402 571 l 1
 363 638 324 668 324 686 c 0
 324 715 357 722 402 798 c 1
 294 1078 l 1
 213 1228 163 1291 65 1361 c 1
 65 1361 60 1368 60 1378 c 0
 60 1396 75 1420 158 1420 c 0
 238 1420 328 1335 328 1335 c 1
 328 1335 332 1420 423 1420 c 0
 492 1420 517 1361 517 1361 c 1
 512 1333 507 1306 507 1275 c 0
 507 1233 527 1195 558 1102 c 1
 625 921 l 1
 703 1102 l 1
 731 1182 754 1225 754 1267 c 0
 754 1301 749 1331 743 1361 c 1
 743 1361 769 1420 838 1420 c 0
 927 1420 933 1335 933 1335 c 1
 933 1335 1023 1420 1102 1420 c 0
 1185 1420 1200 1396 1200 1378 c 0
 1200 1368 1195 1361 1195 1361 c 1
 1096 1291 1054 1225 965 1078 c 1
 836 792 l 1
 880 721 912 714 912 686 c 0
 912 668 875 641 836 578 c 1
 968 305 l 1
 1059 141 1104 63 1204 -14 c 1
 1204 -14 1210 -22 1210 -33 c 0
 1210 -50 1194 -74 1111 -74 c 0
 1032 -74 941 11 941 11 c 1
 941 11 937 -74 847 -74 c 0
 778 -74 751 -14 751 -14 c 1
 757 16 761 47 761 82 c 0
 761 130 734 184 699 271 c 1
 625 449 l 1
EndSplineSet
EndChar

StartChar: y
Encoding: 121 121 90
Width: 1172
Flags: W
LayerCount: 2
Fore
SplineSet
425 392 m 0
 425 555 320 621 270 657 c 0
 259 665 250 675 249 676 c 1
 251 678 l 1
 250 680 250 681 250 682 c 0
 250 700 305 725 305 828 c 0
 305 862 297 916 269 1002 c 1
 184 1197 128 1277 13 1369 c 1
 13 1369 10 1377 10 1381 c 0
 10 1397 24 1419 113 1419 c 0
 188 1419 296 1304 296 1304 c 1
 296 1304 307 1419 396 1419 c 0
 472 1419 506 1375 514 1361 c 1
 497 1326 487 1291 487 1250 c 0
 487 1146 570 756 587 756 c 0
 613 756 692 1155 692 1250 c 0
 692 1290 683 1326 666 1361 c 1
 666 1361 711 1419 784 1419 c 0
 882 1419 894 1304 894 1304 c 1
 894 1304 989 1419 1057 1419 c 0
 1145 1419 1158 1397 1158 1381 c 0
 1158 1376 1157 1370 1157 1367 c 1
 1041 1276 985 1196 901 1002 c 1
 873 916 863 861 863 826 c 0
 863 729 918 684 919 684 c 1
 919 678 920 674 921 672 c 1
 900 657 l 1
 848 625 743 554 743 392 c 0
 743 176 773 92 856 -14 c 1
 856 -14 835 -68 748 -68 c 0
 652 -68 584 39 584 39 c 1
 584 39 516 -68 421 -68 c 0
 332 -68 316 -26 313 -14 c 1
 395 92 425 176 425 392 c 0
EndSplineSet
EndChar

StartChar: z
Encoding: 122 122 91
Width: 1090
Flags: W
LayerCount: 2
Fore
SplineSet
356 752 m 1
 359 756 l 1
 363 767 416 762 522 945 c 1
 522 944 l 1
 555 1007 618 1141 618 1141 c 1
 618 1141 445 1133 330 1133 c 0
 243 1133 195 1109 149 1056 c 1
 149 1056 120 1073 120 1124 c 0
 120 1186 183 1234 190 1239 c 1
 185 1242 120 1287 120 1350 c 0
 120 1402 141 1415 150 1418 c 1
 215 1369 269 1353 321 1353 c 0
 356 1353 383 1372 412 1390 c 1
 411 1390 l 1
 434 1405 458 1419 481 1419 c 0
 513 1419 554 1390 600 1328 c 1
 600 1328 658 1419 741 1419 c 0
 828 1419 834 1344 834 1307 c 1
 834 1307 919 1419 983 1419 c 0
 1010 1419 1033 1389 1033 1338 c 0
 1033 1328 1032 1317 1028 1305 c 1
 937 1227 898 1139 808 904 c 1
 760 782 744 723 744 682 c 0
 744 637 764 615 764 605 c 0
 764 604 761 603 755 601 c 1
 755 602 l 1
 723 589 653 562 530 224 c 1
 652 224 682 218 794 218 c 0
 887 218 934 242 981 297 c 1
 981 297 1011 279 1011 228 c 0
 1011 166 946 121 939 117 c 1
 954 105 1011 61 1011 2 c 0
 1011 -55 987 -65 980 -67 c 1
 914 -18 856 0 804 0 c 0
 728 0 672 -68 611 -68 c 0
 578 -68 541 -41 498 16 c 1
 484 16 482 14 480 10 c 0
 467 -10 431 -68 379 -68 c 0
 289 -68 281 -15 281 -1 c 2
 281 42 l 1
 281 42 183 -69 112 -69 c 0
 86 -69 49 -45 49 -1 c 0
 49 6 50 13 54 22 c 1
 163 105 210 203 319 434 c 1
 357 559 378 632 378 679 c 0
 378 722 357 744 357 753 c 1
 356 752 l 1
EndSplineSet
EndChar

StartChar: braceleft
Encoding: 123 123 92
Width: 648
Flags: W
LayerCount: 2
Fore
SplineSet
216 -110 m 2
 216 70 l 2
 216 183 203 281 113 313 c 1
 113 406 98 465 35 510 c 1
 215 537 216 666 216 871 c 2
 216 1050 l 2
 216 1302 307 1374 605 1374 c 1
 605 1289 l 1
 448 1265 429 1206 429 1018 c 2
 429 862 l 2
 429 633 408 530 241 472 c 1
 241 470 l 1
 407 411 429 313 429 77 c 2
 429 -122 l 2
 429 -282 463 -334 605 -350 c 1
 605 -434 l 1
 307 -434 216 -362 216 -110 c 2
EndSplineSet
EndChar

StartChar: bar
Encoding: 124 124 93
Width: 367
Flags: W
LayerCount: 2
Fore
SplineSet
102 1463 m 1
 264 1463 l 1
 264 -473 l 1
 102 -473 l 1
 102 1463 l 1
EndSplineSet
EndChar

StartChar: braceright
Encoding: 125 125 94
Width: 657
Flags: W
LayerCount: 2
Fore
SplineSet
224 818 m 2
 224 1062 l 2
 224 1223 187 1270 46 1289 c 1
 46 1374 l 1
 346 1374 435 1302 435 1050 c 2
 435 852 l 2
 435 655 439 534 617 510 c 1
 617 430 l 1
 440 406 435 289 435 87 c 2
 435 -110 l 2
 435 -362 346 -434 46 -434 c 1
 46 -350 l 1
 187 -334 224 -282 224 -122 c 2
 224 33 l 2
 224 293 235 408 411 469 c 1
 411 471 l 1
 258 527 224 614 224 818 c 2
EndSplineSet
EndChar

StartChar: asciitilde
Encoding: 126 126 95
Width: 1139
Flags: W
LayerCount: 2
Fore
SplineSet
1027 764 m 1
 1063 587 l 1
 989 503 913 441 795 441 c 0
 622 441 506 579 330 579 c 0
 240 579 183 524 114 436 c 1
 77 610 l 1
 133 692 222 759 343 759 c 0
 515 759 683 620 806 620 c 0
 888 620 962 683 1027 764 c 1
EndSplineSet
EndChar

StartChar: exclamdown
Encoding: 161 161 96
Width: 420
Flags: W
LayerCount: 2
Fore
SplineSet
162 589 m 1
 266 589 l 1
 325 -26 l 1
 329 -104 l 2
 332 -156 336 -210 336 -262 c 0
 336 -338 313 -401 264 -429 c 1
 172 -429 119 -394 84 -347 c 1
 85 -267 88 -184 92 -104 c 2
 96 -26 l 1
 162 589 l 1
348 782 m 1
 307 739 233 706 149 706 c 1
 106 747 73 821 73 905 c 1
 114 948 188 981 272 981 c 1
 315 940 348 866 348 782 c 1
EndSplineSet
EndChar

StartChar: cent
Encoding: 162 162 97
Width: 1044
Flags: W
LayerCount: 2
Fore
SplineSet
375 -217 m 1
 375 3 l 1
 486 3 l 1
 486 -217 l 1
 375 -217 l 1
375 1383 m 1
 375 1603 l 1
 486 1603 l 1
 486 1383 l 1
 375 1383 l 1
555 -217 m 1
 555 3 l 1
 666 3 l 1
 666 -217 l 1
 555 -217 l 1
555 1383 m 1
 555 1603 l 1
 666 1603 l 1
 666 1383 l 1
 555 1383 l 1
418 359 m 0
 418 198 419 106 540 106 c 0
 640 106 644 235 644 300 c 0
 644 419 627 466 561 521 c 1
 561 521 564 561 633 561 c 0
 716 561 766 503 766 503 c 1
 766 503 827 561 916 561 c 0
 985 561 988 521 988 521 c 1
 926 469 914 422 914 314 c 2
 914 193 l 2
 914 -51 683 -85 518 -85 c 0
 291 -85 138 43 138 257 c 2
 138 351 l 2
 138 661 39 657 39 687 c 0
 39 726 138 700 138 1024 c 2
 138 1118 l 2
 138 1355 320 1442 525 1442 c 0
 690 1442 914 1408 914 1182 c 2
 914 1061 l 2
 914 948 934 898 997 844 c 1
 997 844 994 804 925 804 c 0
 836 804 775 862 775 862 c 1
 775 862 721 804 632 804 c 0
 563 804 560 844 560 844 c 1
 633 907 644 959 644 1110 c 0
 644 1175 632 1262 529 1262 c 0
 428 1262 417 1176 417 1100 c 0
 417 1077 418 1056 418 1037 c 0
 418 708 517 734 517 695 c 0
 517 665 418 669 418 359 c 0
EndSplineSet
EndChar

StartChar: sterling
Encoding: 163 163 98
Width: 1173
Flags: W
LayerCount: 2
Fore
SplineSet
74 670 m 1
 74 670 49 673 49 716 c 2
 49 812 l 2
 49 855 74 858 74 858 c 1
 112 854 175 835 237 835 c 0
 246 835 255 838 264 848 c 1
 261 931 260 1028 260 1124 c 0
 260 1358 375 1586 669 1586 c 0
 834 1586 1055 1554 1055 1217 c 0
 1055 1153 1073 1127 1126 1098 c 1
 1126 1098 1123 1054 1047 1054 c 0
 979 1054 932 1118 932 1118 c 1
 932 1118 885 1054 805 1054 c 0
 730 1054 725 1098 725 1098 c 1
 788 1124 798 1145 798 1202 c 0
 798 1275 787 1372 693 1372 c 0
 587 1372 554 1287 554 1189 c 0
 554 1032 581 855 590 847 c 1
 601 832 612 828 624 828 c 0
 708 828 789 854 834 858 c 1
 834 858 859 855 859 812 c 2
 859 716 l 2
 859 672 834 670 834 670 c 1
 791 672 710 699 625 699 c 0
 587 699 573 675 573 494 c 0
 573 206 545 179 545 179 c 1
 545 179 545 204 875 204 c 0
 968 204 1016 226 1063 273 c 1
 1063 273 1103 269 1103 203 c 0
 1103 144 1051 108 1046 105 c 1
 1048 103 1103 66 1103 6 c 0
 1103 -60 1063 -65 1063 -65 c 1
 994 -21 937 -5 884 -5 c 0
 782 -5 703 -64 618 -64 c 0
 562 -64 504 -41 435 9 c 1
 435 9 369 -65 259 -65 c 0
 158 -65 154 -5 154 -5 c 1
 274 71 274 141 274 384 c 0
 274 594 274 693 236 693 c 0
 173 693 111 673 74 670 c 1
EndSplineSet
EndChar

StartChar: fraction
Encoding: 8260 8260 99
Width: 1202
Flags: W
LayerCount: 2
Fore
SplineSet
38 -16 m 1
 1036 1330 l 1
 1164 1330 l 1
 167 -16 l 1
 38 -16 l 1
EndSplineSet
EndChar

StartChar: yen
Encoding: 165 165 100
Width: 1223
Flags: W
LayerCount: 2
Fore
SplineSet
208 562 m 1
 208 562 183 565 183 608 c 2
 183 654 l 2
 183 697 208 700 208 700 c 1
 257 694 329 691 412 689 c 1
 346 950 208 1230 42 1369 c 1
 42 1369 39 1377 39 1381 c 0
 39 1397 53 1419 142 1419 c 0
 217 1419 325 1304 325 1304 c 1
 325 1304 336 1419 425 1419 c 0
 501 1419 535 1375 543 1361 c 1
 526 1326 516 1291 516 1250 c 0
 516 1146 599 756 616 756 c 0
 642 756 721 1155 721 1250 c 0
 721 1290 712 1326 695 1361 c 1
 695 1361 740 1419 813 1419 c 0
 911 1419 923 1304 923 1304 c 1
 923 1304 1018 1419 1086 1419 c 0
 1174 1419 1187 1397 1187 1381 c 0
 1187 1376 1186 1370 1186 1367 c 1
 1020 1229 880 950 814 689 c 1
 913 692 999 695 1048 700 c 1
 1048 700 1073 697 1073 654 c 2
 1073 608 l 2
 1073 565 1048 562 1048 562 c 1
 998 566 900 570 789 573 c 1
 781 529 776 486 774 445 c 1
 889 447 993 452 1048 457 c 1
 1048 457 1073 454 1073 411 c 2
 1073 365 l 2
 1073 322 1048 319 1048 319 c 1
 996 323 890 328 773 330 c 1
 778 159 810 81 885 -14 c 1
 885 -14 864 -68 777 -68 c 0
 681 -68 613 39 613 39 c 1
 613 39 545 -68 450 -68 c 0
 361 -68 345 -26 342 -14 c 1
 416 81 447 159 453 331 c 1
 350 329 261 325 208 319 c 1
 208 319 183 322 183 365 c 2
 183 411 l 2
 183 454 208 457 208 457 c 1
 264 450 352 446 452 445 c 1
 449 486 445 529 437 573 c 1
 341 571 259 567 208 562 c 1
EndSplineSet
EndChar

StartChar: florin
Encoding: 402 402 101
Width: 1181
Flags: W
LayerCount: 2
Fore
SplineSet
292 832 m 1
 303 963 l 1
 545 963 l 1
 571 1110 l 2
 604 1300 697 1445 908 1445 c 0
 993 1445 1097 1408 1139 1332 c 1
 1132 1264 1099 1210 1054 1183 c 1
 978 1192 932 1219 911 1254 c 1
 911 1278 924 1295 949 1299 c 1
 941 1304 924 1307 908 1307 c 0
 811 1307 789 1215 769 1066 c 1
 757 963 l 1
 999 963 l 1
 987 832 l 1
 737 832 l 1
 625 87 l 2
 575 -244 515 -434 260 -434 c 0
 157 -434 73 -398 30 -319 c 1
 37 -254 71 -201 118 -174 c 1
 193 -182 238 -217 257 -249 c 1
 257 -265 241 -287 218 -296 c 1
 218 -297 l 1
 221 -302 230 -304 244 -304 c 0
 360 -304 375 -221 404 0 c 1
 525 832 l 1
 292 832 l 1
EndSplineSet
EndChar

StartChar: section
Encoding: 167 167 102
Width: 1045
Flags: W
LayerCount: 2
Fore
SplineSet
233 556 m 0
 233 400 536 353 659 301 c 1
 739 322 817 384 817 482 c 0
 817 642 499 696 392 736 c 1
 287 705 233 652 233 556 c 0
997 530 m 0
 997 390 906 295 768 231 c 1
 768 229 l 1
 884 178 946 75 946 -45 c 0
 946 -270 741 -395 521 -395 c 0
 330 -395 130 -308 114 -120 c 1
 114 -64 135 -17 180 -2 c 1
 260 -2 318 -33 350 -61 c 1
 350 -104 334 -122 294 -122 c 1
 297 -230 430 -257 526 -257 c 0
 645 -257 758 -183 758 -72 c 0
 758 193 52 100 52 506 c 0
 52 643 135 749 284 800 c 1
 284 802 l 1
 176 862 110 954 110 1075 c 0
 110 1288 313 1407 529 1407 c 0
 722 1407 920 1318 920 1105 c 1
 888 1066 833 1032 760 1032 c 0
 702 1032 689 1064 689 1131 c 0
 689 1173 693 1206 695 1227 c 1
 678 1242 652 1251 617 1252 c 1
 586 1264 556 1271 524 1271 c 0
 413 1271 297 1221 297 1108 c 0
 297 863 997 910 997 530 c 0
EndSplineSet
EndChar

StartChar: quotesingle
Encoding: 39 39 104
Width: 321
Flags: W
LayerCount: 2
Fore
SplineSet
242 1192 m 1
 210 841 l 1
 190 820 165 810 134 810 c 1
 119 819 111 839 108 870 c 2
 85 1113 l 1
 82 1186 77 1260 77 1332 c 1
 105 1379 146 1395 201 1395 c 1
 228 1379 243 1347 243 1284 c 0
 243 1253 242 1223 242 1192 c 1
EndSplineSet
EndChar

StartChar: quotedblleft
Encoding: 8220 8220 105
Width: 915
Flags: W
LayerCount: 2
Fore
SplineSet
834 1395 m 1
 834 1300 l 1
 730 1273 671 1219 671 1098 c 1
 673 1098 l 1
 700 1111 743 1115 782 1115 c 1
 813 1074 843 1008 843 928 c 1
 823 885 770 853 706 853 c 0
 655 853 611 867 572 888 c 1
 555 951 544 1018 544 1089 c 0
 544 1272 658 1379 834 1395 c 1
359 1395 m 1
 359 1300 l 1
 255 1273 196 1219 196 1098 c 1
 198 1098 l 1
 225 1111 268 1115 307 1115 c 1
 338 1074 368 1008 368 928 c 1
 348 885 295 853 231 853 c 0
 180 853 136 867 97 888 c 1
 80 951 69 1018 69 1089 c 0
 69 1272 183 1379 359 1395 c 1
EndSplineSet
EndChar

StartChar: guillemotleft
Encoding: 171 171 106
Width: 954
Flags: W
LayerCount: 2
Fore
SplineSet
304 894 m 1
 471 894 l 1
 418 790 315 575 267 484 c 1
 315 390 417 176 471 71 c 1
 304 71 l 1
 237 183 107 371 57 480 c 1
 108 587 237 782 304 894 c 1
720 894 m 1
 888 894 l 1
 832 790 732 575 684 484 c 1
 732 390 832 175 888 71 c 1
 720 71 l 1
 656 184 524 371 474 480 c 1
 525 587 656 782 720 894 c 1
EndSplineSet
EndChar

StartChar: guilsinglleft
Encoding: 8249 8249 107
Width: 538
Flags: W
LayerCount: 2
Fore
SplineSet
303 894 m 1
 472 894 l 1
 416 791 315 576 267 484 c 1
 315 390 416 176 472 71 c 1
 303 71 l 1
 239 184 107 371 57 480 c 1
 108 587 239 782 303 894 c 1
EndSplineSet
EndChar

StartChar: guilsinglright
Encoding: 8250 8250 108
Width: 536
Flags: W
LayerCount: 2
Fore
SplineSet
233 71 m 1
 65 71 l 1
 121 175 222 388 270 481 c 1
 221 575 121 790 65 894 c 1
 233 894 l 1
 300 782 429 593 480 485 c 1
 429 375 300 184 233 71 c 1
EndSplineSet
EndChar

StartChar: endash
Encoding: 8211 8211 109
Width: 1211
Flags: W
LayerCount: 2
Fore
SplineSet
1125 410 m 1
 89 410 l 1
 89 579 l 1
 1125 579 l 1
 1125 410 l 1
EndSplineSet
EndChar

StartChar: dagger
Encoding: 8224 8224 110
Width: 1083
Flags: W
LayerCount: 2
Fore
SplineSet
46 775 m 1
 46 842 69 897 104 929 c 1
 155 929 204 924 255 919 c 1
 330 884 397 863 493 863 c 1
 493 997 471 1082 439 1160 c 1
 432 1227 428 1287 428 1346 c 1
 463 1383 522 1406 594 1406 c 1
 629 1367 656 1307 656 1231 c 1
 632 1146 590 1040 590 863 c 1
 682 863 773 895 829 919 c 1
 880 926 929 929 980 929 c 1
 1015 897 1038 842 1038 775 c 1
 1006 740 950 718 882 718 c 1
 799 737 712 783 590 783 c 1
 590 704 604 624 624 557 c 1
 627 331 632 145 632 -26 c 0
 632 -143 629 -253 623 -363 c 1
 611 -408 583 -439 523 -439 c 1
 453 -388 447 -267 447 -146 c 0
 447 55 454 265 459 557 c 1
 486 629 493 658 493 783 c 1
 381 783 274 731 202 718 c 1
 134 718 78 740 46 775 c 1
EndSplineSet
EndChar

StartChar: daggerdbl
Encoding: 8225 8225 111
Width: 1076
Flags: W
LayerCount: 2
Fore
SplineSet
1018 830 m 1
 997 797 943 776 888 776 c 0
 798 776 705 836 583 836 c 1
 583 720 614 588 654 487 c 1
 615 388 583 257 583 139 c 1
 702 139 795 199 888 199 c 0
 943 199 997 178 1018 145 c 1
 1018 81 985 27 950 -4 c 1
 798 -4 745 48 583 59 c 1
 588 -93 629 -171 648 -257 c 1
 648 -333 622 -391 590 -430 c 1
 486 -430 l 1
 451 -391 427 -333 427 -257 c 1
 443 -174 491 -104 491 59 c 1
 407 56 324 30 256 1 c 1
 212 -2 168 -4 125 -4 c 1
 90 27 57 81 57 145 c 1
 78 178 131 199 187 199 c 0
 291 199 382 139 491 139 c 1
 483 277 461 373 418 487 c 1
 460 604 483 698 491 836 c 1
 369 836 280 776 187 776 c 0
 131 776 78 797 57 830 c 1
 57 894 90 949 125 980 c 1
 187 980 l 2
 276 980 378 921 491 916 c 1
 486 1075 446 1146 427 1233 c 1
 427 1308 453 1367 486 1406 c 1
 590 1406 l 1
 622 1367 648 1308 648 1233 c 1
 627 1148 588 1069 583 916 c 1
 687 921 750 948 818 974 c 1
 862 977 905 980 950 980 c 1
 985 949 1018 894 1018 830 c 1
EndSplineSet
EndChar

StartChar: periodcentered
Encoding: 183 183 112
Width: 553
Flags: W
LayerCount: 2
Fore
SplineSet
120 828 m 1
 161 849 214 861 272 861 c 0
 318 861 368 853 417 836 c 1
 438 795 450 743 450 686 c 0
 450 638 441 588 424 539 c 1
 383 518 330 506 272 506 c 0
 225 506 175 514 125 532 c 1
 105 572 94 623 94 680 c 0
 94 727 102 778 120 828 c 1
EndSplineSet
EndChar

StartChar: paragraph
Encoding: 182 182 113
Width: 1144
Flags: W
LayerCount: 2
Fore
SplineSet
612 -421 m 1
 442 -421 l 1
 442 540 l 1
 194 548 55 712 55 961 c 0
 55 1213 183 1374 498 1374 c 2
 1102 1374 l 1
 1102 1263 l 1
 1026 1263 974 1246 950 1182 c 1
 950 -421 l 1
 780 -421 l 1
 780 1256 l 1
 612 1256 l 1
 612 -421 l 1
EndSplineSet
EndChar

StartChar: bullet
Encoding: 8226 8226 114
Width: 1206
Flags: W
LayerCount: 2
Fore
SplineSet
958 235 m 1
 956 229 l 1
 614 442 l 1
 258 226 l 1
 256 231 l 1
 352 618 l 1
 38 891 l 1
 440 921 l 1
 602 1305 l 1
 754 931 l 1
 1168 897 l 1
 861 636 l 1
 958 235 l 1
EndSplineSet
EndChar

StartChar: quotesinglbase
Encoding: 8218 8218 115
Width: 459
Flags: W
LayerCount: 2
Fore
SplineSet
91 -283 m 1
 91 -189 l 1
 194 -163 253 -109 253 13 c 1
 251 13 l 1
 224 1 182 -3 143 -3 c 1
 112 38 81 103 81 183 c 1
 102 226 155 259 219 259 c 0
 270 259 314 245 353 224 c 1
 370 161 380 93 380 22 c 0
 380 -160 267 -267 91 -283 c 1
EndSplineSet
EndChar

StartChar: quotedblbase
Encoding: 8222 8222 116
Width: 934
Flags: W
LayerCount: 2
Fore
SplineSet
91 -283 m 1
 91 -189 l 1
 194 -163 253 -109 253 13 c 1
 251 13 l 1
 224 1 182 -3 143 -3 c 1
 112 38 81 103 81 183 c 1
 102 226 155 259 219 259 c 0
 270 259 314 245 353 224 c 1
 370 161 380 93 380 22 c 0
 380 -160 267 -267 91 -283 c 1
565 -283 m 1
 565 -189 l 1
 669 -162 728 -110 728 13 c 1
 726 13 l 1
 699 1 657 -3 618 -3 c 1
 587 38 556 103 556 183 c 1
 577 226 629 259 693 259 c 0
 744 259 788 245 827 224 c 1
 846 161 855 93 855 22 c 0
 855 -160 742 -267 565 -283 c 1
EndSplineSet
EndChar

StartChar: quotedblright
Encoding: 8221 8221 117
Width: 920
Flags: W
LayerCount: 2
Fore
SplineSet
86 853 m 1
 86 947 l 1
 189 972 248 1026 248 1149 c 1
 246 1149 l 1
 219 1136 177 1132 138 1132 c 1
 107 1173 76 1239 76 1319 c 1
 97 1362 150 1395 214 1395 c 0
 265 1395 309 1381 348 1360 c 1
 365 1297 375 1229 375 1158 c 0
 375 974 262 869 86 853 c 1
560 853 m 1
 560 947 l 1
 664 972 723 1026 723 1149 c 1
 721 1149 l 1
 694 1136 652 1132 613 1132 c 1
 582 1173 551 1239 551 1319 c 1
 572 1362 624 1395 688 1395 c 0
 739 1395 783 1381 822 1360 c 1
 841 1297 850 1229 850 1158 c 0
 850 974 737 869 560 853 c 1
EndSplineSet
EndChar

StartChar: guillemotright
Encoding: 187 187 118
Width: 952
Flags: W
LayerCount: 2
Fore
SplineSet
649 71 m 1
 482 71 l 1
 536 176 638 388 686 481 c 1
 638 575 536 789 482 894 c 1
 649 894 l 1
 716 782 845 592 896 485 c 1
 845 376 716 184 649 71 c 1
233 71 m 1
 65 71 l 1
 121 175 221 388 269 481 c 1
 221 575 121 790 65 894 c 1
 233 894 l 1
 297 782 428 592 479 485 c 1
 428 376 298 184 233 71 c 1
EndSplineSet
EndChar

StartChar: ellipsis
Encoding: 8230 8230 119
Width: 1796
Flags: W
LayerCount: 2
Fore
SplineSet
80 183 m 1
 121 226 195 259 279 259 c 1
 322 218 355 144 355 60 c 1
 314 17 240 -16 156 -16 c 1
 113 25 80 99 80 183 c 1
762 183 m 1
 803 226 877 259 961 259 c 1
 1004 218 1037 144 1037 60 c 1
 996 17 922 -16 838 -16 c 1
 795 25 762 99 762 183 c 1
1444 183 m 1
 1485 226 1559 259 1643 259 c 1
 1686 218 1719 144 1719 60 c 1
 1678 17 1604 -16 1520 -16 c 1
 1477 25 1444 99 1444 183 c 1
EndSplineSet
EndChar

StartChar: perthousand
Encoding: 8240 8240 120
Width: 2156
Flags: W
LayerCount: 2
Fore
SplineSet
1805 576 m 0
 1725 576 1685 499 1685 330 c 0
 1685 161 1725 82 1805 82 c 0
 1884 82 1925 161 1925 330 c 0
 1925 499 1884 576 1805 576 c 0
305 -16 m 1
 169 -16 l 1
 1140 1330 l 1
 1272 1330 l 1
 305 -16 l 1
354 1227 m 0
 274 1227 234 1150 234 981 c 0
 234 812 274 733 354 733 c 0
 433 733 474 812 474 981 c 0
 474 1150 433 1227 354 1227 c 0
1805 689 m 0
 2002 689 2104 533 2104 330 c 0
 2104 128 2002 -30 1805 -30 c 0
 1605 -30 1506 128 1506 330 c 0
 1506 533 1605 689 1805 689 c 0
354 1340 m 0
 551 1340 653 1184 653 981 c 0
 653 779 551 621 354 621 c 0
 154 621 55 779 55 981 c 0
 55 1184 154 1340 354 1340 c 0
1080 689 m 0
 1277 689 1379 533 1379 330 c 0
 1379 128 1277 -30 1080 -30 c 0
 880 -30 781 128 781 330 c 0
 781 533 880 689 1080 689 c 0
1080 576 m 0
 1000 576 960 499 960 330 c 0
 960 161 1000 82 1080 82 c 0
 1159 82 1200 161 1200 330 c 0
 1200 499 1159 576 1080 576 c 0
EndSplineSet
EndChar

StartChar: questiondown
Encoding: 191 191 121
Width: 980
Flags: W
LayerCount: 2
Fore
SplineSet
486 589 m 1
 615 589 l 1
 615 311 l 1
 612 268 588 235 557 203 c 1
 442 139 300 108 300 -66 c 0
 300 -205 411 -284 534 -284 c 0
 686 -284 774 -204 781 -41 c 1
 771 -48 760 -51 748 -51 c 0
 741 -51 722 -52 722 -43 c 0
 722 -33 727 -11 750 21 c 1
 751 47 772 68 810 68 c 0
 895 68 932 -29 932 -111 c 1
 905 -340 693 -440 509 -440 c 0
 268 -440 56 -309 56 -58 c 0
 56 201 339 305 474 432 c 1
 477 447 477 462 478 477 c 2
 486 589 l 1
685 782 m 1
 644 739 570 706 486 706 c 1
 443 747 411 821 411 905 c 1
 452 948 525 981 609 981 c 1
 652 940 685 866 685 782 c 1
EndSplineSet
EndChar

StartChar: grave
Encoding: 96 96 122
Width: 592
Flags: W
LayerCount: 2
Fore
SplineSet
522 1098 m 1
 397 1098 l 1
 139 1310 l 1
 104 1337 80 1359 68 1404 c 1
 87 1427 128 1446 168 1446 c 0
 241 1446 296 1402 352 1370 c 1
 372 1324 l 1
 522 1098 l 1
EndSplineSet
EndChar

StartChar: acute
Encoding: 180 180 123
Width: 584
Flags: W
LayerCount: 2
Fore
SplineSet
192 1098 m 1
 67 1098 l 1
 237 1370 l 1
 295 1401 354 1446 429 1446 c 0
 466 1446 505 1427 520 1404 c 1
 504 1355 477 1328 437 1296 c 2
 192 1098 l 1
EndSplineSet
EndChar

StartChar: circumflex
Encoding: 710 710 124
Width: 785
Flags: W
LayerCount: 2
Fore
SplineSet
275 1435 m 1
 503 1435 l 1
 715 1099 l 1
 587 1099 l 1
 390 1287 l 1
 192 1099 l 1
 67 1099 l 1
 275 1435 l 1
EndSplineSet
EndChar

StartChar: tilde
Encoding: 732 732 125
Width: 856
Flags: W
LayerCount: 2
Fore
SplineSet
683 1395 m 1
 782 1395 l 1
 769 1250 701 1127 571 1127 c 0
 443 1127 339 1239 249 1239 c 0
 202 1239 181 1190 176 1135 c 1
 77 1135 l 1
 85 1297 170 1398 290 1398 c 0
 397 1398 530 1286 589 1286 c 0
 647 1286 670 1327 683 1395 c 1
EndSplineSet
EndChar

StartChar: macron
Encoding: 175 175 126
Width: 802
Flags: W
LayerCount: 2
Fore
SplineSet
716 1184 m 1
 85 1184 l 1
 85 1311 l 1
 716 1311 l 1
 716 1184 l 1
EndSplineSet
EndChar

StartChar: breve
Encoding: 728 728 127
Width: 763
Flags: W
LayerCount: 2
Fore
SplineSet
75 1415 m 1
 191 1415 l 1
 206 1312 275 1253 379 1253 c 0
 488 1253 557 1303 576 1415 c 1
 693 1415 l 1
 680 1227 568 1106 378 1106 c 0
 193 1106 83 1238 75 1415 c 1
EndSplineSet
EndChar

StartChar: dotaccent
Encoding: 729 729 128
Width: 407
Flags: W
LayerCount: 2
Fore
SplineSet
79 1253 m 0
 79 1320 132 1377 203 1377 c 0
 274 1377 327 1320 327 1253 c 0
 327 1186 274 1129 203 1129 c 0
 132 1129 79 1186 79 1253 c 0
EndSplineSet
EndChar

StartChar: dieresis
Encoding: 168 168 129
Width: 803
Flags: W
LayerCount: 2
Fore
SplineSet
476 1253 m 0
 476 1320 530 1377 599 1377 c 0
 670 1377 723 1320 723 1253 c 0
 723 1186 670 1129 599 1129 c 0
 530 1129 476 1186 476 1253 c 0
79 1253 m 0
 79 1320 132 1377 203 1377 c 0
 274 1377 327 1320 327 1253 c 0
 327 1186 274 1129 203 1129 c 0
 132 1129 79 1186 79 1253 c 0
EndSplineSet
EndChar

StartChar: ring
Encoding: 730 730 130
Width: 571
Flags: W
LayerCount: 2
Fore
SplineSet
285 1490 m 0
 402 1490 494 1400 494 1283 c 0
 494 1166 402 1074 285 1074 c 0
 168 1074 77 1166 77 1283 c 0
 77 1400 168 1490 285 1490 c 0
285 1401 m 0
 217 1401 166 1350 166 1283 c 0
 166 1215 217 1163 285 1163 c 0
 353 1163 404 1215 404 1283 c 0
 404 1350 353 1401 285 1401 c 0
EndSplineSet
EndChar

StartChar: cedilla
Encoding: 184 184 131
Width: 531
Flags: W
LayerCount: 2
Fore
SplineSet
155 -185 m 1
 215 7 l 1
 305 7 l 1
 269 -98 l 1
 278 -97 287 -97 296 -97 c 0
 395 -97 453 -157 453 -252 c 0
 453 -369 318 -424 201 -424 c 0
 159 -424 114 -418 72 -406 c 1
 88 -317 l 1
 118 -324 147 -328 174 -328 c 0
 230 -328 281 -314 281 -255 c 0
 281 -218 255 -198 220 -194 c 0
 212 -194 200 -195 187 -198 c 1
 178 -193 167 -189 155 -185 c 1
EndSplineSet
EndChar

StartChar: hungarumlaut
Encoding: 733 733 132
Width: 889
Flags: W
LayerCount: 2
Fore
SplineSet
186 1103 m 1
 68 1103 l 1
 193 1361 l 1
 244 1399 292 1446 372 1446 c 0
 415 1446 444 1430 459 1410 c 1
 434 1361 395 1319 349 1272 c 2
 186 1103 l 1
552 1103 m 1
 434 1103 l 1
 559 1361 l 1
 607 1399 654 1446 729 1446 c 0
 774 1446 807 1430 826 1410 c 1
 802 1361 762 1320 715 1272 c 2
 552 1103 l 1
EndSplineSet
EndChar

StartChar: ogonek
Encoding: 731 731 133
Width: 572
Flags: W
LayerCount: 2
Fore
SplineSet
281 0 m 1
 414 0 l 1
 329 -74 269 -144 269 -222 c 0
 269 -292 312 -312 367 -312 c 0
 412 -312 441 -305 478 -286 c 1
 494 -393 l 1
 430 -424 374 -434 302 -434 c 0
 192 -434 78 -378 78 -256 c 0
 78 -156 197 -78 281 0 c 1
EndSplineSet
EndChar

StartChar: caron
Encoding: 711 711 134
Width: 770
Flags: W
LayerCount: 2
Fore
SplineSet
504 1099 m 1
 276 1099 l 1
 63 1435 l 1
 191 1435 l 1
 392 1247 l 1
 586 1435 l 1
 711 1435 l 1
 504 1099 l 1
EndSplineSet
EndChar

StartChar: emdash
Encoding: 8212 8212 135
Width: 2235
Flags: W
LayerCount: 2
Fore
SplineSet
2149 410 m 1
 89 410 l 1
 89 579 l 1
 2149 579 l 1
 2149 410 l 1
EndSplineSet
EndChar

StartChar: AE
Encoding: 198 198 136
Width: 2382
Flags: W
LayerCount: 2
Fore
SplineSet
1052 669 m 1
 1028 206 l 1
 1028 120 1092 117 1127 117 c 0
 1215 117 1246 176 1246 237 c 0
 1246 310 1217 354 1175 395 c 1
 1175 395 1180 435 1246 435 c 0
 1327 435 1377 377 1377 377 c 1
 1377 377 1427 435 1509 435 c 0
 1575 435 1579 395 1579 395 c 1
 1517 346 1498 278 1498 199 c 0
 1498 100 1520 28 1589 -30 c 1
 1589 -30 1586 -74 1510 -74 c 0
 1405 -74 1340 21 1340 21 c 1
 1288 -36 1200 -74 1116 -74 c 0
 1047 -74 982 -49 942 11 c 1
 942 11 878 -74 765 -74 c 0
 663 -74 660 -14 660 -14 c 1
 714 61 748 134 763 256 c 0
 772 327 776 392 776 449 c 0
 776 508 771 560 765 601 c 1
 741 627 683 640 623 640 c 0
 565 640 504 627 475 602 c 1
 440 521 408 402 390 257 c 0
 386 225 384 196 384 169 c 0
 384 95 399 41 424 -14 c 1
 424 -14 405 -74 304 -74 c 0
 190 -74 148 11 148 11 c 1
 148 11 75 -74 -13 -74 c 0
 -94 -74 -101 -33 -101 -19 c 2
 -101 -14 l 1
 12 80 66 169 116 375 c 0
 141 481 148 552 148 604 c 0
 148 721 107 731 107 753 c 0
 107 801 240 764 338 1148 c 1
 348 1205 361 1256 361 1309 c 0
 361 1375 341 1440 280 1503 c 1
 280 1503 300 1562 400 1562 c 0
 523 1562 566 1456 566 1456 c 1
 609 1531 679 1562 740 1562 c 0
 803 1562 859 1526 888 1456 c 1
 891 1448 l 1
 898 1456 973 1562 1102 1562 c 0
 1177 1562 1283 1533 1339 1466 c 1
 1339 1466 1404 1562 1509 1562 c 0
 1584 1562 1588 1516 1588 1516 c 1
 1519 1464 1497 1402 1497 1312 c 0
 1497 1237 1516 1174 1578 1127 c 1
 1578 1127 1573 1088 1508 1088 c 0
 1426 1088 1376 1145 1376 1145 c 1
 1376 1145 1326 1088 1245 1088 c 0
 1179 1088 1174 1127 1174 1127 c 1
 1216 1165 1245 1209 1245 1277 c 0
 1245 1329 1220 1372 1137 1372 c 0
 1097 1372 1029 1368 1029 1294 c 1
 1052 847 l 1
 1207 847 1288 861 1357 905 c 1
 1357 905 1384 902 1384 855 c 0
 1384 791 1344 752 1344 752 c 1
 1344 752 1384 718 1384 661 c 0
 1384 613 1357 610 1357 610 c 1
 1288 653 1207 669 1052 669 c 1
543 857 m 1
 541 854 541 852 541 849 c 0
 541 810 586 790 641 790 c 0
 701 790 760 812 760 858 c 1
 756 917 754 1367 718 1367 c 0
 681 1367 561 915 543 857 c 1
EndSplineSet
EndChar

StartChar: ordfeminine
Encoding: 170 170 137
Width: 792
Flags: W
LayerCount: 2
Fore
SplineSet
693 903 m 1
 735 852 l 1
 698 768 650 736 544 736 c 1
 509 748 480 773 475 817 c 1
 420 758 346 732 266 732 c 0
 161 732 69 784 69 894 c 0
 69 1010 175 1073 303 1087 c 0
 372 1094 440 1098 467 1119 c 1
 467 1211 432 1259 325 1259 c 0
 307 1259 275 1253 264 1240 c 1
 257 1240 254 1223 240 1172 c 0
 233 1147 210 1141 181 1141 c 0
 135 1141 99 1168 86 1197 c 1
 113 1305 238 1341 356 1341 c 0
 467 1341 606 1309 606 1176 c 2
 606 880 l 2
 606 857 611 842 621 834 c 1
 637 834 650 846 657 881 c 1
 693 903 l 1
467 932 m 1
 467 1005 l 1
 441 1010 414 1012 388 1012 c 0
 296 1012 215 982 215 909 c 0
 215 854 249 822 312 822 c 0
 385 822 442 871 467 932 c 1
EndSplineSet
EndChar

StartChar: Lslash
Encoding: 321 321 138
Width: 1163
Flags: W
LayerCount: 2
Fore
SplineSet
776 195 m 0
 869 195 917 217 964 264 c 1
 964 264 1004 260 1004 194 c 0
 1004 135 952 99 947 96 c 1
 949 94 1004 57 1004 -3 c 0
 1004 -69 964 -74 964 -74 c 1
 895 -30 838 -14 785 -14 c 0
 718 -14 666 -73 609 -73 c 0
 565 -73 519 -37 466 40 c 1
 466 40 408 -74 310 -74 c 0
 209 -74 205 -14 205 -14 c 1
 325 62 325 132 325 375 c 0
 325 726 216 722 216 756 c 0
 216 801 325 770 325 1148 c 0
 325 1332 294 1417 204 1503 c 1
 204 1503 208 1562 309 1562 c 0
 428 1562 475 1457 475 1457 c 1
 475 1457 536 1562 639 1562 c 0
 740 1562 745 1503 745 1503 c 1
 655 1417 624 1332 624 1148 c 0
 624 770 733 801 733 756 c 0
 733 722 624 726 624 375 c 0
 624 213 636 200 636 200 c 1
 636 200 636 195 776 195 c 0
1082 659 m 1
 46 659 l 1
 46 828 l 1
 1082 828 l 1
 1082 659 l 1
EndSplineSet
EndChar

StartChar: Oslash
Encoding: 216 216 139
Width: 1234
Flags: W
LayerCount: 2
Fore
SplineSet
160 -229 m 1
 978 1750 l 1
 1062 1710 l 1
 244 -269 l 1
 160 -229 l 1
491 421 m 0
 491 206 491 98 621 98 c 0
 752 98 753 218 753 432 c 2
 753 1088 l 2
 753 1290 751 1372 621 1372 c 0
 492 1372 490 1290 490 1088 c 0
 490 494 491 998 491 421 c 0
1086 421 m 0
 1086 37 919 -92 621 -92 c 0
 323 -92 156 37 156 421 c 0
 156 708 32 734 32 748 c 0
 32 773 156 779 156 1077 c 0
 156 1505 323 1586 622 1586 c 0
 919 1586 1086 1505 1086 1077 c 0
 1086 784 1196 772 1196 748 c 0
 1196 746 1193 744 1187 739 c 0
 1154 714 1086 659 1086 421 c 0
EndSplineSet
EndChar

StartChar: OE
Encoding: 338 338 140
Width: 2339
Flags: W
LayerCount: 2
Fore
SplineSet
1108 669 m 1
 1064 206 l 1
 1064 120 1128 117 1163 117 c 0
 1251 117 1282 176 1282 237 c 0
 1282 310 1253 354 1211 395 c 1
 1211 395 1216 435 1282 435 c 0
 1363 435 1413 377 1413 377 c 1
 1413 377 1463 435 1545 435 c 0
 1611 435 1615 395 1615 395 c 1
 1553 346 1534 278 1534 199 c 0
 1534 100 1556 28 1625 -30 c 1
 1625 -30 1622 -74 1546 -74 c 0
 1441 -74 1376 21 1376 21 c 1
 1320 -46 1215 -74 1139 -74 c 0
 993 -74 908 41 908 40 c 0
 864 -56 721 -92 622 -92 c 0
 324 -92 157 37 157 421 c 0
 157 708 33 734 33 748 c 0
 33 773 157 779 157 1077 c 0
 157 1505 324 1586 623 1586 c 0
 750 1586 846 1547 906 1447 c 1
 906 1444 991 1562 1138 1562 c 0
 1213 1562 1319 1533 1375 1466 c 1
 1375 1466 1440 1562 1545 1562 c 0
 1620 1562 1624 1516 1624 1516 c 1
 1555 1464 1533 1402 1533 1312 c 0
 1533 1237 1552 1174 1614 1127 c 1
 1614 1127 1609 1088 1544 1088 c 0
 1462 1088 1412 1145 1412 1145 c 1
 1412 1145 1362 1088 1281 1088 c 0
 1215 1088 1210 1127 1210 1127 c 1
 1252 1165 1281 1209 1281 1277 c 0
 1281 1329 1256 1372 1173 1372 c 0
 1133 1372 1065 1368 1065 1294 c 1
 1108 847 l 1
 1253 847 1328 861 1393 905 c 1
 1393 905 1420 902 1420 855 c 0
 1420 791 1380 752 1380 752 c 1
 1380 752 1420 718 1420 661 c 0
 1420 613 1393 610 1393 610 c 1
 1328 653 1253 669 1108 669 c 1
492 421 m 0
 492 206 492 98 622 98 c 0
 753 98 754 218 754 432 c 1
 743 725 646 724 646 756 c 0
 646 798 742 774 754 1086 c 1
 754 1088 l 2
 754 1290 752 1372 622 1372 c 0
 493 1372 491 1290 491 1088 c 0
 491 772 575 777 575 748 c 0
 575 730 492 695 492 421 c 0
EndSplineSet
EndChar

StartChar: ordmasculine
Encoding: 186 186 141
Width: 801
Flags: W
LayerCount: 2
Fore
SplineSet
219 1034 m 0
 219 903 289 824 400 824 c 0
 511 824 581 903 581 1034 c 0
 581 1163 511 1244 400 1244 c 0
 289 1244 219 1163 219 1034 c 0
63 1034 m 0
 63 1220 206 1341 400 1341 c 0
 595 1341 736 1220 736 1034 c 0
 736 850 595 728 400 728 c 0
 206 728 63 850 63 1034 c 0
EndSplineSet
EndChar

StartChar: ae
Encoding: 230 230 142
Width: 2174
Flags: W
LayerCount: 2
Fore
SplineSet
1440 936 m 0
 1440 743 1469 681 1488 656 c 1
 1112 656 l 2
 1066 656 1006 654 954 649 c 1
 951 597 949 513 949 405 c 0
 949 219 950 113 1077 113 c 0
 1191 113 1195 219 1195 273 c 0
 1195 367 1166 409 1091 451 c 1
 1091 451 1113 485 1168 485 c 0
 1251 485 1312 402 1312 402 c 1
 1312 402 1373 485 1455 485 c 0
 1514 485 1529 461 1532 451 c 1
 1455 409 1440 372 1440 285 c 0
 1440 -39 1229 -84 1061 -84 c 0
 940 -84 850 -40 792 48 c 1
 695 -59 597 -84 472 -84 c 0
 330 -84 155 -48 111 199 c 1
 98 278 37 336 37 350 c 0
 37 365 98 416 107 478 c 1
 140 678 270 757 477 757 c 0
 594 757 633 834 633 955 c 0
 633 1142 629 1246 512 1246 c 0
 388 1246 384 1139 384 1085 c 0
 384 991 413 949 488 907 c 1
 488 907 466 873 411 873 c 0
 328 873 267 956 267 956 c 1
 267 956 206 873 124 873 c 0
 65 873 50 897 47 907 c 1
 124 949 139 986 139 1073 c 0
 139 1397 362 1442 538 1442 c 0
 643 1442 729 1405 794 1325 c 1
 862 1405 951 1442 1061 1442 c 0
 1229 1442 1440 1385 1440 936 c 0
633 417 m 0
 633 599 548 619 520 619 c 0
 428 619 394 535 394 336 c 0
 394 266 389 89 509 89 c 0
 632 89 633 209 633 417 c 0
949 955 m 0
 949 898 947 856 943 823 c 1
 989 813 1032 813 1079 813 c 0
 1129 813 1162 820 1185 831 c 1
 1195 861 1195 894 1195 936 c 0
 1195 1025 1201 1246 1077 1246 c 0
 950 1246 949 1142 949 955 c 0
EndSplineSet
EndChar

StartChar: dotlessi
Encoding: 305 305 143
Width: 617
Flags: W
LayerCount: 2
Fore
SplineSet
168 341 m 0
 168 660 69 656 69 687 c 0
 69 728 168 700 168 1044 c 0
 168 1216 140 1286 58 1366 c 1
 58 1366 62 1420 154 1420 c 0
 248 1420 304 1343 304 1343 c 1
 304 1343 360 1420 454 1420 c 0
 546 1420 550 1366 550 1366 c 1
 468 1286 440 1216 440 1044 c 0
 440 700 539 728 539 687 c 0
 539 656 440 660 440 341 c 0
 440 154 468 73 550 -13 c 1
 550 -13 546 -67 454 -67 c 0
 360 -67 304 10 304 10 c 1
 304 10 248 -67 154 -67 c 0
 63 -67 58 -13 58 -13 c 1
 140 73 168 154 168 341 c 0
EndSplineSet
EndChar

StartChar: lslash
Encoding: 322 322 144
Width: 1131
Flags: W
LayerCount: 2
Fore
SplineSet
674 177 m 0
 758 177 802 197 845 240 c 1
 845 240 881 236 881 176 c 0
 881 123 834 90 829 87 c 1
 831 85 881 52 881 -3 c 0
 881 -63 845 -67 845 -67 c 1
 782 -27 730 -13 682 -13 c 0
 611 -13 556 -66 495 -66 c 0
 455 -66 413 -45 365 0 c 1
 365 0 305 -67 205 -67 c 0
 113 -67 109 -13 109 -13 c 1
 218 56 218 120 218 341 c 0
 218 660 119 656 119 687 c 0
 119 728 218 700 218 1044 c 0
 218 1211 190 1288 108 1366 c 1
 108 1366 112 1420 204 1420 c 0
 312 1420 355 1343 355 1343 c 1
 355 1343 410 1420 504 1420 c 0
 596 1420 600 1366 600 1366 c 1
 518 1288 490 1211 490 1044 c 0
 490 700 589 728 589 687 c 0
 589 656 490 660 490 341 c 0
 490 194 501 182 501 182 c 1
 501 182 501 177 674 177 c 0
1060 410 m 1
 24 410 l 1
 24 579 l 1
 1060 579 l 1
 1060 410 l 1
EndSplineSet
EndChar

StartChar: oslash
Encoding: 248 248 145
Width: 1153
Flags: W
LayerCount: 2
Fore
SplineSet
158 -229 m 1
 908 1605 l 1
 992 1565 l 1
 242 -269 l 1
 158 -229 l 1
452 383 m 0
 452 187 452 89 580 89 c 0
 709 89 710 198 710 393 c 2
 710 979 l 2
 710 1170 708 1247 580 1247 c 0
 453 1247 451 1170 451 979 c 0
 451 458 452 898 452 383 c 0
1013 383 m 0
 1013 34 857 -84 580 -84 c 0
 303 -84 147 34 147 383 c 0
 147 644 35 667 35 680 c 0
 35 703 147 708 147 979 c 0
 147 1368 303 1442 581 1442 c 0
 857 1442 1013 1368 1013 979 c 0
 1013 713 1113 702 1113 680 c 0
 1113 678 1110 676 1105 672 c 0
 1075 649 1013 599 1013 383 c 0
EndSplineSet
EndChar

StartChar: oe
Encoding: 339 339 146
Width: 2216
Flags: W
LayerCount: 2
Fore
SplineSet
1509 936 m 0
 1509 743 1538 681 1557 656 c 1
 1181 656 l 2
 1135 656 1075 654 1023 649 c 1
 1020 597 1018 513 1018 405 c 0
 1018 219 1019 113 1146 113 c 0
 1260 113 1264 219 1264 273 c 0
 1264 367 1235 409 1160 451 c 1
 1160 451 1182 485 1237 485 c 0
 1320 485 1381 402 1381 402 c 1
 1381 402 1442 485 1524 485 c 0
 1583 485 1598 461 1601 451 c 1
 1524 409 1509 372 1509 285 c 0
 1509 -39 1298 -84 1130 -84 c 0
 1020 -84 931 -44 863 43 c 1
 796 -46 702 -84 581 -84 c 0
 304 -84 148 34 148 383 c 0
 148 644 36 667 36 680 c 0
 36 703 148 708 148 979 c 0
 148 1368 304 1442 582 1442 c 0
 708 1442 805 1416 873 1322 c 1
 939 1404 1025 1442 1130 1442 c 0
 1298 1442 1509 1385 1509 936 c 0
453 383 m 0
 453 187 453 89 581 89 c 0
 710 89 711 198 711 393 c 0
 711 601 656 649 631 672 c 0
 626 676 624 678 624 680 c 0
 624 706 711 705 711 979 c 0
 711 1170 709 1247 581 1247 c 0
 454 1247 452 1170 452 979 c 0
 452 705 538 706 538 680 c 0
 538 663 453 630 453 383 c 0
1018 955 m 0
 1018 898 1016 856 1012 823 c 1
 1058 813 1101 813 1148 813 c 0
 1198 813 1231 820 1254 831 c 1
 1264 861 1264 894 1264 936 c 0
 1264 1025 1270 1246 1146 1246 c 0
 1019 1246 1018 1142 1018 955 c 0
EndSplineSet
EndChar

StartChar: germandbls
Encoding: 223 223 147
Width: 1252
Flags: W
LayerCount: 2
Fore
SplineSet
629 184 m 1
 701 264 l 1
 725 163 753 135 809 135 c 0
 917 135 972 226 972 418 c 0
 972 642 866 725 636 725 c 1
 636 871 l 1
 793 880 880 938 880 1073 c 0
 880 1188 789 1257 681 1257 c 0
 470 1257 447 1095 447 919 c 2
 447 142 l 1
 523 142 l 1
 523 0 l 1
 46 0 l 1
 46 151 l 1
 113 151 l 2
 217 151 230 182 230 253 c 2
 230 921 l 2
 230 964 232 1005 235 1045 c 0
 251 1297 431 1409 681 1409 c 0
 904 1409 1112 1303 1112 1083 c 0
 1112 950 1012 861 892 821 c 1
 892 817 l 1
 1104 774 1211 629 1211 409 c 0
 1211 181 1080 -24 848 -24 c 0
 702 -24 653 42 629 184 c 1
EndSplineSet
EndChar

StartChar: onesuperior
Encoding: 185 185 148
Width: 711
Flags: MW
HStem: 544 21G<152 152 592 592> 553 87
VStem: 152 317<544 693 640 693>
LayerCount: 2
Fore
SplineSet
469 1389 m 1x60
 469 693 l 2
 469 671 471 656 475 643 c 1
 491 640 507 640 525 640 c 2
 592 640 l 1
 592 544 l 1
 513 551 443 553 377 553 c 0x60
 305 553 232 550 152 544 c 1xa0
 152 640 l 1x60
 234 640 l 2
 246 640 258 640 268 643 c 1
 272 657 275 677 275 708 c 2xa0
 275 1278 l 2
 275 1291 275 1303 274 1315 c 1
 260 1321 246 1324 227 1324 c 0
 221 1324 215 1323 209 1323 c 2
 144 1317 l 1
 139 1381 l 1
 227 1405 321 1429 396 1429 c 0
 455 1429 465 1418 469 1389 c 1x60
EndSplineSet
EndChar

StartChar: logicalnot
Encoding: 172 172 149
Width: 1197
Flags: W
LayerCount: 2
Fore
SplineSet
940 278 m 1
 940 712 l 1
 76 712 l 1
 76 874 l 1
 1103 874 l 1
 1103 278 l 1
 940 278 l 1
EndSplineSet
EndChar

StartChar: mu
Encoding: 181 181 150
Width: 1235
Flags: W
LayerCount: 2
Fore
SplineSet
155 -50 m 0
 155 323 156 356 156 356 c 2
 156 653 68 651 68 680 c 0
 68 693 156 714 156 978 c 0
 156 1176 128 1271 40 1365 c 1
 40 1365 57 1420 148 1420 c 0
 244 1420 312 1313 312 1313 c 1
 312 1313 379 1420 476 1420 c 0
 553 1420 562 1374 563 1365 c 1
 477 1272 447 1164 447 968 c 0
 447 714 523 693 523 680 c 0
 523 653 447 654 447 370 c 0
 447 179 484 96 608 96 c 0
 748 96 773 205 773 370 c 0
 773 654 695 653 695 680 c 0
 695 695 771 726 771 978 c 0
 771 1176 743 1271 655 1365 c 1
 655 1365 669 1420 741 1420 c 0
 838 1420 905 1313 905 1313 c 1
 905 1313 973 1420 1070 1420 c 0
 1164 1420 1177 1374 1178 1365 c 1
 1083 1271 1050 1176 1050 978 c 0
 1050 760 1112 710 1142 688 c 0
 1146 684 1150 682 1150 680 c 0
 1150 660 1050 634 1050 381 c 0
 1050 173 1079 85 1170 -14 c 1
 1170 -14 1149 -65 1035 -65 c 0
 951 -65 902 36 902 36 c 1
 812 -18 694 -84 585 -84 c 0
 528 -84 473 -66 427 -17 c 1
 427 -50 l 2
 427 -207 455 -271 537 -344 c 1
 537 -344 533 -398 441 -398 c 0
 347 -398 291 -321 291 -321 c 1
 291 -321 235 -398 141 -398 c 0
 50 -398 45 -344 45 -344 c 1
 127 -271 155 -207 155 -50 c 0
EndSplineSet
EndChar

StartChar: trademark
Encoding: 8482 8482 151
Width: 1883
Flags: W
LayerCount: 2
Fore
SplineSet
568 1289 m 1
 568 695 l 2
 568 642 567 627 660 611 c 1
 660 552 l 1
 324 552 l 1
 324 611 l 1
 416 627 415 641 415 695 c 2
 415 1289 l 1
 292 1289 l 2
 260 1289 243 1259 232 1224 c 1
 176 1224 l 1
 176 1374 l 1
 798 1374 l 1
 798 1224 l 1
 742 1224 l 1
 731 1259 713 1289 681 1289 c 2
 568 1289 l 1
1266 551 m 1
 1055 1193 l 1
 1051 1193 l 1
 1051 761 l 2
 1051 683 1060 644 1145 614 c 1
 1145 552 l 1
 866 552 l 1
 866 613 l 1
 950 641 959 682 959 758 c 2
 959 1236 l 2
 959 1297 905 1314 847 1314 c 1
 847 1374 l 1
 1130 1374 l 1
 1337 752 l 1
 1339 752 l 1
 1552 1374 l 1
 1813 1374 l 1
 1813 1314 l 1
 1729 1299 1718 1274 1718 1227 c 2
 1718 737 l 2
 1718 670 1717 642 1810 613 c 1
 1810 552 l 1
 1469 552 l 1
 1469 614 l 1
 1567 643 1560 673 1560 739 c 2
 1560 1195 l 1
 1556 1195 l 1
 1341 551 l 1
 1266 551 l 1
EndSplineSet
EndChar

StartChar: Eth
Encoding: 208 208 152
Width: 1207
Flags: W
LayerCount: 2
Fore
SplineSet
484 342 m 0
 484 210 487 117 615 117 c 0
 748 117 746 200 746 351 c 0
 746 722 670 719 670 756 c 0
 670 809 746 762 746 1218 c 0
 746 1258 746 1372 624 1372 c 0
 486 1372 484 1285 484 1220 c 0
 484 763 560 807 560 756 c 0
 560 718 484 723 484 342 c 0
174 386 m 0
 174 727 65 723 65 756 c 0
 65 802 174 773 174 1163 c 0
 174 1341 143 1419 53 1503 c 1
 53 1503 57 1562 158 1562 c 0
 269 1562 336 1462 336 1462 c 1
 413 1570 557 1586 672 1586 c 0
 887 1586 1076 1491 1076 1230 c 2
 1076 1126 l 2
 1076 770 1163 799 1163 756 c 0
 1163 723 1076 727 1076 386 c 2
 1076 283 l 2
 1076 61 916 -74 680 -74 c 0
 557 -74 414 -51 336 41 c 1
 336 41 269 -74 158 -74 c 0
 57 -74 53 -14 53 -14 c 1
 143 74 174 197 174 386 c 0
298 478 m 1
 298 478 273 481 273 524 c 2
 273 620 l 2
 273 663 298 666 298 666 c 1
 366 656 487 653 614 653 c 0
 730 653 856 659 908 666 c 1
 908 666 933 663 933 620 c 2
 933 524 l 2
 933 480 908 478 908 478 c 1
 861 484 729 491 611 491 c 0
 482 491 360 488 298 478 c 1
EndSplineSet
EndChar

StartChar: onehalf
Encoding: 189 189 153
Width: 2591
Flags: MW
HStem: 734 21G<208 208 648 648> 743 87
VStem: 208 317<734 883 830 883>
LayerCount: 2
Fore
SplineSet
525 1579 m 1x60
 525 883 l 2
 525 861 527 846 531 833 c 1
 547 830 563 830 581 830 c 2
 648 830 l 1
 648 734 l 1
 569 741 499 743 433 743 c 0x60
 361 743 288 740 208 734 c 1xa0
 208 830 l 1x60
 290 830 l 2
 302 830 314 830 324 833 c 1
 328 847 331 867 331 898 c 2xa0
 331 1468 l 2
 331 1481 331 1493 330 1505 c 1
 316 1511 302 1514 283 1514 c 0
 277 1514 271 1513 265 1513 c 2
 200 1507 l 1
 195 1571 l 1
 283 1595 377 1619 452 1619 c 0
 511 1619 521 1608 525 1579 c 1x60
542 -35 m 1
 1218 1612 l 1
 1363 1542 l 1
 687 -105 l 1
 542 -35 l 1
1727 802 m 0
 1645 802 1568 735 1544 625 c 1
 1412 719 l 1
 1421 825 1562 891 1726 891 c 0
 1922 891 2033 804 2033 643 c 0
 2033 479 1880 344 1601 124 c 1
 1818 124 l 2
 1890 124 1943 156 1986 253 c 1
 2013 251 2038 246 2061 244 c 1
 2061 164 2058 86 2052 13 c 1
 2005 2 1941 0 1821 0 c 2
 1471 0 l 2
 1421 0 1405 14 1401 54 c 1
 1401 66 1403 81 1406 99 c 1
 1642 321 1787 464 1823 546 c 0
 1838 579 1846 619 1846 658 c 0
 1846 750 1806 802 1727 802 c 0
EndSplineSet
EndChar

StartChar: plusminus
Encoding: 177 177 154
Width: 1160
Flags: W
LayerCount: 2
Fore
SplineSet
499 799 m 1
 499 1172 l 1
 662 1172 l 1
 662 799 l 1
 1094 799 l 1
 1094 636 l 1
 662 636 l 1
 662 262 l 1
 499 262 l 1
 499 636 l 1
 67 636 l 1
 67 799 l 1
 499 799 l 1
67 -25 m 1
 67 138 l 1
 1094 138 l 1
 1094 -25 l 1
 67 -25 l 1
EndSplineSet
EndChar

StartChar: Thorn
Encoding: 222 222 155
Width: 1089
Flags: W
LayerCount: 2
Fore
SplineSet
65 756 m 0
 65 796 174 770 174 1097 c 2
 174 1282 l 2
 174 1468 139 1562 54 1652 c 1
 54 1652 59 1712 159 1712 c 0
 263 1712 324 1597 324 1597 c 1
 324 1597 390 1712 500 1712 c 0
 601 1712 606 1652 606 1652 c 1
 536 1575 499 1499 483 1379 c 1
 524 1413 575 1436 638 1436 c 0
 814 1436 967 1350 1010 1189 c 1
 1038 1034 1086 1041 1086 1020 c 0
 1086 1005 1042 1001 1010 818 c 1
 958 545 685 476 484 476 c 1
 484 386 l 2
 484 175 515 82 605 -14 c 1
 605 -14 600 -74 499 -74 c 0
 389 -74 323 41 323 41 c 1
 323 41 262 -74 158 -74 c 0
 58 -74 53 -14 53 -14 c 1
 143 80 174 180 174 386 c 0
 174 727 65 723 65 756 c 0
599 1222 m 0
 546 1222 484 1196 484 1172 c 2
 484 658 l 1
 617 671 700 698 700 821 c 2
 700 1152 l 2
 700 1183 658 1222 599 1222 c 0
EndSplineSet
EndChar

StartChar: onequarter
Encoding: 188 188 156
Width: 2591
Flags: MW
HStem: 734 21G<208 208 648 648> 743 87
VStem: 208 317<734 883 830 883>
LayerCount: 2
Fore
SplineSet
525 1579 m 1x60
 525 883 l 2
 525 861 527 846 531 833 c 1
 547 830 563 830 581 830 c 2
 648 830 l 1
 648 734 l 1
 569 741 499 743 433 743 c 0x60
 361 743 288 740 208 734 c 1xa0
 208 830 l 1x60
 290 830 l 2
 302 830 314 830 324 833 c 1
 328 847 331 867 331 898 c 2xa0
 331 1468 l 2
 331 1481 331 1493 330 1505 c 1
 316 1511 302 1514 283 1514 c 0
 277 1514 271 1513 265 1513 c 2
 200 1507 l 1
 195 1571 l 1
 283 1595 377 1619 452 1619 c 0
 511 1619 521 1608 525 1579 c 1x60
542 -35 m 1
 1218 1612 l 1
 1363 1542 l 1
 687 -105 l 1
 542 -35 l 1
1523 683 m 1
 1292 348 l 1
 1523 348 l 1
 1523 683 l 1
1768 251 m 2
 1708 251 l 1
 1708 178 l 2
 1708 147 1709 124 1714 108 c 1
 1730 106 1748 105 1768 105 c 2
 1837 105 l 1
 1837 2 l 1
 1752 9 1680 12 1619 12 c 0
 1551 12 1488 9 1393 2 c 1
 1393 105 l 1
 1462 105 l 2
 1482 105 1500 105 1516 108 c 1
 1521 124 1523 147 1523 177 c 2
 1523 251 l 1
 1169 251 l 1
 1150 276 1127 308 1127 362 c 1
 1138 381 1150 399 1164 419 c 0
 1350 687 1453 837 1523 931 c 1
 1609 931 l 2
 1672 931 1708 931 1708 874 c 2
 1708 348 l 1
 1882 348 l 1
 1882 306 l 2
 1882 256 1853 250 1812 250 c 0
 1799 250 1784 251 1768 251 c 2
EndSplineSet
EndChar

StartChar: divide
Encoding: 247 247 157
Width: 1150
Flags: W
LayerCount: 2
Fore
SplineSet
1087 492 m 1
 672 492 l 1
 687 512 696 537 696 562 c 0
 696 566 696 570 695 573 c 1
 696 577 696 581 696 585 c 0
 696 611 687 635 673 655 c 1
 1087 655 l 1
 1087 492 l 1
452 562 m 2
 452 536 461 512 476 492 c 1
 61 492 l 1
 61 655 l 1
 475 655 l 1
 460 635 452 611 452 585 c 2
 452 573 l 1
 452 562 l 2
495 655 m 1
 475 655 l 1
 497 686 534 706 574 706 c 0
 613 706 650 686 673 655 c 1
 652 655 l 1
 676 634 692 605 695 573 c 1
 692 541 675 512 650 492 c 1
 672 492 l 1
 649 461 613 441 575 441 c 0
 535 441 498 462 476 492 c 1
 496 492 l 1
 472 512 455 541 452 573 c 1
 455 606 471 634 495 655 c 1
EndSplineSet
EndChar

StartChar: degree
Encoding: 176 176 159
Width: 728
Flags: W
LayerCount: 2
Fore
SplineSet
364 1244 m 0
 249 1244 168 1157 168 1043 c 0
 168 929 249 842 364 842 c 0
 477 842 559 929 559 1043 c 0
 559 1157 477 1244 364 1244 c 0
364 742 m 0
 197 742 63 875 63 1042 c 0
 63 1209 197 1342 364 1342 c 0
 529 1342 663 1209 663 1042 c 0
 663 875 529 742 364 742 c 0
EndSplineSet
EndChar

StartChar: thorn
Encoding: 254 254 160
Width: 1211
Flags: W
LayerCount: 2
Fore
SplineSet
175 979 m 2
 175 1222 l 2
 175 1417 138 1516 49 1611 c 1
 52 1623 68 1666 157 1666 c 0
 254 1666 321 1557 321 1557 c 1
 321 1557 389 1666 486 1666 c 0
 561 1666 580 1611 580 1611 c 1
 515 1541 480 1467 464 1351 c 1
 534 1383 610 1401 682 1401 c 0
 887 1401 1081 1295 1081 984 c 0
 1081 705 1168 707 1168 680 c 0
 1168 651 1081 653 1081 356 c 0
 1081 87 887 -1 682 -1 c 0
 612 -1 532 15 455 50 c 1
 455 -173 488 -281 580 -380 c 1
 580 -380 561 -435 486 -435 c 0
 389 -435 321 -326 321 -326 c 1
 321 -326 254 -435 157 -435 c 0
 68 -435 52 -392 49 -380 c 1
 138 -285 173 -186 175 9 c 1
 175 381 l 2
 175 650 75 657 75 680 c 0
 75 697 175 723 175 979 c 2
541 680 m 0
 541 659 454 660 454 430 c 0
 454 277 468 179 621 179 c 0
 799 179 800 253 800 430 c 0
 800 663 713 660 713 680 c 0
 713 703 800 694 800 952 c 0
 800 1129 799 1207 621 1207 c 0
 468 1207 454 1107 454 952 c 0
 454 696 541 704 541 680 c 0
EndSplineSet
EndChar

StartChar: threequarters
Encoding: 190 190 161
Width: 2849
Flags: MW
HStem: 720 94<372.5 466 372 519> 1535 95<390.5 468>
VStem: 573 156 573 188<932 1038>
LayerCount: 2
Fore
SplineSet
567 1414 m 0xe0
 567 1494 506 1535 430 1535 c 0
 351 1535 267 1482 245 1380 c 1
 127 1466 l 1
 167 1576 280 1630 425 1630 c 0
 580 1630 729 1559 729 1421 c 0
 729 1315 656 1237 522 1209 c 1
 673 1188 761 1111 761 974 c 0xd0
 761 799 604 720 434 720 c 0
 311 720 197 762 137 818 c 1
 138 864 139 911 149 996 c 1
 245 984 l 1
 257 865 328 814 416 814 c 0
 516 814 573 884 573 980 c 0
 573 1096 494 1148 354 1148 c 2
 295 1148 l 1
 295 1188 l 2
 295 1241 321 1231 353 1237 c 1
 446 1244 567 1308 567 1414 c 0xe0
904 -35 m 1
 1580 1612 l 1
 1725 1542 l 1
 1049 -105 l 1
 904 -35 l 1
1908 682 m 1
 1677 347 l 1
 1908 347 l 1
 1908 682 l 1
2153 250 m 2
 2093 250 l 1
 2093 177 l 2
 2093 146 2094 123 2099 107 c 1
 2115 105 2133 104 2153 104 c 2
 2222 104 l 1
 2222 1 l 1
 2137 8 2065 11 2004 11 c 0
 1936 11 1873 8 1778 1 c 1
 1778 104 l 1
 1847 104 l 2
 1867 104 1885 104 1901 107 c 1
 1906 123 1908 146 1908 176 c 2
 1908 250 l 1
 1554 250 l 1
 1535 275 1512 307 1512 361 c 1
 1523 380 1535 398 1549 418 c 0
 1735 686 1838 836 1908 930 c 1
 1994 930 l 2
 2057 930 2093 930 2093 873 c 2
 2093 347 l 1
 2267 347 l 1
 2267 305 l 2
 2267 255 2238 249 2197 249 c 0
 2184 249 2169 250 2153 250 c 2
EndSplineSet
EndChar

StartChar: twosuperior
Encoding: 178 178 162
Width: 884
Flags: MW
HStem: 549 124 1351 89
VStem: 556 187<1183.5 1249>
LayerCount: 2
Fore
SplineSet
437 1347 m 0
 355 1347 278 1280 254 1170 c 1
 122 1264 l 1
 131 1370 272 1436 436 1436 c 0
 632 1436 743 1349 743 1188 c 0
 743 1024 590 889 311 669 c 1
 528 669 l 2
 600 669 653 701 696 798 c 1
 723 796 748 791 771 789 c 1
 771 709 768 631 762 558 c 1
 715 547 651 545 531 545 c 2
 181 545 l 2
 131 545 115 559 111 599 c 1
 111 611 113 626 116 644 c 1
 352 866 497 1009 533 1091 c 0
 548 1124 556 1164 556 1203 c 0
 556 1295 516 1347 437 1347 c 0
EndSplineSet
EndChar

StartChar: registered
Encoding: 174 174 163
Width: 1600
Flags: W
LayerCount: 2
Fore
SplineSet
799 -30 m 0
 385 -30 60 295 60 707 c 0
 60 1118 385 1445 799 1445 c 0
 1215 1445 1539 1118 1539 707 c 0
 1539 296 1215 -30 799 -30 c 0
799 84 m 0
 1137 84 1403 366 1403 707 c 0
 1403 1048 1138 1330 799 1330 c 0
 462 1330 196 1048 196 707 c 0
 196 366 462 84 799 84 c 0
460 1085 m 1
 496 1103 l 1
 839 1103 l 2
 1002 1103 1095 1016 1095 896 c 0
 1095 785 1013 696 896 677 c 1
 896 675 l 1
 992 595 1079 448 1156 352 c 1
 1173 313 l 1
 1009 313 l 1
 892 459 853 572 735 655 c 1
 658 655 l 1
 658 445 l 2
 658 396 657 380 706 366 c 1
 706 313 l 1
 460 313 l 1
 460 365 l 1
 509 381 508 393 508 444 c 2
 508 973 l 2
 508 1034 509 1058 460 1085 c 1
658 1025 m 1
 658 733 l 1
 787 733 l 2
 889 733 937 798 937 885 c 0
 937 994 877 1025 770 1025 c 2
 658 1025 l 1
EndSplineSet
EndChar

StartChar: eth
Encoding: 240 240 164
Width: 1151
Flags: W
LayerCount: 2
Fore
SplineSet
646 449 m 0
 646 465 723 469 723 656 c 0
 723 761 711 830 568 830 c 0
 398 830 397 777 397 656 c 0
 397 469 495 465 495 449 c 0
 495 432 407 436 407 240 c 0
 407 119 408 62 568 62 c 0
 720 62 733 133 733 240 c 0
 733 436 646 433 646 449 c 0
565 -132 m 0
 339 -132 126 -37 126 225 c 0
 126 432 39 430 39 449 c 0
 39 467 116 473 116 680 c 0
 116 927 329 1010 555 1010 c 0
 608 1010 661 995 722 974 c 1
 722 1160 723 1274 439 1274 c 0
 337 1274 280 1248 228 1195 c 1
 221 1197 198 1208 198 1265 c 0
 198 1332 270 1377 270 1377 c 1
 270 1377 198 1425 198 1490 c 0
 198 1545 229 1562 229 1562 c 1
 305 1511 369 1493 429 1493 c 0
 476 1493 515 1497 560 1497 c 0
 694 1497 1002 1435 1002 1140 c 2
 1002 748 l 2
 1002 489 1111 469 1111 449 c 0
 1111 430 1024 432 1024 225 c 0
 1024 -37 791 -132 565 -132 c 0
EndSplineSet
EndChar

StartChar: threesuperior
Encoding: 179 179 166
Width: 866
Flags: MW
HStem: 531 94<372.5 466 372 519> 1346 95<390.5 468>
VStem: 573 156 573 188<743 849>
LayerCount: 2
Fore
SplineSet
567 1225 m 0xe0
 567 1305 506 1346 430 1346 c 0
 351 1346 267 1293 245 1191 c 1
 127 1277 l 1
 167 1387 280 1441 425 1441 c 0
 580 1441 729 1370 729 1232 c 0
 729 1126 656 1048 522 1020 c 1
 673 999 761 922 761 785 c 0xd0
 761 610 604 531 434 531 c 0
 311 531 197 573 137 629 c 1
 138 675 139 722 149 807 c 1
 245 795 l 1
 257 676 328 625 416 625 c 0
 516 625 573 695 573 791 c 0
 573 907 494 959 354 959 c 2
 295 959 l 1
 295 999 l 2
 295 1052 321 1042 353 1048 c 1
 446 1055 567 1119 567 1225 c 0xe0
EndSplineSet
EndChar

StartChar: copyright
Encoding: 169 169 167
Width: 1600
Flags: W
LayerCount: 2
Fore
SplineSet
799 -30 m 0
 385 -30 60 295 60 707 c 0
 60 1118 385 1445 799 1445 c 0
 1215 1445 1539 1118 1539 707 c 0
 1539 296 1215 -30 799 -30 c 0
799 84 m 0
 1137 84 1403 366 1403 707 c 0
 1403 1048 1138 1330 799 1330 c 0
 462 1330 196 1048 196 707 c 0
 196 366 462 84 799 84 c 0
1079 565 m 1
 1161 547 l 1
 1147 488 1126 435 1098 387 c 1
 1064 342 971 294 821 294 c 0
 568 294 397 445 397 716 c 0
 397 934 534 1129 833 1129 c 0
 982 1129 1087 1081 1118 1013 c 1
 1126 976 1132 938 1136 899 c 1
 1056 884 l 1
 1027 975 957 1052 830 1052 c 0
 665 1052 572 917 572 720 c 0
 572 517 651 378 828 378 c 0
 952 378 1039 454 1079 565 c 1
EndSplineSet
EndChar

StartChar: foursuperior
Encoding: 8308 8308 226
Width: 1133
Flags: W
LayerCount: 2
Fore
SplineSet
550 1162 m 1
 319 827 l 1
 550 827 l 1
 550 1162 l 1
795 730 m 2
 735 730 l 1
 735 657 l 2
 735 626 736 603 741 587 c 1
 757 585 775 584 795 584 c 2
 864 584 l 1
 864 481 l 1
 779 488 707 491 646 491 c 0
 578 491 515 488 420 481 c 1
 420 584 l 1
 489 584 l 2
 509 584 527 584 543 587 c 1
 548 603 550 626 550 656 c 2
 550 730 l 1
 196 730 l 1
 177 755 154 787 154 841 c 1
 165 860 177 878 191 898 c 0
 377 1166 480 1316 550 1410 c 1
 636 1410 l 2
 699 1410 735 1410 735 1353 c 2
 735 827 l 1
 909 827 l 1
 909 785 l 2
 909 735 880 729 839 729 c 0
 826 729 811 730 795 730 c 2
EndSplineSet
EndChar

StartChar: Dcroat
Encoding: 272 272 244
Width: 1207
Flags: W
LayerCount: 2
Fore
SplineSet
484 342 m 0
 484 210 487 117 615 117 c 0
 748 117 746 200 746 351 c 0
 746 722 670 719 670 756 c 0
 670 809 746 762 746 1218 c 0
 746 1258 746 1372 624 1372 c 0
 486 1372 484 1285 484 1220 c 0
 484 763 560 807 560 756 c 0
 560 718 484 723 484 342 c 0
174 386 m 0
 174 727 65 723 65 756 c 0
 65 802 174 773 174 1163 c 0
 174 1341 143 1419 53 1503 c 1
 53 1503 57 1562 158 1562 c 0
 281 1562 356 1502 356 1502 c 1
 428 1575 564 1586 672 1586 c 0
 887 1586 1076 1491 1076 1230 c 2
 1076 1126 l 2
 1076 770 1163 799 1163 756 c 0
 1163 723 1076 727 1076 386 c 2
 1076 283 l 2
 1076 61 916 -74 680 -74 c 0
 564 -74 429 -57 356 11 c 1
 356 11 281 -74 158 -74 c 0
 57 -74 53 -14 53 -14 c 1
 143 74 174 197 174 386 c 0
919 1396 m 1
 288 1396 l 1
 288 1523 l 1
 919 1523 l 1
 919 1396 l 1
EndSplineSet
EndChar

StartChar: dcroat
Encoding: 273 273 245
Width: 1102
Flags: W
LayerCount: 2
Fore
SplineSet
440 311 m 0
 440 191 440 106 576 106 c 0
 677 106 678 182 678 319 c 0
 678 656 609 654 609 687 c 0
 609 736 678 698 678 1122 c 0
 678 1159 678 1262 587 1262 c 0
 442 1262 440 1183 440 1124 c 0
 440 699 509 735 509 687 c 0
 509 653 440 657 440 311 c 0
168 351 m 0
 168 661 69 657 69 687 c 0
 69 729 168 703 168 1057 c 0
 168 1219 140 1291 58 1367 c 1
 58 1367 62 1420 154 1420 c 0
 260 1420 324 1365 324 1365 c 1
 389 1432 513 1442 611 1442 c 0
 806 1442 978 1355 978 1118 c 2
 978 1024 l 2
 978 700 1057 726 1057 687 c 0
 1057 657 978 661 978 351 c 2
 978 257 l 2
 978 55 833 -67 618 -67 c 0
 513 -67 390 -52 324 10 c 1
 324 10 260 -67 154 -67 c 0
 62 -67 58 -13 58 -13 c 1
 140 67 168 179 168 351 c 0
273 548 m 1
 273 548 248 551 248 594 c 2
 248 690 l 2
 248 733 273 736 273 736 c 1
 341 726 462 723 589 723 c 0
 705 723 831 729 883 736 c 1
 883 736 908 733 908 690 c 2
 908 594 l 2
 908 550 883 548 883 548 c 1
 836 554 704 561 586 561 c 0
 457 561 335 558 273 548 c 1
EndSplineSet
EndChar

StartChar: uni03A9
Encoding: 937 937 280
Width: 1490
Flags: W
LayerCount: 2
Fore
SplineSet
1429 233 m 1
 1398 0 l 1
 868 0 l 1
 858 76 l 1
 973 188 1130 406 1130 705 c 0
 1130 1012 984 1227 748 1227 c 0
 513 1227 364 1034 364 702 c 0
 364 423 509 197 632 77 c 1
 625 0 l 1
 92 0 l 1
 66 233 l 1
 245 233 l 1
 269 178 283 165 332 166 c 2
 434 168 l 1
 290 275 119 452 119 725 c 0
 119 1089 385 1338 752 1338 c 0
 1129 1338 1373 1075 1373 736 c 0
 1373 477 1203 285 1051 168 c 1
 1163 166 l 2
 1210 165 1222 175 1246 233 c 1
 1429 233 l 1
EndSplineSet
EndChar

StartChar: pi
Encoding: 960 960 281
Width: 1214
Flags: W
LayerCount: 2
Fore
SplineSet
1149 976 m 1
 1171 891 l 1
 1152 850 1119 789 1089 773 c 1
 1060 769 1020 767 979 767 c 1
 975 656 974 549 974 434 c 0
 974 302 981 238 1020 210 c 1
 1040 210 1051 217 1067 228 c 1
 1072 139 1083 90 1095 53 c 1
 1039 14 957 -12 880 -12 c 1
 808 7 753 77 753 253 c 0
 753 437 758 608 763 769 c 1
 638 772 546 771 454 771 c 1
 449 429 366 117 315 5 c 1
 259 -4 207 -9 159 -12 c 1
 161 45 l 1
 265 248 313 574 318 773 c 1
 197 773 138 757 73 722 c 1
 43 810 l 1
 107 876 185 944 377 944 c 0
 564 944 789 941 994 941 c 0
 1054 941 1102 947 1149 976 c 1
EndSplineSet
EndChar

StartChar: Euro
Encoding: 8364 8364 282
Width: 1215
Flags: W
LayerCount: 2
Fore
SplineSet
1125 354 m 1
 1155 165 l 1
 1111 57 1014 -12 874 -12 c 1
 869 5 864 21 860 37 c 1
 817 -15 758 -27 705 -27 c 0
 421 -27 247 153 199 470 c 1
 55 470 l 1
 77 607 l 1
 186 607 l 1
 186 662 l 2
 186 687 186 707 187 723 c 1
 55 723 l 1
 77 860 l 1
 200 860 l 1
 248 1159 425 1341 707 1341 c 0
 811 1341 901 1313 966 1229 c 1
 980 1327 l 1
 1136 1327 l 1
 1136 938 l 1
 977 938 l 1
 954 1095 868 1182 731 1182 c 0
 564 1182 484 1061 455 860 c 1
 889 860 l 1
 867 723 l 1
 445 723 l 1
 444 702 444 681 444 660 c 2
 444 607 l 1
 850 607 l 1
 828 470 l 1
 456 470 l 1
 485 267 574 134 741 134 c 0
 875 134 969 239 996 381 c 1
 1125 354 l 1
EndSplineSet
EndChar

StartChar: partialdiff
Encoding: 8706 8706 283
Width: 1076
Flags: W
LayerCount: 2
Fore
SplineSet
501 877 m 0
 643 877 755 792 798 725 c 1
 806 756 809 841 809 879 c 0
 809 1119 708 1343 495 1343 c 0
 368 1343 267 1281 203 1231 c 1
 176 1253 136 1314 125 1368 c 1
 157 1421 296 1477 458 1477 c 0
 807 1477 1010 1141 1010 761 c 0
 1010 363 840 -22 455 -22 c 0
 196 -22 53 176 53 404 c 0
 53 705 269 877 501 877 c 0
555 758 m 0
 482 758 410 727 355 651 c 0
 302 577 273 479 273 377 c 0
 273 213 335 90 467 90 c 0
 651 90 745 352 781 596 c 1
 752 662 671 758 555 758 c 0
EndSplineSet
EndChar

StartChar: Delta
Encoding: 8710 8710 284
Width: 1309
Flags: W
LayerCount: 2
Fore
SplineSet
1264 0 m 1
 48 0 l 1
 48 91 l 1
 571 1330 l 1
 738 1344 l 1
 1264 92 l 1
 1264 0 l 1
1004 131 m 1
 737 775 l 1
 708 852 665 961 641 1030 c 1
 605 1102 l 1
 574 1016 524 891 483 791 c 0
 391 570 302 352 211 131 c 1
 1004 131 l 1
EndSplineSet
EndChar

StartChar: product
Encoding: 8719 8719 285
Width: 1447
Flags: W
LayerCount: 2
Fore
SplineSet
1404 1333 m 1
 1404 1221 l 1
 1309 1216 1251 1211 1207 1188 c 1
 1203 1157 1202 1122 1202 1079 c 2
 1202 130 l 2
 1202 18 1209 -33 1297 -76 c 1
 1297 -169 l 1
 896 -169 l 1
 896 -76 l 1
 975 -34 979 14 979 130 c 2
 979 1118 l 2
 979 1195 986 1210 890 1210 c 2
 558 1210 l 2
 479 1210 470 1200 470 1159 c 0
 470 1149 471 1136 471 1121 c 2
 471 130 l 2
 471 15 473 -34 547 -76 c 1
 547 -169 l 1
 154 -169 l 1
 154 -76 l 1
 237 -30 247 17 247 130 c 2
 247 1079 l 2
 247 1122 246 1157 242 1188 c 1
 197 1211 139 1216 44 1221 c 1
 44 1333 l 1
 1404 1333 l 1
EndSplineSet
EndChar

StartChar: summation
Encoding: 8721 8721 286
Width: 1159
Flags: W
LayerCount: 2
Fore
SplineSet
1112 120 m 1
 1061 -176 l 1
 44 -176 l 1
 44 -83 l 1
 530 547 l 1
 64 1237 l 1
 64 1333 l 1
 1043 1333 l 1
 1043 1291 1052 1177 1057 1082 c 1
 962 1073 l 1
 930 1118 895 1158 859 1181 c 1
 761 1207 669 1218 512 1218 c 1
 347 1215 l 1
 744 636 l 1
 311 74 l 1
 266 11 l 1
 726 11 l 2
 861 11 914 13 1010 130 c 1
 1112 120 l 1
EndSplineSet
EndChar

StartChar: radical
Encoding: 8730 8730 287
Width: 1155
Flags: W
LayerCount: 2
Fore
SplineSet
1123 1625 m 1
 724 -280 l 1
 617 -295 l 1
 235 652 l 1
 72 581 l 1
 41 674 l 1
 376 819 l 1
 616 189 l 1
 635 132 656 74 673 23 c 1
 676 23 l 1
 687 79 698 141 710 205 c 1
 1008 1635 l 1
 1123 1625 l 1
EndSplineSet
EndChar

StartChar: infinity
Encoding: 8734 8734 288
Width: 1472
Flags: W
LayerCount: 2
Fore
SplineSet
1405 547 m 2
 1405 544 l 2
 1405 339 1254 215 1094 215 c 0
 979 215 873 273 739 439 c 1
 637 318 534 215 374 215 c 0
 212 215 69 347 69 536 c 0
 69 728 207 862 392 862 c 0
 539 862 647 768 749 642 c 1
 834 738 931 862 1100 862 c 0
 1274 862 1405 741 1405 547 c 2
390 340 m 2
 394 340 l 2
 507 340 595 448 670 531 c 1
 588 637 512 741 382 741 c 0
 271 741 199 652 199 535 c 0
 199 428 278 340 390 340 c 2
1092 741 m 2
 1090 741 l 2
 969 741 876 613 813 542 c 1
 934 397 1002 340 1098 340 c 0
 1212 340 1276 443 1276 535 c 0
 1276 660 1200 741 1092 741 c 2
EndSplineSet
EndChar

StartChar: integral
Encoding: 8747 8747 289
Width: 777
Flags: W
LayerCount: 2
Fore
SplineSet
319 83 m 1
 310 387 283 705 283 1001 c 0
 283 1480 439 1614 615 1614 c 0
 671 1614 735 1587 746 1547 c 1
 742 1487 710 1448 678 1428 c 1
 632 1433 616 1502 582 1502 c 0
 516 1502 472 1426 472 1161 c 1
 479 945 489 727 500 503 c 0
 503 438 505 375 505 311 c 0
 505 -225 360 -360 178 -360 c 0
 110 -360 45 -326 34 -286 c 1
 37 -232 79 -183 115 -163 c 1
 156 -168 171 -244 211 -244 c 0
 270 -244 319 -155 319 83 c 1
EndSplineSet
EndChar

StartChar: approxequal
Encoding: 8776 8776 290
Width: 1098
Flags: W
LayerCount: 2
Fore
SplineSet
948 854 m 1
 1033 772 l 1
 965 656 872 580 760 580 c 0
 675 580 619 609 528 660 c 0
 471 692 416 724 349 724 c 0
 259 724 202 658 148 582 c 1
 62 663 l 1
 125 774 237 855 360 855 c 0
 453 855 520 813 576 781 c 0
 650 738 692 713 758 713 c 0
 837 713 891 763 948 854 c 1
948 498 m 1
 1033 417 l 1
 967 303 874 225 759 225 c 0
 624 225 485 369 350 369 c 0
 258 369 202 303 148 228 c 1
 62 309 l 1
 125 417 239 499 360 499 c 0
 552 499 617 357 757 357 c 0
 837 357 888 406 948 498 c 1
EndSplineSet
EndChar

StartChar: notequal
Encoding: 8800 8800 291
Width: 1064
Flags: W
LayerCount: 2
Fore
SplineSet
790 974 m 1
 709 798 l 1
 998 798 l 1
 998 668 l 1
 654 668 l 1
 533 402 l 1
 998 402 l 1
 998 271 l 1
 477 271 l 1
 372 42 l 1
 266 91 l 1
 349 271 l 1
 68 271 l 1
 68 402 l 1
 405 402 l 1
 526 668 l 1
 68 668 l 1
 68 798 l 1
 581 798 l 1
 684 1023 l 1
 790 974 l 1
EndSplineSet
EndChar

StartChar: lessequal
Encoding: 8804 8804 292
Width: 1059
Flags: W
LayerCount: 2
Fore
SplineSet
988 201 m 1
 69 632 l 1
 69 773 l 1
 987 1203 l 1
 987 1052 l 1
 210 705 l 1
 210 701 l 1
 988 352 l 1
 988 201 l 1
992 -6 m 1
 61 -6 l 1
 61 129 l 1
 992 129 l 1
 992 -6 l 1
EndSplineSet
EndChar

StartChar: greaterequal
Encoding: 8805 8805 293
Width: 1055
Flags: W
LayerCount: 2
Fore
SplineSet
74 1203 m 1
 993 772 l 1
 993 632 l 1
 75 201 l 1
 75 352 l 1
 850 700 l 1
 850 705 l 1
 74 1052 l 1
 74 1203 l 1
991 -6 m 1
 67 -6 l 1
 67 129 l 1
 991 129 l 1
 991 -6 l 1
EndSplineSet
EndChar

StartChar: lozenge
Encoding: 9674 9674 294
Width: 1072
Flags: W
LayerCount: 2
Fore
SplineSet
1031 648 m 1
 616 -118 l 1
 452 -118 l 1
 42 648 l 1
 457 1416 l 1
 619 1416 l 1
 1031 648 l 1
861 646 m 1
 587 1164 l 1
 568 1196 554 1236 539 1267 c 1
 533 1267 l 1
 442 1065 318 852 212 650 c 1
 488 128 l 2
 507 92 522 54 533 25 c 1
 540 25 l 1
 552 56 569 98 585 127 c 2
 861 646 l 1
EndSplineSet
EndChar

StartChar: uni2620
Encoding: 9760 9760 295
Width: 1037
Flags: W
LayerCount: 2
Fore
SplineSet
259 169 m 1
 259 193 266 214 266 237 c 0
 266 277 253 316 253 356 c 1
 314 356 277 215 321 215 c 1
 321 258 l 1
 331 258 347 253 349 249 c 1
 349 200 l 1
 364 200 l 1
 364 209 369 237 386 237 c 2
 389 237 l 1
 419 206 l 1
 426 212 435 212 444 212 c 0
 472 212 459 178 483 178 c 0
 505 178 487 206 508 206 c 0
 529 206 538 176 554 176 c 0
 569 176 573 206 584 206 c 2
 628 206 l 1
 634 215 637 218 646 218 c 0
 665 218 655 187 674 187 c 0
 677 187 683 187 683 194 c 2
 683 237 l 2
 683 251 714 242 720 255 c 0
 726 267 744 347 773 347 c 0
 782 347 782 338 782 332 c 0
 782 288 769 246 769 203 c 0
 769 187 775 172 775 156 c 0
 775 77 576 3 517 3 c 0
 416 3 314 89 259 169 c 1
474 273 m 0
 460 273 462 266 437 266 c 0
 430 266 422 267 422 273 c 2
 422 341 l 1
 404 341 413 292 382 292 c 0
 360 292 358 323 345 323 c 1
 334 316 l 1
 295 324 316 421 246 421 c 0
 243 421 211 409 198 409 c 0
 172 409 149 436 149 464 c 0
 149 485 154 510 154 532 c 0
 154 651 57 756 57 884 c 0
 57 981 64 1077 154 1145 c 0
 265 1229 381 1274 523 1274 c 0
 806 1274 977 1099 977 820 c 2
 977 758 l 1
 966 706 911 654 911 598 c 2
 911 544 l 2
 911 516 916 502 916 473 c 0
 916 343 677 418 659 261 c 1
 655 261 l 2
 630 261 634 293 611 293 c 0
 609 293 606 292 604 292 c 1
 604 258 606 242 576 242 c 0
 548 242 562 261 545 261 c 0
 529 261 536 242 517 242 c 0
 492 242 496 273 474 273 c 0
456 488 m 0
 456 470 481 464 496 464 c 0
 526 464 528 485 528 506 c 0
 528 513 527 519 526 525 c 1
 543 525 l 1
 543 487 569 461 587 461 c 0
 602 461 615 471 615 496 c 0
 615 546 573 635 529 635 c 0
 496 635 456 519 456 488 c 0
235 598 m 1
 244 599 251 599 259 599 c 0
 300 599 322 587 367 587 c 0
 407 587 468 635 468 681 c 0
 468 764 364 771 303 771 c 0
 275 771 211 764 211 725 c 0
 211 685 226 648 229 604 c 1
 235 598 l 1
809 588 m 1
 815 594 l 1
 822 630 853 661 853 695 c 0
 853 762 789 771 761 771 c 0
 704 771 606 764 606 681 c 0
 606 630 667 577 707 577 c 0
 740 577 756 591 785 591 c 0
 792 591 800 590 809 588 c 1
EndSplineSet
EndChar

StartChar: f_i
Encoding: 64257 64257 297
Width: 1175
Flags: W
LayerCount: 2
Fore
SplineSet
786 799 m 1
 395 799 l 1
 395 168 l 1
 548 168 l 1
 548 0 l 1
 48 0 l 1
 48 168 l 1
 202 168 l 1
 202 799 l 1
 48 799 l 1
 48 967 l 1
 202 967 l 1
 202 1141 l 2
 202 1333 323 1419 460 1419 c 0
 597 1419 687 1340 710 1196 c 1
 542 1169 l 1
 536 1232 511 1264 468 1264 c 0
 421 1264 395 1226 395 1159 c 2
 395 967 l 1
 978 967 l 1
 978 168 l 1
 1132 168 l 1
 1132 0 l 1
 632 0 l 1
 632 168 l 1
 786 168 l 1
 786 799 l 1
884 1411 m 0
 948 1411 999 1360 999 1296 c 0
 999 1233 948 1182 884 1182 c 0
 821 1182 769 1233 769 1296 c 0
 769 1360 821 1411 884 1411 c 0
EndSplineSet
EndChar

StartChar: f_l
Encoding: 64258 64258 298
Width: 1174
Flags: W
LayerCount: 2
Fore
SplineSet
395 967 m 1
 558 967 l 1
 558 799 l 1
 395 799 l 1
 395 168 l 1
 548 168 l 1
 548 0 l 1
 48 0 l 1
 48 168 l 1
 202 168 l 1
 202 799 l 1
 48 799 l 1
 48 967 l 1
 202 967 l 1
 202 1141 l 2
 202 1333 325 1419 460 1419 c 0
 513 1419 560 1406 581 1391 c 1
 978 1391 l 1
 978 168 l 1
 1132 168 l 1
 1132 0 l 1
 632 0 l 1
 632 168 l 1
 786 168 l 1
 786 1223 l 1
 544 1200 l 1
 532 1243 511 1264 468 1264 c 0
 421 1264 395 1226 395 1159 c 2
 395 967 l 1
EndSplineSet
EndChar

StartChar: ij
Encoding: 307 307 305
Width: 1437
Flags: W
LayerCount: 2
Fore
SplineSet
168 341 m 0
 168 660 69 656 69 687 c 0
 69 728 168 700 168 1044 c 0
 168 1216 140 1286 58 1366 c 1
 58 1366 62 1420 154 1420 c 0
 248 1420 304 1343 304 1343 c 1
 304 1343 360 1420 454 1420 c 0
 546 1420 550 1366 550 1366 c 1
 468 1286 440 1216 440 1044 c 0
 440 700 539 728 539 687 c 0
 539 656 440 660 440 341 c 0
 440 154 468 73 550 -13 c 1
 550 -13 546 -67 454 -67 c 0
 360 -67 304 10 304 10 c 1
 304 10 248 -67 154 -67 c 0
 63 -67 58 -13 58 -13 c 1
 140 73 168 154 168 341 c 0
892 -289 m 0
 837 -289 778 -305 706 -349 c 1
 706 -349 666 -344 666 -278 c 0
 666 -211 723 -169 723 -169 c 1
 723 -169 666 -125 666 -51 c 0
 666 15 706 20 706 20 c 1
 744 -27 785 -49 861 -49 c 0
 971 -49 972 58 972 245 c 0
 972 594 864 584 864 617 c 0
 864 662 972 628 972 1006 c 0
 972 1179 941 1279 851 1361 c 1
 851 1361 857 1420 956 1420 c 0
 1058 1420 1119 1335 1119 1335 c 1
 1119 1335 1178 1420 1286 1420 c 0
 1387 1420 1392 1361 1392 1361 c 1
 1300 1279 1271 1179 1271 1006 c 0
 1271 628 1378 659 1378 614 c 0
 1378 581 1271 585 1271 244 c 0
 1271 -135 1162 -289 892 -289 c 0
EndSplineSet
EndChar

StartChar: kgreenlandic
Encoding: 312 312 308
Width: 1263
Flags: W
LayerCount: 2
Fore
SplineSet
682 590 m 1
 670 600 l 1
 648 601 618 601 589 601 c 2
 528 601 l 2
 511 601 495 601 471 605 c 1
 461 369 l 1
 461 161 496 70 598 -30 c 1
 598 -30 577 -84 490 -84 c 0
 393 -84 326 23 326 23 c 1
 326 23 258 -84 161 -84 c 0
 74 -84 57 -42 54 -30 c 1
 146 69 179 160 179 369 c 0
 179 677 67 688 67 716 c 0
 67 757 179 738 179 1002 c 0
 179 1194 148 1274 53 1363 c 1
 53 1363 74 1419 161 1419 c 0
 258 1419 326 1311 326 1311 c 1
 326 1311 393 1419 490 1419 c 0
 580 1419 595 1376 598 1364 c 1
 496 1276 461 1196 461 1012 c 0
 461 866 465 829 469 772 c 1
 489 767 507 766 529 766 c 0
 596 766 681 778 681 778 c 1
 712 966 712 1168 810 1355 c 1
 810 1355 832 1420 884 1420 c 0
 952 1420 986 1324 986 1324 c 1
 986 1324 1064 1420 1136 1420 c 0
 1241 1420 1255 1384 1256 1368 c 1
 1106 1300 1030 1179 1030 1042 c 0
 1030 666 826 725 826 679 c 0
 826 635 1030 684 1030 331 c 0
 1030 184 1106 45 1256 -32 c 1
 1254 -47 1240 -84 1136 -84 c 0
 1064 -84 986 12 986 12 c 1
 986 12 952 -84 884 -84 c 0
 823 -84 812 -24 812 -24 c 1
 785 28 682 420 682 577 c 2
 682 590 l 1
EndSplineSet
EndChar

StartChar: IJ
Encoding: 306 306 316
Width: 1471
Flags: W
LayerCount: 2
Fore
SplineSet
174 375 m 0
 174 726 65 722 65 756 c 0
 65 801 174 770 174 1148 c 0
 174 1338 143 1415 53 1503 c 1
 53 1503 57 1562 158 1562 c 0
 262 1562 323 1457 323 1457 c 1
 323 1457 385 1562 488 1562 c 0
 590 1562 594 1503 594 1503 c 1
 504 1415 473 1338 473 1148 c 0
 473 770 582 801 582 756 c 0
 582 722 473 726 473 375 c 0
 473 169 504 80 594 -14 c 1
 594 -14 590 -74 488 -74 c 0
 385 -74 323 41 323 41 c 1
 323 41 262 -74 158 -74 c 0
 58 -74 53 -14 53 -14 c 1
 143 80 174 169 174 375 c 0
926 -147 m 0
 871 -147 812 -163 740 -207 c 1
 740 -207 700 -202 700 -136 c 0
 700 -69 757 -27 757 -27 c 1
 757 -27 700 17 700 91 c 0
 700 157 740 162 740 162 c 1
 778 115 819 93 895 93 c 0
 1005 93 1006 200 1006 387 c 0
 1006 736 898 726 898 759 c 0
 898 804 1006 770 1006 1148 c 0
 1006 1321 975 1421 885 1503 c 1
 885 1503 891 1562 990 1562 c 0
 1092 1562 1153 1457 1153 1457 c 1
 1153 1457 1212 1562 1320 1562 c 0
 1421 1562 1426 1503 1426 1503 c 1
 1334 1421 1305 1321 1305 1148 c 0
 1305 770 1412 801 1412 756 c 0
 1412 723 1305 727 1305 386 c 0
 1305 7 1196 -147 926 -147 c 0
EndSplineSet
EndChar

StartChar: dotaccentcmb
Encoding: 775 775 344
Width: 407
Flags: W
LayerCount: 2
Fore
SplineSet
79 1253 m 0
 79 1320 132 1377 203 1377 c 0
 274 1377 327 1320 327 1253 c 0
 327 1186 274 1129 203 1129 c 0
 132 1129 79 1186 79 1253 c 0
EndSplineSet
EndChar

StartChar: commaaccent
Encoding: 65542 -1 345
Width: 255
Flags: W
LayerCount: 2
Fore
SplineSet
-12 -353 m 1
 -12 -259 l 1
 91 -233 150 -179 150 -57 c 1
 148 -57 l 1
 121 -69 79 -73 40 -73 c 1
 9 -32 -22 33 -22 113 c 1
 -1 156 52 189 116 189 c 0
 167 189 211 175 250 154 c 1
 267 91 277 23 277 -48 c 0
 277 -230 164 -337 -12 -353 c 1
EndSplineSet
EndChar

StartChar: dotlessj
Encoding: 567 567 346
Width: 820
Flags: W
LayerCount: 2
Fore
SplineSet
275 -289 m 0
 220 -289 161 -305 89 -349 c 1
 89 -349 49 -344 49 -278 c 0
 49 -211 106 -169 106 -169 c 1
 106 -169 49 -125 49 -51 c 0
 49 15 89 20 89 20 c 1
 127 -27 168 -49 244 -49 c 0
 354 -49 355 58 355 245 c 0
 355 594 247 584 247 617 c 0
 247 662 355 628 355 1006 c 0
 355 1179 324 1279 234 1361 c 1
 234 1361 240 1420 339 1420 c 0
 441 1420 502 1335 502 1335 c 1
 502 1335 561 1420 669 1420 c 0
 770 1420 775 1361 775 1361 c 1
 683 1279 654 1179 654 1006 c 0
 654 628 761 659 761 614 c 0
 761 581 654 585 654 244 c 0
 654 -135 545 -289 275 -289 c 0
EndSplineSet
EndChar

StartChar: uni0311
Encoding: 785 785 347
Width: 763
Flags: W
LayerCount: 2
Fore
SplineSet
191 1106 m 1
 75 1106 l 1
 83 1283 193 1415 378 1415 c 0
 568 1415 680 1294 693 1106 c 1
 576 1106 l 1
 557 1218 488 1268 379 1268 c 0
 275 1268 206 1209 191 1106 c 1
EndSplineSet
EndChar

StartChar: uni0326
Encoding: 806 806 348
Width: 255
Flags: W
LayerCount: 2
Fore
SplineSet
-12 -353 m 1
 -12 -259 l 1
 91 -233 150 -179 150 -57 c 1
 148 -57 l 1
 121 -69 79 -73 40 -73 c 1
 9 -32 -22 33 -22 113 c 1
 -1 156 52 189 116 189 c 0
 167 189 211 175 250 154 c 1
 267 91 277 23 277 -48 c 0
 277 -230 164 -337 -12 -353 c 1
EndSplineSet
EndChar

StartChar: uni030F
Encoding: 783 783 349
Width: 889
Flags: W
LayerCount: 2
Fore
SplineSet
460 1103 m 1
 342 1103 l 1
 179 1272 l 2
 132 1320 92 1361 68 1410 c 1
 87 1430 120 1446 165 1446 c 0
 240 1446 287 1399 335 1361 c 1
 460 1103 l 1
826 1103 m 1
 708 1103 l 1
 545 1272 l 2
 499 1319 460 1361 435 1410 c 1
 450 1430 479 1446 522 1446 c 0
 602 1446 650 1399 701 1361 c 1
 826 1103 l 1
EndSplineSet
EndChar
